<svg width="24" height="25" viewBox="0 0 24 25" fill="none" xmlns="http://www.w3.org/2000/svg">
<path d="M21.5306 16.8939L17.0306 21.3939C16.8899 21.5346 16.699 21.6137 16.5 21.6137C16.301 21.6137 16.1101 21.5346 15.9694 21.3939C15.8286 21.2532 15.7496 21.0623 15.7496 20.8633C15.7496 20.6643 15.8286 20.4734 15.9694 20.3327L19.1897 17.1133H8.25C6.6587 17.1133 5.13258 16.4811 4.00736 15.3559C2.88214 14.2307 2.25 12.7046 2.25 11.1133C2.25 9.52198 2.88214 7.99586 4.00736 6.87064C5.13258 5.74542 6.6587 5.11328 8.25 5.11328H16.5C16.6989 5.11328 16.8897 5.1923 17.0303 5.33295C17.171 5.4736 17.25 5.66437 17.25 5.86328C17.25 6.06219 17.171 6.25296 17.0303 6.39361C16.8897 6.53426 16.6989 6.61328 16.5 6.61328H8.25C7.05653 6.61328 5.91193 7.08739 5.06802 7.9313C4.22411 8.77521 3.75 9.91981 3.75 11.1133C3.75 12.3068 4.22411 13.4513 5.06802 14.2953C5.91193 15.1392 7.05653 15.6133 8.25 15.6133H19.1897L15.9694 12.3939C15.8286 12.2532 15.7496 12.0623 15.7496 11.8633C15.7496 11.6643 15.8286 11.4734 15.9694 11.3327C16.1101 11.1919 16.301 11.1129 16.5 11.1129C16.699 11.1129 16.8899 11.1919 17.0306 11.3327L21.5306 15.8327C21.6004 15.9023 21.6557 15.985 21.6934 16.0761C21.7312 16.1671 21.7506 16.2647 21.7506 16.3633C21.7506 16.4618 21.7312 16.5594 21.6934 16.6505C21.6557 16.7415 21.6004 16.8243 21.5306 16.8939Z" fill="black"/>
</svg>
