<svg width="160" height="160" viewBox="0 0 160 160" fill="none" xmlns="http://www.w3.org/2000/svg">
<path d="M94.3274 13.6359L91.452 13.0951L90.7959 6.35439L88.9433 16.0502L85.2188 15.3355L88.152 0L92.7063 0.869142L93.6133 9.54125L97.6659 1.81554L102.22 2.68468L99.2869 18.0202L95.5817 17.3056L97.4536 7.55188L94.3081 13.6166L94.3274 13.6359Z" fill="white"/>
<path d="M111.869 23.5439L107.952 21.8249L110.21 10.8351L103.61 19.9321L99.7695 18.2518L109.708 5.54297L114.455 7.62891L111.869 23.5439ZM111.561 17.5564L110.345 20.3184L103.185 17.1895L104.401 14.4275L111.561 17.5564Z" fill="white"/>
<path d="M121.271 11.125L124.764 13.5586L115.829 26.364L112.336 23.9304L121.271 11.125ZM120.422 19.8357L124.05 22.3659L122.004 30.671L118.26 28.0443L120.422 19.8357ZM124.05 22.3659L120.422 19.8357L127.157 15.2196L130.901 17.8271L124.03 22.3466L124.05 22.3659Z" fill="white"/>
<path d="M133.581 20.3203L136.572 23.3333L125.495 34.3425L122.504 31.3294L133.581 20.3203ZM131.439 35.9842L129.277 38.1281L123.585 32.3917L125.746 30.2478L131.439 35.9842ZM135.279 30.8466L133.118 32.9905L128.293 28.1426L130.455 25.9987L135.279 30.8466ZM140.181 26.9644L138.019 29.1083L132.481 23.5265L134.642 21.3826L140.181 26.9644Z" fill="white"/>
<path d="M145.565 33.9727L147.92 37.5265L134.913 46.16L132.559 42.6061L145.565 33.9727Z" fill="white"/>
<path d="M149.522 43.2654L151.414 47.0896L138.716 53.3475L136.844 49.5232L149.542 43.2654H149.522ZM154.058 49.1563L151.336 50.5083L146.801 41.2954L149.522 39.9434L154.058 49.1563Z" fill="white"/>
<path d="M157.011 57.5176L157.918 61.6701L142.673 65.0115L141.766 60.8589L157.011 57.5176ZM149.639 63.0028L150.527 67.0588L144.236 72.1771L143.252 67.7155L149.639 63.0028ZM151.916 65.3399L154.908 64.6832C155.081 64.6445 155.197 64.5673 155.274 64.4514C155.351 64.3355 155.351 64.181 155.313 63.9685L154.348 59.5456L157.32 58.8889L158.574 64.5673C158.844 65.842 158.786 66.7884 158.362 67.4451C157.937 68.1018 157.281 68.5074 156.393 68.7199L152.457 69.589C151.569 69.7821 150.797 69.6662 150.141 69.2606C149.485 68.8551 149.022 68.0052 148.751 66.7498L147.497 61.0714L150.315 60.4533L151.28 64.8763C151.318 65.0888 151.395 65.224 151.511 65.3012C151.627 65.3785 151.762 65.3978 151.936 65.3592L151.916 65.3399Z" fill="white"/>
<path d="M144.482 85.3887L144.404 81.1009L155.327 78.5901L144.327 76.3689L144.25 72.1777L159.92 75.9247L159.997 81.1009L144.462 85.3694L144.482 85.3887ZM149.789 82.6268L146.778 82.6847L146.643 74.8817L149.653 74.8238L149.789 82.6268Z" fill="white"/>
<path d="M159.615 88.0558L159.075 92.2856L143.598 90.2962L144.138 86.0664L159.615 88.0558Z" fill="white"/>
<path d="M156.759 102.482L155.736 106.229L140.684 102.134L141.648 98.6191L150.468 97.4217L142.555 95.2585L143.578 91.4922L158.65 95.5868L157.685 99.102L148.731 100.261L156.778 102.463L156.759 102.482Z" fill="white"/>
<path d="M138.172 107.58L141.704 109.415L139.774 113.123L136.242 111.288L138.172 107.58Z" fill="white"/>
<path d="M130.299 125.312L132.209 123.11L138.385 125.911L130.916 119.44L133.406 116.562L145.197 126.799L142.148 130.314L134.197 126.76L138.848 134.138L135.799 137.654L124.008 127.417L126.478 124.559L133.985 131.068L130.318 125.312H130.299Z" fill="white"/>
<path d="M112.933 135.607L116.368 133.058L124.763 140.494L120.189 130.238L123.547 127.746L129.587 142.695L125.419 145.766L112.914 135.588L112.933 135.607ZM118.26 138.311L116.465 135.877L122.737 131.242L124.531 133.676L118.26 138.311Z" fill="white"/>
<path d="M111.908 144.838L107.914 146.731L101.738 140.821L105.868 138.87L111.908 144.857V144.838ZM107.894 146.731L111.889 144.838L112.526 152.989L108.396 154.939L107.894 146.731ZM119.029 149.937L115.17 151.752L108.531 137.614L112.391 135.799L119.029 149.937Z" fill="white"/>
<path d="M92.3813 146.344L91.6094 143.408L99.4057 141.341L100.178 144.277L92.3813 146.344ZM94.9093 152.254L94.1374 149.318L100.737 147.58L101.509 150.516L94.9093 152.254ZM95.8163 158.454L95.0444 155.518L102.648 153.509L103.42 156.445L95.8356 158.454H95.8163ZM104.867 156.059L100.757 157.14L96.7812 142.037L100.892 140.955L104.867 156.059Z" fill="white"/>
<path d="M87.074 159.573L82.8284 159.824L81.8828 144.237L86.1284 143.986L87.074 159.573Z" fill="white"/>
<path d="M69.7266 159.343L69.9195 156.31L80.1667 156.967L79.9738 159.999L69.7266 159.343ZM77.0791 158.358L72.8335 158.087L73.7598 143.949L78.0054 144.22L77.0791 158.358Z" fill="white"/>
<path d="M56.7754 149.434L55.8491 152.35C55.7912 152.524 55.8105 152.659 55.8491 152.775C55.8877 152.891 56.0421 152.987 56.2543 153.045L60.5771 154.417L59.6701 157.314L54.1316 155.556C52.8965 155.17 52.1053 154.629 51.7579 153.934C51.4106 153.239 51.372 152.466 51.6421 151.597L52.8579 147.753C53.1281 146.884 53.6105 146.266 54.286 145.918C54.9614 145.571 55.9263 145.571 57.1614 145.957L62.6999 147.715L61.8315 150.477L57.528 149.105C57.335 149.047 57.1614 149.028 57.0456 149.105C56.9298 149.163 56.8333 149.279 56.7947 149.453L56.7754 149.434ZM59.9403 148.622L55.9842 147.367L54.6912 139.352L59.0525 140.723L59.9596 148.603L59.9403 148.622ZM61.0016 157.739L56.9491 156.464L61.6578 141.573L65.7103 142.847L61.0016 157.739Z" fill="white"/>
<path d="M43.0716 132.922L46.8154 135.008L43.5155 145.727L50.9452 137.306L54.5925 139.334L43.4962 151.038L38.9805 148.508L43.0716 132.902V132.922ZM42.8015 138.89L44.2681 136.263L51.0803 140.068L49.6136 142.695L42.8015 138.89Z" fill="white"/>
<path d="M33.2326 144.703L29.8555 142.115L39.35 129.715L42.7272 132.303L33.2326 144.703Z" fill="white"/>
<path d="M22.1934 135.027L19.4531 132.265L30.5494 121.275L33.1161 123.864L29.7389 132.111L35.5669 126.336L38.3072 129.098L27.2109 140.087L24.6443 137.499L28.1179 129.156L22.1934 135.027Z" fill="white"/>
<path d="M27.0727 116.369L23.7149 118.532L21.457 115.017L24.8149 112.854L27.0727 116.369Z" fill="white"/>
<path d="M15.654 100.706L16.6189 103.468L11.119 107.408L20.4399 104.164L21.675 107.756L6.93135 112.874L5.40682 108.49L12.4506 103.372L3.74719 103.719L2.22266 99.3351L16.9663 94.2168L18.2013 97.7706L8.82255 101.035L15.6347 100.726L15.654 100.706Z" fill="white"/>
<path d="M15.4586 80.5017L15.9411 84.7509L5.30792 88.2854L16.4814 89.4636L16.9446 93.6161L0.985188 91.3564L0.40625 86.1994L15.4779 80.4824L15.4586 80.5017ZM10.4412 83.7465L13.4324 83.4182L14.3008 91.1825L11.3096 91.5109L10.4412 83.7465Z" fill="white"/>
<path d="M0 78.5714L0.347363 74.3223L15.9015 75.6356L15.5541 79.8848L0 78.5714ZM8.33671 70.5174L7.97005 74.9403L0.598236 71.4058L0.984194 66.8477L8.33671 70.5174ZM7.97005 74.9403L8.33671 70.5174L16.5383 68.1224L16.1524 72.6806L7.95075 74.921L7.97005 74.9403Z" fill="white"/>
<path d="M1.77734 63.2735L2.89662 59.1595L17.9683 63.2348L16.849 67.3488L1.77734 63.2735ZM4.22818 54.2344L7.16147 55.0263L5.11589 62.6168L2.1826 61.8249L4.22818 54.2344ZM10.0369 56.5328L12.9701 57.3247L11.1947 63.9301L8.26145 63.1383L10.0369 56.5328ZM16.4052 57.3053L19.3385 58.0972L17.235 65.9002L14.3017 65.1083L16.4052 57.3053Z" fill="white"/>
<path d="M7.58594 46.1233L9.47713 42.3184L23.4488 49.2908L21.5576 53.0957L7.58594 46.1233Z" fill="white"/>
<path d="M16.5559 31.0762L19.084 32.7758L13.3718 41.3127L10.8438 39.6131L16.5559 31.0762ZM13.7191 37.9327L16.0928 34.3982L27.8452 42.2978L25.4716 45.8323L13.7191 37.9327Z" fill="white"/>
<path d="M22.2656 24.4141L25.4112 21.5363L35.9479 33.0669L32.8023 35.9447L22.2656 24.4141ZM31.5865 24.897L29.5216 22.6372C29.4059 22.502 29.2708 22.444 29.1357 22.444C29.0006 22.444 28.8655 22.5213 28.7111 22.6565L25.3726 25.7082L23.327 23.4677L27.6112 19.5469C28.576 18.6778 29.4252 18.2528 30.1971 18.2915C30.969 18.3301 31.6637 18.6778 32.2813 19.3538L35.0023 22.3282C35.6198 23.0042 35.9093 23.7188 35.8707 24.4914C35.8321 25.2639 35.3496 26.0944 34.3847 26.9636L30.1006 30.8844L28.1515 28.7405L31.49 25.6888C31.6444 25.5536 31.7216 25.4184 31.7409 25.2832C31.7602 25.148 31.7023 25.0128 31.5865 24.897ZM30.6988 28.0452L33.7672 25.2446L41.3513 28.1418L37.9741 31.232L30.6988 28.0645V28.0452Z" fill="white"/>
<path d="M52.6432 21.2869L48.9766 23.4887L41.3153 15.2802L44.9047 25.9223L41.3153 28.0855L36.7031 12.6341L41.1416 9.96875L52.6239 21.2869H52.6432ZM47.6065 18.0807L49.1503 20.6689L42.4539 24.6862L40.8908 22.0981L47.5872 18.0807H47.6065Z" fill="white"/>
<path d="M47.3359 6.87609L51.2727 5.23438L57.2937 19.6428L53.3569 21.2845L47.3359 6.87609Z" fill="white"/>
<path d="M61.2683 2.12565L65.0314 1.14062L69.0067 16.2444L65.4752 17.1715L60.0332 10.1218L62.1174 18.0599L58.3543 19.045L54.3789 3.94119L57.9104 3.01411L63.391 10.199L61.2683 2.12565Z" fill="white"/>
<path d="M74.9899 15.6836L74.7969 11.7049L78.9845 11.5117L79.1582 15.4905L74.9899 15.6836Z" fill="white"/>
<path d="M71.042 101.356C62.8112 98.3578 55.0722 94.0565 48.0394 88.5706L47.9671 88.5135L47.9 88.4526C46.5902 87.2584 45.4463 86.0439 44.4603 84.7985C43.1131 83.0966 42.0588 81.3361 41.2744 79.4817C40.8237 78.4159 40.4889 77.2001 40.2825 75.8657C39.7224 72.261 41.5102 69.4269 45.1884 68.087C48.762 66.7839 52.3971 67.0777 55.7929 67.588C56.6162 67.7111 57.4185 67.8649 58.2628 68.0283C58.4924 67.6967 58.722 67.3651 58.9528 67.0301C60.16 65.2803 61.4081 63.4723 62.6857 61.6923C64.0469 59.7967 65.5051 57.8634 67.0212 55.9453C68.8629 53.6115 72.2723 51.174 78.0271 52.8167C78.474 52.9449 78.9177 53.0873 79.3447 53.2428C82.5176 54.3987 85.086 56.307 86.9801 58.9136C87.6587 59.849 88.3657 60.4391 89.141 60.7216C89.9163 61.004 90.8433 61.011 91.9777 60.7418C95.0662 60.0098 97.8041 60.1056 100.352 61.0338C100.902 61.234 101.449 61.4777 101.976 61.7562C106.344 64.0625 107.134 67.4222 107.028 69.8328C106.898 72.7902 106.694 75.778 106.493 78.6691C106.407 79.9027 106.322 81.1387 106.242 82.3725C106.191 83.1671 106.003 84.4194 105.819 85.5095C105.852 85.5256 105.887 85.5401 105.923 85.5552C109.024 86.9366 111.687 88.9046 113.839 91.4014C116.251 94.1984 116.459 96.6194 116.207 98.156C115.744 101.005 113.463 102.862 111.635 103.917C108.276 105.854 105.337 106.052 102.128 106.077C100.563 106.241 87.5303 107.361 71.0444 101.355L71.042 101.356Z" fill="white"/>
<path d="M49.4681 86.8095C46.9114 84.4767 44.7632 81.8275 43.4187 78.6522C43.0051 77.6749 42.741 76.6136 42.5793 75.5704C42.1885 73.0481 43.3865 71.1815 46.0394 70.214C49.1119 69.0956 52.3008 69.3518 55.4864 69.8298C56.7114 70.0146 57.9269 70.2747 59.3531 70.5385C61.0565 68.089 62.7918 65.5299 64.5949 63.0187C65.9731 61.0985 67.4011 59.2099 68.8691 57.3532C71.0813 54.5565 74.0534 54.0301 77.42 54.9912C80.5512 55.8858 83.1846 57.566 85.0965 60.2002C86.993 62.8115 89.3745 63.7021 92.5685 62.947C95.3639 62.2852 98.1771 62.3046 100.905 63.7463C103.402 65.0654 104.831 66.9469 104.711 69.6907C104.529 73.8594 104.197 78.0197 103.928 82.1835C103.856 83.2955 103.443 85.6806 103.226 86.7626C103.226 86.7626 104.003 87.1747 104.996 87.617C107.74 88.8397 110.131 90.5833 112.078 92.8421C115.093 96.3396 114.481 99.6193 110.428 101.959C107.591 103.594 105.142 103.789 101.947 103.812C101.947 103.812 75.3135 106.967 49.4698 86.8101L49.4681 86.8095Z" fill="black"/>
<path d="M77.9477 77.6821C77.8603 78.1731 83.0249 79.6565 85.3922 80.6842C85.6517 80.8153 85.6596 80.9027 85.3603 80.9244C82.8267 80.9646 79.6641 79.9164 77.125 79.6393C77.0183 79.6273 76.9597 79.8213 77.0593 79.8633C79.3778 80.8617 82.5505 81.7349 84.9962 82.7488C85.342 82.9151 85.1932 82.959 84.8299 82.9497C81.8992 82.9644 76.4658 80.9178 76.1505 81.2125C75.9188 81.4299 76.7974 81.7172 77.012 81.83C79.0237 82.5821 81.1242 83.2972 83.0926 84.07C83.3164 84.1958 83.6341 84.325 83.6799 84.5262C83.6248 84.7157 83.158 84.6533 82.9272 84.623C80.5107 84.1503 75.8549 82.6139 75.4978 82.8221C75.3441 82.9122 75.4524 83.0939 75.5855 83.1693C76.7893 83.7232 78.1835 84.135 79.5331 84.5439C80.5382 84.8485 85.1473 86.8294 83.5807 86.5701C69.2429 84.2058 62.6181 78.2303 62.1804 77.3249C61.819 76.5801 62.8837 77.2274 63.1295 77.1785C63.5891 77.0864 62.731 76.3067 62.4779 75.9781C61.0664 74.2624 62.7738 75.2842 63.4627 75.6082C64.107 75.8256 63.5238 75.0749 63.1958 74.5709C62.6934 73.865 62.0703 72.9133 62.3535 72.707C63.1023 72.4626 63.9168 73.7763 64.5918 73.6915C64.6816 72.9976 63.469 72.081 63.6132 71.3357C63.7441 70.8778 66.2695 73.0185 66.3277 72.4879C66.3148 72.218 65.7106 71.3942 65.3356 70.7905C65.096 70.3975 64.0597 68.9743 64.3939 69.0037C65.5663 69.5077 67.0911 70.9609 68.1807 71.4962C68.3963 71.5901 68.4717 71.5407 68.3843 71.3397C67.7682 70.2598 66.7243 69.2336 66.0062 68.1454C64.9949 66.3756 69.0522 70.0317 69.4609 70.0959C70.6164 70.4938 67.1592 67.0948 67.2625 66.6037C67.2256 66.3346 67.6828 66.5108 68.2476 66.9088C69.4106 67.8092 71.2132 69.0925 69.7184 66.8755C69.5077 66.4739 67.9156 64.5463 68.7665 64.6698C69.7647 65.1295 71.3854 66.9676 70.0056 64.4945C69.5975 63.8018 68.5001 61.8218 70.0492 62.9302C70.283 63.0557 70.6555 63.4701 70.8465 63.2667C71.0656 62.964 70.1553 61.4232 70.5081 60.998C70.8495 60.588 71.7412 61.4876 71.913 61.2003C72.2095 60.7066 71.0559 59.3771 71.8408 58.0963C72.6257 56.8154 76.5303 57.3054 78.7688 58.1805C81.1751 59.1282 77.2628 58.9372 76.1583 59.2057C74.6186 59.5811 73.9567 62.535 74.3451 64.497C75.2267 69.5991 78.59 71.4087 83.3083 69.6287C86.8389 68.5638 90.3289 67.3763 93.8744 66.4014C95.9699 65.8383 98.9544 65.2779 100.72 66.7727C101.085 67.0825 100.823 67.6445 100.52 67.7458C100.002 67.9166 99.24 68.0022 98.8253 68.0146C95.9856 68.0951 93.6105 67.8028 89.4956 69.9237C88.7816 70.2903 90.4726 70.5891 90.6735 70.7123C92.0952 71.3647 87.5965 71.3965 87.3848 71.6789C87.0838 71.8961 87.7062 72.0267 87.917 72.1284C90.2843 73.0523 83.8281 72.7882 83.7155 73.3758C83.864 73.8394 86.7076 73.9659 86.6958 74.3692C86.7108 74.415 86.6848 74.4594 86.6213 74.4977C85.9628 74.7769 85.0809 74.6787 84.2516 74.7572C83.4168 74.8184 82.4772 74.7971 81.7015 74.9298C80.8026 75.2598 86.5 76.2645 85.8339 76.6793C83.7671 76.8472 81.567 76.1227 79.4849 76.1909C79.3349 76.2112 79.2618 76.3576 79.3293 76.4225C81.1409 77.2997 83.5592 77.675 85.3631 78.557C85.6889 78.7892 85.3467 78.8202 85.0801 78.8173C82.7496 78.6585 78.1045 77.3163 77.9461 77.6757L77.9477 77.6821Z" fill="white"/>
<path d="M46.2619 75.7177C46.4013 73.9884 49.4315 83.2047 55.0244 85.9303C55.3323 86.0809 55.1017 85.772 54.9781 85.627C53.9661 84.3875 52.6504 83.0951 51.7136 81.8234C51.6076 81.6463 51.5895 81.5052 51.8396 81.6078C52.6553 81.9319 58.7716 87.3434 55.4381 83.3647C55.0347 82.839 54.1545 81.3899 55.5839 82.5604C65.9543 90.9403 78.3394 95.2732 91.5968 96.45C93.5804 96.7016 95.7947 96.7277 97.7462 96.9965C96.3725 97.6457 94.2444 97.4971 92.6493 97.7523C90.4086 98.4202 100.197 98.1929 100.738 98.3171C103.499 98.5404 98.4026 99.181 97.753 99.327C96.8326 99.4761 97.1097 99.8097 97.7039 99.8435C101.214 100.05 104.678 99.9001 108.177 98.8891C110.478 98.224 108.241 99.689 107.618 99.8967C93.7344 105.51 48.1677 92.4679 46.2449 75.7154L46.2643 75.7167L46.2619 75.7177Z" fill="white"/>
</svg>
