<svg width="450" height="597" viewBox="0 0 450 597" fill="none" xmlns="http://www.w3.org/2000/svg">
<path d="M385.662 198.663C385.852 198.334 386.037 197.985 386.212 197.594C388.293 193.039 389.944 189.429 388.36 186.058C386.772 182.666 382.902 181.871 378.421 180.951C374.326 180.113 370.177 179.368 366.156 178.661C363.359 178.17 360.57 177.665 357.776 177.14C351.54 175.944 346.875 172.286 343.518 165.96C341.345 161.879 339.321 157.569 337.351 153.396C336.582 151.758 335.8 150.113 335.018 148.468C328.838 135.58 319.383 124.329 305.255 113.066C295.597 105.367 285.608 97.4052 278.216 87.2227C278.009 86.9456 277.818 86.6422 277.64 86.346C277.136 85.5461 276.498 84.5459 275.596 83.6566C274.579 82.6485 273.442 82.1673 272.602 81.8052C272.399 81.7234 272.217 81.6356 272.035 81.5479C270.943 80.9877 269.64 80.9374 268.464 81.4168C267.504 81.8104 266.695 82.5193 266.171 83.4276C266.049 83.6382 265.947 83.8429 265.863 84.0751C265.815 84.1876 265.739 84.3193 265.675 84.4581C265.166 85.4275 264.313 87.0767 264.639 89.1078C264.874 90.5768 265.052 92.0841 265.231 93.5914C265.753 97.9648 266.302 102.494 268.066 106.707C270.971 113.614 274.48 120.256 277.874 126.691C279.252 129.294 280.617 131.89 281.954 134.505C281.345 133.715 280.743 132.911 280.142 132.107C274.264 124.291 267.153 118.325 260.337 113.056L257.052 110.527C247.245 102.97 237.087 95.1567 228.992 85.5864C227.954 84.3554 226.695 83.7686 225.762 83.3356C225.555 83.2334 225.34 83.1444 225.153 83.0363C224.016 82.3801 222.623 82.313 221.372 82.8366C220.424 83.2374 219.648 83.9475 219.139 84.8295C218.971 85.1191 218.822 85.4363 218.729 85.7691C218.653 85.9882 218.544 86.206 218.447 86.4311C217.911 87.6484 216.988 89.6784 217.629 91.9436C218.031 93.3519 218.378 94.7984 218.745 96.2389C219.91 100.913 221.113 105.75 223.541 110.082C227.83 117.736 232.67 125.129 237.341 132.266C239.308 135.262 241.279 138.278 243.211 141.307C243.61 141.941 243.936 142.445 244.133 142.91C244.183 143.026 244.232 143.143 244.289 143.246C236.713 133.729 227.275 126.051 215.423 119.788C212.935 118.474 210.393 117.252 207.927 116.074C203.648 114.025 199.602 112.092 195.854 109.701C191.573 106.965 187.587 103.804 183.386 100.466C181.249 98.7757 179.051 97.0156 176.833 95.3488C175.668 94.4831 174.465 94.0868 173.497 93.7736C173.229 93.6892 172.974 93.6121 172.721 93.5014C171.449 92.9948 169.999 93.1408 168.794 93.9017C168.14 94.3138 167.61 94.8854 167.23 95.5436C166.911 96.0964 166.696 96.7274 166.625 97.3705C166.598 97.6184 166.539 97.8651 166.485 98.1321C166.239 99.3068 165.914 100.909 166.384 102.69C168.475 110.374 172.438 117.699 178.171 124.467C183.123 130.309 188.385 135.962 193.485 141.434C195.673 143.786 197.875 146.145 200.048 148.523C200.745 149.277 201.423 150.036 202.112 150.803C202.742 151.5 203.32 152.114 203.863 152.674C194.607 144.855 184.089 138.414 171.963 133.115C164.956 130.053 158.023 126.313 151.303 122.697C149.067 121.494 146.831 120.291 144.588 119.101C143.998 118.795 143.337 118.238 142.627 117.652C141.806 116.968 140.881 116.206 139.785 115.538C138.389 114.697 136.939 114.526 135.877 114.405C135.611 114.374 135.358 114.351 135.108 114.294C133.809 114.036 132.433 114.4 131.387 115.288C130.966 115.642 130.618 116.072 130.344 116.546C129.942 117.244 129.706 118.056 129.698 118.876C129.7 119.105 129.668 119.332 129.644 119.547C129.54 120.592 129.385 122.188 130.012 123.813C132.982 131.618 137.498 138.649 143.443 144.732C147.82 149.206 152.476 153.457 156.972 157.58C158.999 159.434 161.013 161.281 163.024 163.162C163.358 163.478 163.664 163.812 163.983 164.154C164.896 165.138 166.027 166.353 167.598 167.207C168.135 167.517 168.708 167.708 169.266 167.837C169.348 168.042 169.437 168.234 169.546 168.419C169.804 168.867 170.06 169.26 170.315 169.653C168.961 168.626 167.593 167.591 166.224 166.589C155.197 158.52 143.169 153.138 130.492 150.61C120.426 148.607 110.02 146.847 100.838 145.302C99.1228 145.013 97.5228 145.16 96.1085 145.274C95.6144 145.322 95.1079 145.363 94.629 145.385C93.0621 145.446 91.6229 146.352 90.8325 147.721C90.6805 147.985 90.5535 148.262 90.459 148.541L90.1198 149.504C89.5688 151.064 89.8768 152.751 90.9172 153.948C91.0367 154.087 91.1485 154.24 91.2729 154.399C91.7355 154.982 92.3496 155.793 93.2754 156.468L97.2005 159.331C104.25 164.454 111.539 169.768 118.791 174.885C121.394 176.722 124.07 178.46 126.667 180.134C128.834 181.544 131.076 182.996 133.225 184.465L133.806 184.871C135.336 185.912 136.921 187.003 137.636 188.1C137.693 188.203 137.77 188.3 137.835 188.39C127.251 183.824 114.224 180.199 99.3726 182.419C90.0978 183.804 80.7564 186.659 70.8233 191.174C50.7286 200.283 32.2477 213.114 15.9145 229.291C14.2376 230.956 12.8152 232.785 11.3245 234.733C10.6171 235.64 9.87177 236.614 9.05096 237.632C8.8843 237.834 8.75021 238.038 8.621 238.262C7.94463 239.433 7.79055 240.854 8.23643 242.129C8.76862 243.63 10.043 244.681 11.6007 244.896C12.2017 244.98 12.6773 245.079 13.0954 245.162C14.1568 245.372 15.366 245.613 16.7689 245.318C30.4766 242.455 44.5951 243.727 62.5591 249.412C77.5335 254.161 89.4842 256.217 101.278 256.093C116.984 255.912 131.901 250.869 145.646 241.078C146.638 240.369 147.637 239.648 148.629 238.939C148.559 239.004 148.5 239.075 148.438 239.127C148.281 239.282 148.13 239.458 147.968 239.593C147.54 239.96 147.192 240.391 146.926 240.851C146.66 241.312 146.458 241.863 146.362 242.404C145.773 242.906 145.361 243.388 145.124 243.655L142.456 246.748C136.824 253.272 131.003 260.039 125.329 266.75C121.888 270.836 119.072 274.791 116.739 278.832C114.786 282.215 113.158 285.698 111.908 289.189C111.37 290.669 111.126 292.072 110.856 293.549C110.747 294.17 110.628 294.838 110.473 295.539C110.143 297.121 110.647 298.728 111.786 299.754C112.937 300.788 114.567 301.079 116.049 300.531C116.474 300.373 116.836 300.265 117.137 300.176C118.008 299.907 119.093 299.585 120.136 298.731C128.094 292.215 136.883 287.374 146.198 282.256C148.223 281.143 150.227 280.036 152.247 278.903C159.347 274.911 166.034 270.049 172.24 264.347C170.202 267.243 168.147 270.11 166.071 272.984C162.952 277.291 160.343 281.261 158.109 285.131C154.096 292.081 151.243 298.753 149.375 305.537C148.975 307.009 148.901 308.405 148.845 309.742C148.819 310.306 148.79 310.904 148.744 311.562C148.609 313.151 149.296 314.671 150.559 315.541C151.822 316.41 153.468 316.501 154.899 315.782C155.281 315.582 155.605 315.453 155.889 315.336C156.736 314.965 157.899 314.478 158.886 313.346C167.583 303.273 178.753 295.663 189.45 288.728C202.775 280.099 213.957 268.372 223.516 252.97C223.483 253.46 223.535 253.946 223.672 254.429C223.744 254.681 223.822 254.919 223.941 255.146C223.865 255.278 223.769 255.415 223.693 255.547C223.496 255.889 223.328 256.266 223.2 256.631C222.256 259.421 221.291 262.216 220.339 265.019C217.057 274.567 213.651 284.448 211.053 294.426C209.695 299.662 209.735 304.986 209.784 310.122C209.799 311.797 209.826 313.481 209.784 315.141C209.732 317.48 210.443 319.593 211.004 321.304L211.208 321.931C211.9 324.05 214.233 326.152 216.923 326.02C219.305 325.903 221.178 324.071 222.06 322.545C222.227 322.255 222.362 321.964 222.476 321.679C223.746 318.499 225.267 315.375 227.129 312.15C231.81 304.041 237.603 296.978 244.68 288.585C250.644 281.515 255.936 274.022 260.374 266.334C263.558 260.819 266.388 255.081 268.813 249.18C268.877 249.445 268.98 249.697 269.096 249.958C268.867 250.211 268.637 250.465 268.412 250.739C268.246 250.941 268.084 251.163 267.955 251.387C267.149 252.782 267.096 254.489 267.852 255.891C267.914 256.015 267.983 256.125 268.065 256.242C268.027 256.308 267.989 256.374 267.951 256.44C267.207 257.73 266.644 259.195 266.242 260.929C264.594 268.051 262.176 274.922 259.608 282.197C258.243 286.06 256.848 290.063 255.57 294.065C254.218 298.339 253.535 302.665 252.87 306.845C252.432 309.593 253.229 312.107 254.139 314.423C254.692 315.83 255.94 316.814 257.42 317.019C258.9 317.224 260.417 316.643 261.434 315.458C266.231 309.89 271.544 304.551 276.677 299.353C284.263 291.693 292.054 283.852 298.68 274.883C298.006 278.127 297.217 281.427 296.435 284.627C295.62 288 294.781 291.5 294.061 294.998C293.415 298.135 293.368 301.215 293.325 304.173L293.313 304.886C293.276 306.971 294.387 308.42 294.991 309.19C295.081 309.294 295.163 309.412 295.24 309.509C295.85 310.528 296.859 311.233 298.018 311.446C299.19 311.666 300.41 311.37 301.401 310.662C301.512 310.585 301.635 310.516 301.759 310.447C302.481 310.003 303.572 309.353 304.45 308.121C306.725 304.959 309.088 301.761 311.383 298.68C317.044 291.067 322.889 283.191 327.895 274.866C328.237 274.274 328.584 273.702 328.926 273.11C336.465 260.052 341.532 245.075 343.989 228.591C345.064 221.366 346.045 215.369 347.868 209.558C348.354 207.996 348.949 206.619 349.617 205.461C351.206 202.71 353.987 199.594 361.424 199.922C366.1 200.129 370.976 201.259 375.691 202.349L376.294 202.487C380.497 203.456 383.637 202.198 385.629 198.749L385.662 198.663ZM226.571 247.766C226.632 247.889 226.707 248.02 226.776 248.13C226.67 248.227 226.098 248.757 225.894 248.937C225.947 248.845 226.403 248.055 226.571 247.766ZM250.517 151.089C250.453 150.999 250.376 150.902 250.303 150.825C250.366 150.861 250.441 150.904 250.503 150.94C250.505 150.994 250.515 151.035 250.517 151.089ZM247.085 146.334C247.169 146.593 247.265 146.859 247.368 147.112C247.043 146.696 246.722 146.3 246.408 145.891C246.631 146.054 246.853 146.218 247.097 146.341L247.085 146.334ZM206.947 155.349C206.715 155.145 206.483 154.941 206.259 154.724C206.489 154.874 206.718 155.024 206.943 155.154C206.938 155.221 206.952 155.282 206.947 155.349Z" fill="#FFA41C"/>
<path d="M12.3354 240.339C14.2362 240.594 15.1913 240.987 16.0621 240.806C32.6685 237.335 48.4398 240.07 63.9871 245.009C76.0872 248.854 88.4169 251.637 101.401 251.499C116.681 251.334 130.492 246.39 143.225 237.314C149.932 232.533 156.479 227.45 163.525 223.322C167.99 220.722 173.171 219.132 178.175 218.02C182.793 217 185.837 220.179 185.563 223.566C183.288 222.604 180.867 220.855 178.262 220.667C175.506 220.48 172.591 221.781 169.626 222.965C175.269 223.082 181.181 222.475 181.61 230.586C179.305 226.676 175.762 225.805 171.553 226.202C167.548 226.592 163.696 227.352 160.383 230.494C161.508 230.248 162.615 229.887 163.746 229.803C166.575 229.576 169.44 229.141 172.218 229.376C176.457 229.735 178.734 234.068 177.433 238.6C177.245 238.579 176.929 238.607 176.909 238.526C174.787 232.281 173.855 231.444 167.393 232.312C163.309 232.868 159.288 234.179 155.229 235.153C155.289 235.626 155.369 236.094 155.429 236.567C156.961 236.364 158.506 236.168 160.042 235.931C161.71 235.665 163.374 235.292 165.06 235.054C170.065 234.346 171.739 235.628 172.434 240.769C172.633 242.27 172.533 243.827 171.839 245.462C171.663 244.816 171.421 244.168 171.317 243.511C170.435 238.175 169.82 237.452 164.648 238.134C160.802 238.651 157.001 239.756 153.222 240.822C152.265 241.094 151.489 242.208 150.632 242.942C150.794 243.211 150.955 243.479 151.116 243.748C153.419 243.076 155.699 242.357 158.016 241.747C159.251 241.424 160.511 241.204 161.77 241.07C165.703 240.603 167.503 242.099 167.506 246.103C167.509 248.175 167.04 250.256 166.09 252.305C165.817 250.182 165.773 247.98 165.164 245.978C164.901 245.107 163.478 244.11 162.561 244.142C158.392 244.298 154.213 244.728 150.045 245.2C149.438 245.271 148.769 245.938 148.3 246.492C141.693 254.156 135.075 261.813 128.541 269.555C125.518 273.145 122.756 276.921 120.43 280.949C118.675 283.99 117.169 287.175 115.963 290.533C115.371 292.192 115.2 293.988 114.707 296.284C116.141 295.761 116.939 295.677 117.478 295.234C127.577 286.971 139.066 281.23 150.254 274.947C164.049 267.204 175.38 256.546 184.818 243.689C189.732 236.995 194.418 230.118 199.412 223.488C204.559 216.649 210.714 211.006 218.99 208.641C220.943 208.083 223.184 208.096 225.162 208.448C227.205 208.803 228.64 210.21 228.061 213.088C223.124 208.921 218.396 211.457 213.587 213.875C218.076 214.291 223.668 212.535 224.461 218.978C221.852 218.191 219.101 216.725 216.261 216.683C213.337 216.644 210.333 217.982 207.379 218.716C207.45 218.967 207.533 219.226 207.605 219.478C210.536 219.591 213.627 219.199 216.369 219.957C219.457 220.81 220.941 223.632 221.522 227.759C218.603 224.74 216.029 222.218 212.07 222.846C208.608 223.392 205.067 223.7 201.293 226.488C206.367 226.381 210.945 224.074 214.479 227.413C216.153 229.012 216.975 231.54 217.736 234.086C215.42 230.888 213.066 228.072 208.7 228.395C205.032 228.664 201.501 229.328 198.023 232.094C202.112 231.962 205.879 231.119 209.185 231.939C213.062 232.896 213.715 237.1 214.426 240.915C212.373 236.079 208.595 234.547 203.785 235.034C200.351 235.386 196.959 235.955 193.339 239.025C198.911 238.486 204.162 235.708 207.858 240.352C209.412 242.303 210.09 244.993 210.713 247.635C208.548 245.068 207.901 241.114 203.727 240.845C199.157 240.541 194.842 241.613 190.329 243.834C194.6 243.878 198.598 243.325 202.238 244.145C205.549 244.899 207.605 250.509 206.565 254.559C205.514 247.757 201.612 245.258 195.318 246.556C192.261 247.178 188.959 247.361 186.291 250.77C191.365 250.259 196.216 246.443 200.052 250.325C201.967 252.256 202.261 255.901 203.284 258.773C202.904 258.94 202.545 259.101 202.165 259.268C201.987 258.884 201.736 258.511 201.626 258.096C199.942 251.841 199.836 251.622 193.506 252.145C190.796 252.37 188.104 253.168 185.43 253.906C184.755 254.095 184.16 254.98 183.687 255.655C178.962 262.282 174.317 268.972 169.542 275.57C166.776 279.379 164.181 283.269 161.855 287.297C158.36 293.352 155.486 299.714 153.596 306.591C153.204 308.05 153.292 309.628 153.111 311.787C154.434 311.111 155.237 310.961 155.656 310.466C164.705 299.982 175.901 292.3 187.232 284.959C202.447 275.104 213.506 261.831 222.314 246.575C224.351 243.047 226.266 239.414 228.076 235.702C230.126 231.516 232.18 227.296 234.513 223.254C236.991 218.963 239.793 214.859 243.252 211.205C248.547 205.609 254.812 202.083 262.586 202.692C265.995 202.958 268.207 204.867 269.379 209.615C263.831 202.727 257.778 205.568 251.812 207.424C251.775 207.719 251.746 208 251.709 208.295C254.505 208.47 257.388 208.292 260.069 208.927C263.025 209.633 264.8 211.922 265.107 215.398C262.835 211.489 259.273 210.363 255.161 210.937C251.592 211.439 247.753 211.311 243.929 215.281C252.95 213.873 261.261 212.687 263.12 223.974C260.696 220.328 258.096 217.072 253.048 217.598C248.922 218.024 244.756 218.058 241.113 221.08C247.481 221.211 254.695 218.321 258.813 225.665C259.865 227.536 260.584 229.636 261.089 231.788C254.693 222.707 245.726 220.935 237.034 227.886C238.658 227.841 239.721 227.876 240.769 227.761C242.457 227.578 244.116 227.184 245.799 227.067C252.348 226.654 256.413 230.457 256.976 237.961C254.239 234.222 252.737 229.528 247.295 229.985C243.117 230.328 239.001 230.795 235.367 233.225C235.395 233.522 235.431 233.806 235.459 234.103C238.17 233.878 240.894 233.573 243.612 233.422C249.94 233.074 254.628 238.308 254.145 245.576C252.054 241.929 251.046 237.503 246.536 236.865C241.793 236.198 237.148 237.149 231.874 239.967C233.375 240.078 234.003 240.23 234.623 240.167C236.825 239.929 239.035 239.59 241.242 239.372C244.834 239.006 247.754 240.236 249.171 243.635C250.481 246.76 251.327 250.11 251.835 253.614C249.516 249.643 249.23 243.879 244.319 242.465C239.86 241.19 235.168 242.886 230.471 245.598C231.147 246.128 231.561 246.595 232.098 246.818C232.421 246.951 232.928 246.735 233.33 246.616C243.414 243.312 245.943 246.948 247.853 257.599C248.073 258.832 248.04 260.129 247.631 261.56C246.818 259.16 246.081 256.716 245.181 254.354C243.017 248.699 241.608 247.938 235.618 249.113C234.158 249.393 232.665 249.672 231.295 250.286C230.305 250.732 229.507 251.71 227.902 253.048C233.281 253.45 238.074 249.531 242.237 253.655C237.941 254.491 233.997 255.18 230.106 256.093C229.18 256.313 227.865 256.976 227.432 257.726C227.394 257.792 227.348 257.871 227.343 257.938C223.154 270.385 218.579 282.75 215.281 295.413C213.643 301.681 214.308 308.489 214.163 315.057C214.117 316.838 214.815 318.628 215.376 320.339C215.566 320.904 216.381 321.568 216.913 321.542C217.372 321.526 218.007 320.945 218.318 320.405C218.364 320.326 218.41 320.247 218.435 320.174C219.845 316.635 221.53 313.256 223.392 310.031C228.439 301.29 234.898 293.506 241.432 285.765C247.186 278.942 252.255 271.777 256.625 264.208C261.687 255.441 265.804 246.147 268.912 236.235C271.55 227.859 275.254 219.712 279.175 211.796C279.363 211.413 279.556 211.051 279.769 210.682C282.611 205.759 287.308 202.556 292.92 201.198C297.78 200.02 301.78 202.522 302.927 206.449C300.351 205.804 297.31 204.294 294.314 204.495C291.297 204.701 288.318 206.632 285.392 208.47C290.84 207.685 296.426 205.451 300.068 211.486C301.555 213.958 303.445 216.278 303.167 219.558C300.598 215.529 298.844 210.463 292.926 210.995C288.692 211.376 284.524 212.568 281.35 216.106C286.741 215.708 292.489 211.953 296.885 217.633C298.944 220.297 300.372 223.332 300.473 226.936C297.634 223.402 296.835 217.605 290.974 217.749C286.763 217.862 282.575 218.972 279.018 221.587C279.086 221.959 279.149 222.312 279.217 222.684C280.268 222.537 281.4 222.594 282.373 222.207C292.611 218.115 297.087 225.157 299.022 235.102C295.694 228.723 292.592 222.157 283.434 224.926C279.28 226.179 277.851 226.635 276.643 228.728C276.59 228.82 276.537 228.912 276.476 229.018C281.919 228.79 287.937 224.683 292.173 230.814C294.786 234.622 297.085 238.6 297.029 243.657C295.895 241.353 294.837 239.004 293.6 236.763C290.291 230.728 288.459 229.863 281.582 231.421C279.451 231.911 277.405 232.889 275.33 233.656C275.407 234.07 275.472 234.476 275.55 234.889C277.12 234.708 278.705 234.587 280.273 234.352C287.099 233.343 288.379 233.924 291.362 240.034C292.696 242.77 293.791 245.632 294.874 248.486C295.212 249.4 295.17 250.482 294.702 251.668C293.427 248.686 292.195 245.657 290.859 242.693C288.05 236.455 279.212 235.266 274.34 240.474C274.325 240.501 274.318 240.514 274.302 240.54C274.181 240.751 274.216 241.122 274.128 241.563C278.899 241.807 284.24 237.748 288.828 243.24C282.615 242.321 277.306 242.923 273.065 247.846C275.926 247.129 278.761 246.256 281.652 245.749C287.102 244.788 288.777 245.808 290.683 251.015C291.267 252.599 291.608 254.287 292.016 255.945C292.166 256.523 292.162 257.135 292.017 257.876C289.799 253.7 289.084 247.758 282.633 248.491C278.662 248.937 274.643 250.074 271.744 253.595C276.554 252.617 281.785 248.546 285.77 253.497C287.987 256.233 288.459 260.491 289.713 264.058C289.377 264.179 289.04 264.301 288.704 264.423C287.867 262.325 287.181 260.138 286.185 258.142C284.346 254.465 282.539 253.527 278.63 254.587C275.791 255.353 273.321 255.91 271.74 258.648C271.261 259.477 270.864 260.512 270.555 261.825C267.924 273.189 263.333 284.14 259.788 295.327C258.544 299.242 257.897 303.362 257.255 307.414C257.002 309.006 257.518 310.708 258.274 312.601C272.632 295.95 290.261 282.346 301.395 263.062C302.709 260.785 303.924 258.45 305.037 256.003C305.405 256.145 305.792 256.281 306.16 256.423C305.195 262.536 304.435 268.696 303.213 274.765C301.801 281.796 299.854 288.745 298.41 295.774C297.805 298.725 297.806 301.779 297.765 304.792C297.756 305.559 298.598 306.291 299.048 307.042C299.707 306.562 300.551 306.225 301.001 305.59C308.838 294.669 317.329 284.144 324.245 272.656C324.571 272.09 324.903 271.545 325.23 270.979C332.853 257.776 337.443 243.278 339.706 228.14C340.694 221.497 341.74 214.782 343.755 208.38C344.353 206.479 345.077 204.791 345.921 203.33C349.212 197.63 354.421 195.126 361.858 195.454C367.127 195.67 372.358 196.935 377.496 198.129C379.651 198.636 380.926 198.389 381.945 196.626C382.059 196.428 382.188 196.204 382.28 195.959C386.027 187.767 385.867 187.236 377.393 185.503C370.559 184.102 363.668 183.002 356.801 181.688C348.898 180.178 343.373 175.357 339.663 168.371C336.613 162.608 333.92 156.63 331.084 150.728C324.417 136.839 314.241 126.173 302.483 116.804C292.451 108.801 282.364 100.748 274.671 90.1639C273.943 89.1467 273.359 87.9669 272.494 87.0993C271.829 86.4344 270.806 86.1595 269.946 85.7159C269.608 86.591 268.865 87.5312 268.986 88.3029C269.861 93.8807 270.005 99.861 272.122 104.875C276.112 114.374 281.258 123.313 285.934 132.489C286.318 133.237 286.846 133.91 287.121 134.701C287.816 136.699 289.101 136.897 290.83 136.035C292.947 134.993 295.076 133.958 297.203 132.957C298.229 132.478 299.276 132.048 300.312 131.61C300.51 131.988 300.708 132.365 300.906 132.743C297.548 135.069 294.196 137.416 290.505 139.972C290.657 142.218 292.066 142.979 294.437 141.785C298.238 139.873 301.968 137.797 305.733 135.775C305.924 135.991 306.124 136.194 306.315 136.41C304.115 138.404 301.962 140.461 299.68 142.337C298.511 143.295 297.049 143.837 295.84 144.719C295.181 145.198 294.754 146.023 294.229 146.702C295.187 147.062 296.354 147.982 297.098 147.674C300.244 146.349 303.275 144.676 306.347 143.133C307.26 142.677 308.185 142.228 309.613 142.351C309.143 142.904 308.773 143.603 308.199 143.992C305.616 145.783 302.937 147.395 300.414 149.256C299.51 149.927 298.934 151.069 298.212 152.003C299.425 152.037 300.813 152.487 301.843 152.029C305.742 150.295 309.534 148.255 314.009 146.012C313.941 146.131 313.88 146.236 313.811 146.354C310.946 151.317 306.429 153.114 302.249 155.335C303.68 157.442 304.612 157.471 308.695 155.563C310.949 154.513 313.199 153.443 315.449 152.372C315.625 152.702 315.808 153.018 315.984 153.348C312.769 155.774 309.566 158.207 305.912 160.96C311.066 164.146 314.795 158.436 319.475 159.155C316.235 161.566 313.002 163.965 309.379 166.664C315.805 170.357 319.652 163.521 325.193 163.21C321.71 165.956 318.214 168.694 314.061 171.965C319.243 174.641 322.849 170.212 327.352 170.056C325.008 172.038 322.678 174.027 319.45 176.762C323.085 177.158 325.857 177.46 328.623 177.775C325.157 179.74 321.818 179.41 318.596 177.953C310.587 174.347 304.043 168.638 298.355 162.108C290.772 153.412 283.571 144.34 276.627 135.083C271.222 127.891 264.595 122.239 257.607 116.836C246.381 108.161 234.926 99.7391 225.631 88.7566C224.982 87.978 223.818 87.6573 222.894 87.1237C222.511 88.3066 221.583 89.6837 221.845 90.6425C223.466 96.4577 224.508 102.728 227.377 107.825C233.357 118.491 240.349 128.53 246.913 138.849C247.36 139.546 247.811 140.263 248.148 141.036C248.931 142.822 250.132 143.165 251.976 142.509C255.739 141.154 259.569 139.942 263.536 139.214C260.261 143.098 255.888 144.154 251.247 144.896C251.98 147.232 253.591 148.075 255.788 147.5C258.66 146.737 261.454 145.647 264.319 144.809C265.617 144.435 266.983 144.346 268.308 144.128C268.373 144.534 268.451 144.948 268.516 145.354C263.997 147.01 259.458 148.671 254.85 150.364C255.601 152.553 257.069 152.347 258.86 151.696C262.417 150.38 266.024 149.18 269.608 147.933C269.754 148.315 269.899 148.697 270.045 149.08C267.267 150.46 264.432 151.736 261.72 153.26C260.687 153.839 259.092 155.13 258.735 155.749C258.667 155.867 258.646 155.961 258.668 156.008C259.64 158.535 261.437 156.606 262.831 156.095C265.343 155.176 267.732 153.922 270.226 152.976C271.299 152.56 272.51 152.539 273.644 152.334C273.76 152.682 273.868 153.042 273.996 153.397C269.974 155.691 265.952 157.985 261.923 160.292C261.831 160.625 261.746 160.945 261.654 161.278C262.605 161.476 263.666 162.089 264.48 161.804C268.889 160.224 273.231 158.414 277.585 156.698C277.771 157.068 277.944 157.432 278.122 157.815C273.841 160.328 269.572 162.848 265.291 165.361C265.281 165.724 265.279 166.073 265.277 166.423C266.218 166.581 267.277 167.139 268.086 166.834C271.684 165.506 275.205 163.906 278.773 162.456C280.105 161.909 281.486 161.477 282.971 161.299C279.669 165.922 274.076 166.958 269.297 170.851C273.221 172.677 276.124 170.966 278.999 169.765C282.042 168.503 285.031 167.104 288.2 166.056C285.035 170.845 279.469 172.037 275.256 175.239C275.241 175.581 275.227 175.924 275.212 176.266C276.846 176.35 278.595 176.868 280.109 176.408C283.86 175.274 287.484 173.699 291.172 172.3C291.356 172.617 291.532 172.946 291.715 173.263C288.371 175.422 285.007 177.586 281.325 179.954C286.713 180.888 291.303 178.044 296.424 177.105C292.021 181.53 284.624 183.21 278.49 181.318C270.417 178.833 263.931 173.772 258.386 167.658C252.322 160.944 246.731 153.785 241.125 146.652C233.497 136.965 224.053 129.617 213.297 123.934C206.704 120.443 199.693 117.677 193.442 113.681C186.673 109.37 180.585 103.994 174.141 99.1504C173.26 98.484 172.036 98.2686 170.965 97.8438C170.823 99.0426 170.311 100.362 170.598 101.422C172.666 109.058 176.578 115.722 181.513 121.537C188.501 129.766 195.998 137.517 203.288 145.482C203.977 146.249 204.687 147.01 205.377 147.776C208.243 150.964 211.78 151.672 215.988 149.901C218.031 149.045 220.035 148.113 222.236 147.559C219.638 151.482 215.553 152.704 211.338 154.957C212.454 155.215 213.708 155.956 214.667 155.65C217.877 154.59 220.994 153.142 224.132 151.83C225.452 151.276 226.749 150.673 228.256 150.543C224.716 155.116 219.705 156.874 214.468 159.484C215.454 159.738 216.538 160.398 217.427 160.157C220.282 159.365 223.063 158.268 225.854 157.212C227.668 156.522 229.452 155.709 231.252 154.958C231.435 155.362 231.605 155.758 231.788 156.163C227.58 158.577 223.36 160.985 218.384 163.834C219.728 164.188 220.809 164.883 221.578 164.589C224.97 163.301 228.248 161.718 231.58 160.272C232.759 159.759 233.987 159.363 235.2 158.905C235.366 159.281 235.544 159.665 235.71 160.041C231.49 162.677 227.271 165.314 222.983 167.981C223.424 170.534 225.222 169.554 226.567 168.926C230.533 167.074 234.436 165.045 238.836 162.846C238.696 163.608 238.469 164.232 238.172 164.745C237.002 166.772 234.786 167.265 233.133 168.312C230.976 169.682 228.676 170.811 226.254 172.151C227.609 174.302 229.181 173.367 230.652 172.637C234.765 170.588 238.844 168.485 242.934 166.389C243.118 166.705 243.302 167.022 243.485 167.339C239.367 170.174 235.249 173.009 231.119 175.837C231.07 176.124 231.028 176.399 230.978 176.686C231.963 176.798 233.08 177.285 233.917 176.961C237.502 175.538 241.023 173.938 244.518 172.27C245.475 171.822 246.248 170.917 247.094 170.23C247.326 170.925 247.549 171.633 247.781 172.328C243.91 174.85 240.04 177.372 236.094 179.938C237.388 181.966 238.819 181.88 240.564 180.992C244.544 178.972 248.574 177.069 252.581 175.117C252.774 175.475 252.975 175.819 253.169 176.176C249.71 178.62 246.258 181.05 242.8 183.494C242.843 183.852 242.893 184.197 242.936 184.555C246.942 184.077 250.927 183.605 254.933 183.127C254.997 183.305 255.049 183.475 255.113 183.652C253.206 184.359 251.325 185.309 249.37 185.725C241.909 187.315 235.351 185.09 229.115 181.385C220.509 176.276 214.036 168.712 206.972 161.826C196.206 151.345 183.833 143.446 170.076 137.452C160.607 133.319 151.588 128.147 142.437 123.32C140.638 122.369 139.217 120.706 137.446 119.649C136.505 119.088 135.201 119.125 134.062 118.906C134.058 120.009 133.722 121.255 134.089 122.204C136.914 129.627 141.185 136.129 146.6 141.66C152.817 148.023 159.547 153.874 166.049 159.945C167.295 161.103 168.343 162.603 169.777 163.378C170.729 163.893 172.299 163.711 173.464 163.366C178.004 162.02 182.488 160.484 187.104 159.324C183.211 163.183 178.417 164.997 173.325 166.146C174.771 168.631 175.065 168.871 177.617 168.027C181.464 166.756 185.285 165.329 189.089 163.874C190.282 163.423 191.372 162.63 192.502 162.001C192.77 162.718 193.039 163.435 193.296 164.144C188.343 166.638 183.39 169.131 178.449 171.632C185.207 173.972 190.538 167.537 197.07 168.307C193.243 171.994 188.219 173.254 183.736 175.597C183.689 175.939 183.642 176.28 183.594 176.621C184.764 176.787 186.049 177.389 187.076 177.051C190.828 175.83 194.504 174.337 198.18 172.844C199.336 172.371 200.381 171.57 201.473 170.919C201.667 171.505 201.862 172.091 202.044 172.67C199.475 174.206 196.919 175.749 194.341 177.244C193.133 177.951 191.817 178.472 190.669 179.249C190.095 179.637 189.774 180.452 189.352 181.069C190.05 181.331 190.878 182.002 191.431 181.795C195.123 180.417 198.772 178.855 202.423 177.347C203.371 176.947 204.291 176.478 205.229 176.036C205.4 176.345 205.566 176.634 205.737 176.944C202.014 179.498 198.312 182.047 194.589 184.601C196.201 186.251 197.137 186.072 202.351 183.414C204.901 182.112 207.482 180.9 210.054 179.647C210.258 179.957 210.474 180.275 210.677 180.586C207.481 183.093 204.293 185.588 200.727 188.39C206.76 190.312 211.221 185.902 217.143 183.951C213.732 187.176 211.077 189.785 208.293 192.215C207.786 192.659 206.702 192.49 205.895 192.445C198.036 191.927 191.485 188.074 184.645 184.81C176.86 181.105 170.445 175.488 163.583 170.473C153.352 162.987 142.008 157.719 129.486 155.21C119.69 153.258 109.82 151.579 99.955 149.92C98.2399 149.632 96.3804 149.997 94.5979 150.056C94.4807 150.375 94.3683 150.714 94.2511 151.032C94.8011 151.666 95.2627 152.423 95.9289 152.913C104.398 159.067 112.845 165.26 121.402 171.289C126.114 174.606 131.056 177.582 135.798 180.846C137.81 182.236 140.055 183.655 141.343 185.662C143.004 188.236 144.885 187.69 147.015 186.971C151.664 185.408 156.301 183.75 160.945 182.166C161.382 182.015 161.873 182.088 163.056 181.999C157.658 186.85 151.655 188.018 145.816 189.912C152.965 191.143 159.481 187.587 166.313 186.02C161.858 190.275 156.307 191.669 150.771 193.299C154.326 194.843 157.86 193.479 161.272 192.588C164.824 191.655 168.26 190.146 171.877 189.215C167.655 193.096 162.468 194.928 157.249 196.759C164.73 198.884 170.731 193.134 177.973 191.752C174.767 196.237 169.94 197.013 165.355 199.561C172.04 200.296 177.337 197.352 182.922 195.118C182.892 195.171 182.862 195.223 182.824 195.289C181.068 198.33 176.325 200.892 171.288 201.512C161.34 202.736 152.114 200.692 143.401 196.258C129.804 189.355 115.658 184.699 99.7878 187.067C90.2948 188.484 81.271 191.453 72.4112 195.464C52.412 204.523 34.6451 217.011 18.8591 232.644C16.6702 234.821 14.9097 237.437 12.3463 240.608M119.322 219.248C110.923 229.757 99.4244 233.754 89.5094 240.228C91.8031 237.726 94.2955 235.514 96.9595 233.524C101.112 230.428 105.415 227.559 109.555 224.456C110.474 223.758 110.988 222.493 111.703 221.484C111.476 221.301 111.242 221.13 111.027 220.954C100.069 227.071 89.1065 233.168 77.3059 239.764C84.3844 231.108 94.006 227.94 101.748 221.827C89.9195 224.405 79.2351 230.048 68.6392 235.971C73.5626 230.126 80.1361 226.988 86.6288 223.558C76.1778 223 67.3144 228.431 58.2082 232.985C58.01 232.607 57.8118 232.229 57.6136 231.852L67.3249 225.068L67.3081 224.549C62.7154 225.092 58.1228 225.634 53.5226 226.19C53.5144 225.887 53.5063 225.584 53.5057 225.268C74.9857 219.153 96.6436 217.142 119.334 219.255M61.8602 218.209C63.9573 215.067 64.9324 215.051 66.6858 217.696C64.8925 217.889 63.3701 218.045 61.8602 218.209ZM72.4527 216.532C70.6766 214.734 68.9977 213.028 66.7883 210.769C72.0755 211.417 74.0302 213.511 72.4527 216.532ZM78.8163 214.941C77.8688 214.534 76.6315 214.399 76.0418 213.69C74.5388 211.909 73.3382 209.865 72.0116 207.923C72.0806 207.717 72.162 207.518 72.2309 207.312C74.3724 208.795 76.6376 210.12 78.5847 211.823C79.1282 212.295 78.7603 213.855 78.8114 214.92M86.187 213.018C85.9134 213.492 85.6349 213.945 85.3488 214.412C84.4948 214.305 83.195 214.538 82.842 214.053C80.752 211.126 78.8711 208.04 76.9146 204.997C77.1491 204.764 77.376 204.544 77.6106 204.311C80.4601 207.219 83.3173 210.115 86.1669 213.024M91.9491 212.642C91.7059 213.063 91.4453 213.456 91.1896 213.87C90.2254 213.752 88.6948 214.01 88.3924 213.466C86.3566 209.869 84.5624 206.113 82.6928 202.401C82.9621 202.223 83.2362 202.065 83.5055 201.887C86.3133 205.474 89.1212 209.061 91.9366 212.634M97.0651 212.98C93.3146 212.728 93.5309 209.325 92.2136 207.511C90.742 205.503 89.7238 203.143 88.5167 200.937C88.8061 200.753 89.0954 200.569 89.3772 200.398C92.2491 204.162 96.07 207.263 97.0776 212.987M102.726 212.317C101.74 212.468 100.932 212.598 100.488 212.675C99.1014 209.944 97.9393 207.746 96.8679 205.477C95.8313 203.264 94.9103 200.995 93.9339 198.764C94.2178 198.647 94.4893 198.523 94.7808 198.393C97.5431 202.866 102.102 206.217 102.714 212.31M108.644 211.873C106.699 212.733 105.718 212.412 105.2 210.253C104.648 207.951 103.548 205.789 102.607 203.613C101.769 201.69 100.835 199.817 99.9419 197.932C100.344 197.726 100.767 197.513 101.169 197.307C103.384 202.324 108.188 205.8 108.657 211.88M113.775 212.589C113.007 212.075 111.908 211.756 111.549 211.023C110.631 209.211 110.149 207.16 109.314 205.291C108.087 202.512 106.713 199.788 105.399 197.046C105.786 196.866 106.153 196.692 106.54 196.512C107.636 198.391 108.725 200.283 109.834 202.169C111.387 204.786 113.043 207.339 114.433 210.037C114.72 210.607 114.021 211.73 113.788 212.596M120.964 212.597C119.884 212.131 118.248 211.994 117.812 211.163C116.075 207.826 114.641 204.313 113.259 200.794C112.819 199.681 112.883 198.331 112.715 197.093C112.858 197.105 113 197.117 113.143 197.13C115.928 201.967 118.721 206.791 121.519 211.636C121.336 211.952 121.146 212.281 120.964 212.597ZM128.931 169.265C132.327 168.487 135.51 167.762 138.693 167.037C135.421 169.993 131.527 170.623 128.931 169.265ZM128.081 212.757C125.811 213.43 124.6 212.643 123.816 210.628C122.705 207.793 121.243 205.106 120.18 202.245C119.519 200.477 119.306 198.511 118.896 196.625C119.145 196.54 119.381 196.448 119.63 196.364C122.421 201.767 125.218 207.19 128.089 212.744M136.15 173.836C138.444 172.774 140.739 171.712 143.027 170.663C141.89 172.429 138.863 173.664 136.15 173.836C135.199 174.27 134.242 174.717 133.292 175.152C133.087 174.525 132.871 173.891 132.667 173.264C133.589 173.744 134.823 173.912 136.15 173.836ZM124.921 222.182C124.921 222.182 124.852 222.301 124.822 222.354C123.278 224.306 121.612 226.24 119.673 227.753C112.695 233.149 105.587 238.365 98.5392 243.651C98.2976 243.406 98.0635 243.148 97.8219 242.903C100.3 240.543 102.699 238.119 105.254 235.856C109.944 231.684 114.758 227.671 119.431 223.471C120.53 222.491 121.039 220.801 122.152 219.882C122.901 219.279 124.253 219.445 125.332 219.278C125.188 220.248 125.351 221.466 124.918 222.216M147.837 173.492C145.849 176.82 138.185 178.732 136.915 177.297C140.211 176.145 144.104 174.795 147.837 173.492ZM134.229 213.182C130.041 212.765 126.317 204.104 127.866 199.171C129.968 203.807 132.021 208.327 134.229 213.182ZM139.358 180.304C143.786 178.894 148.286 177.473 152.774 176.045C152.815 176.349 152.868 176.66 152.909 176.965C148.994 180.514 142.995 181.965 139.358 180.304ZM158.958 147.654C161.895 146.98 164.565 146.363 167.115 145.782C167.039 145.914 166.983 146.04 166.907 146.171C165.517 148.58 162.083 149.423 158.946 147.647M142.347 184.154C147.452 182.292 152.556 180.43 157.673 178.575C157.791 178.977 157.897 179.371 158.014 179.772C153.323 182.996 148.142 184.586 142.347 184.154ZM109.441 241.467C110.349 240.5 110.909 239.876 111.499 239.286C117.695 233.227 123.852 227.147 130.125 221.186C130.967 220.39 132.447 220.279 134.358 219.593C134.246 219.844 134.119 220.122 133.952 220.411C130.585 226.243 115.375 239.207 109.441 241.467ZM172.219 149.834C169.075 152.425 165.364 153.055 162.623 151.227C165.957 150.414 169.017 149.671 172.076 148.927C172.117 149.232 172.178 149.53 172.219 149.834ZM140.073 213.818C136.876 212.78 135.141 208.461 135.92 203.593C137.246 206.833 138.552 210.079 140.073 213.818ZM177.617 152.337C173.215 156.588 169.145 157.379 166.436 155.236C170.315 154.229 173.96 153.279 177.617 152.337ZM122.233 237.883C128.445 232.027 134.669 226.178 140.873 220.335C141.171 220.683 141.47 221.031 141.769 221.379C137.063 228.982 129.477 233.238 122.225 237.897M171.824 160.295C175.419 158.913 178.994 157.537 182.346 156.26C179.935 159.081 174.973 160.867 171.824 160.295C171.264 160.516 170.711 160.723 170.151 160.944L169.742 159.286C170.235 159.817 170.96 160.147 171.824 160.295ZM355.367 188.67C353.989 188.98 352.62 189.506 351.241 189.588C328.523 190.81 305.789 191.656 283.081 193.236C252.808 195.345 222.946 201.587 193.106 207.878C177.807 211.102 162.497 214.058 146.943 214.204C145.74 214.212 144.547 213.856 143.352 213.676C143.385 213.186 143.419 212.696 143.452 212.206C144.845 211.87 146.226 211.438 147.631 211.197C158.91 209.196 170.207 207.364 181.459 205.208C201.999 201.27 222.452 196.704 243.036 193.265C258.26 190.717 273.627 189.568 288.932 187.716C307.01 185.533 325.064 185.093 343.098 185.869C347.187 186.054 351.238 186.795 355.311 187.269C355.325 187.733 355.34 188.198 355.367 188.67ZM205.117 130.374C202.812 134.308 199.762 135.092 197.474 132.999C199.807 132.187 202.085 131.414 205.117 130.374ZM202.062 138.175C204.624 137.197 207.8 135.994 211.355 134.624C208.79 138.374 205.95 139.227 202.062 138.175ZM216.253 138.944C212.014 143.605 208.173 144.547 205.054 142.307C208.798 141.187 212.53 140.059 216.253 138.944ZM220.401 141.971C216.666 147.256 211.026 149.441 208.571 147.146C212.25 145.532 216.01 143.894 220.401 141.971ZM149.398 265.643C149.173 265.6 148.94 265.571 148.707 265.542C148.5 264.141 148.301 262.727 148.055 261.076C147.008 261.332 146.2 261.462 145.427 261.735C144.706 262.003 144.044 262.429 143.343 262.778C143.192 262.376 143.042 261.973 142.891 261.57C145.355 260.763 147.826 259.944 151.064 258.864C150.385 261.597 149.889 263.609 149.373 265.628M149.141 251.524C152.168 247.637 158.846 245.789 161.343 247.809C162.809 248.989 162.714 253.568 161.102 256.358C160.928 256.661 160.728 256.949 160.511 257.21C160.486 255.581 160.338 254.337 160.476 253.118C160.773 250.324 159.641 249.372 156.998 249.97C154.529 250.527 152.042 250.969 149.134 251.537M146.813 257.287C148.722 255.739 150.663 254.368 152.767 253.406C154.156 252.787 156.3 252.304 156.297 254.76C156.297 256.866 155.392 259.011 154.892 261.145L154.218 261.072C154.066 259.316 153.902 257.554 153.742 255.725C151.18 256.299 148.996 256.793 146.813 257.287ZM243.462 127.695C245.497 126.851 248.101 125.774 250.704 124.697C250.674 124.75 250.651 124.79 250.62 124.842C248.652 128.251 246.288 128.799 243.454 127.708M255.854 129.707C252.298 133.358 248.275 134.124 245.546 131.987C248.847 131.26 252.147 130.533 255.854 129.707ZM260.51 133.553C256.557 137.747 250.756 139.172 249.253 137.708C252.454 136.519 256.28 135.113 260.51 133.553ZM197.059 265.113C196.611 263.783 196.499 262.42 196.359 261.076C196.102 258.435 195.207 256.9 192.108 257.884C189.84 258.611 187.455 258.848 185.119 259.29C185.063 258.924 184.988 258.565 184.932 258.199C188.201 256.085 191.683 254.726 195.586 255.118C196.182 255.182 196.994 255.65 197.214 256.163C198.442 259.084 198.336 262.094 197.046 265.106M183.097 266.021C184.85 263.417 190.722 260.717 191.982 262.024C193.965 264.099 193.697 266.928 192.264 269.698C191.966 267.964 191.656 266.223 191.324 264.259C188.584 264.853 185.984 265.405 183.11 266.028M187.41 273.952C187.083 274.518 186.524 274.967 185.635 275.7C185.575 274.015 185.524 272.459 185.457 270.384C183.52 271.144 182.027 271.739 179.846 272.603C179.951 272.365 180.08 272.142 180.194 271.944C182.155 268.548 185.189 269.493 187.437 268.281C187.825 271.734 187.97 273.011 187.415 273.972M296.681 126.074C293.929 130.61 289.202 132.655 286.511 130.048C290.073 128.665 293.219 127.427 296.681 126.074ZM244.23 268.372C243.535 266.953 243.14 265.444 242.658 263.972C241.282 259.895 240.498 259.407 236.259 259.944C234.172 260.213 232.094 260.523 230.025 260.82C229.956 260.535 229.896 260.236 229.827 259.951C231.619 259.126 233.385 257.74 235.193 257.608C237.645 257.427 241.145 257.306 242.346 258.772C244.277 261.168 245.521 264.695 244.25 268.366M229.592 266.906C232.699 263.715 236.824 262.166 238.42 263.526C240.272 265.104 241.199 270.536 240.158 272.34C240.15 272.353 240.135 272.379 240.128 272.392C239.208 270.352 238.762 267.058 237.09 266.233C235.198 265.299 232.193 266.582 229.604 266.913M236.32 279.794L235.252 279.915C234.881 277.384 234.518 274.84 234.003 271.349C232.256 272.183 231.012 272.781 229.76 273.392C229.634 273.091 229.5 272.803 229.362 272.495C231.184 271.3 233.018 270.113 234.84 268.918C235.24 269.149 235.624 269.406 236.004 269.643C236.108 273.038 236.208 276.413 236.313 279.808M231.315 285.522C231.022 285.511 230.741 285.507 230.448 285.496C230.052 281.019 229.897 279.298 230.307 278.587C230.565 278.139 231.039 278.097 231.817 278.019C231.651 280.556 231.483 283.039 231.307 285.535M273.362 261.462C278.608 256.154 282.336 256.762 284.405 262.871C284.973 264.568 285.459 266.323 285.779 268.104C285.924 268.891 285.57 269.792 285.304 271.551C284.241 268.779 283.535 266.914 282.844 265.112C279.945 266.211 277.579 267.109 275.124 268.043C275.204 267.3 275.421 266.635 275.755 266.056C277.04 263.831 280.032 263.032 283.341 264.31C281.936 257.11 276.815 262.403 273.355 261.476M281.024 276.224C279.798 272.725 281 271.594 274.596 273.284C274.697 273.08 274.799 272.875 274.913 272.678C276.19 270.466 278.284 269.376 280.18 270.015C282.451 270.782 281.723 273.398 281.024 276.224ZM320.517 201.159C324.149 197.78 330.068 197.968 331.242 201.068C327.808 201.104 324.199 201.126 320.517 201.159ZM331.306 208.196C326.786 205.095 322.061 207.281 317.093 208.415C317.249 207.943 317.44 207.527 317.653 207.158C319.089 204.67 321.514 204.508 323.639 204.173C326.996 203.636 329.396 205.478 331.294 208.189M329.836 215.069C324.859 211.547 320.108 212.279 314.65 215.358C314.902 214.662 315.174 214.046 315.478 213.52C317.112 210.69 319.55 209.956 322.139 209.713C325.853 209.365 328.279 211.046 329.836 215.069ZM329.524 222.647C325.055 215.995 319.486 218.431 313.347 221.451C313.474 221.173 313.618 220.923 313.77 220.66C316.035 216.737 320.248 214.747 323.573 215.736C326.968 216.749 329.989 219.967 329.544 222.641M328.437 229.461C326.516 227.913 324.481 225.036 321.9 224.546C319.171 224.024 315.92 225.762 312.917 226.521C312.98 226.153 313.135 225.769 313.355 225.387C314.693 223.071 318.667 220.714 321.812 220.95C325.392 221.209 328.617 225.774 328.437 229.461ZM326.612 238.043C322.86 229.892 319.548 228.735 311.658 233.201C311.89 232.597 312.152 232.029 312.463 231.489C314.287 228.33 317.432 226.46 319.987 227.022C323.647 227.836 327.272 233.843 326.62 238.03M323.892 240.246C322.107 238.953 320.252 236.688 317.991 236.278C315.808 235.877 313.209 237.378 310.957 237.991C311.056 237.329 311.283 236.705 311.618 236.126C312.72 234.217 314.989 232.825 317.719 232.768C320.717 232.709 323.52 236.276 323.892 240.246ZM323.398 248.859C323.106 249.077 322.826 249.302 322.534 249.519C319.95 245.43 318.353 239.804 311.569 242.469C311.663 242.19 311.79 241.912 311.935 241.662C313.523 238.911 317.77 237.87 319.241 240.053C321.027 242.699 322.05 245.887 323.393 248.839M318.526 247.925C315.517 247.714 312.631 247.522 309.504 247.314C309.606 247.022 309.718 246.771 309.855 246.534C310.736 245.007 312.293 244.502 314.004 244.278C316.831 243.91 317.572 246.058 318.513 247.917M320.602 256.442C318.155 251.624 314.306 251.052 309.498 253.208C309.501 252.28 309.686 251.614 309.975 251.114C310.856 249.587 312.798 249.742 314.205 249.467C317.651 248.806 319.575 250.952 320.602 256.442ZM317.884 263.543C315.37 257.371 315.248 257.265 309.64 257.836C309.77 257.437 309.935 257.094 310.103 256.804C311.144 255.001 312.763 255.023 314.241 255.174C317.344 255.509 318.848 259.133 317.884 263.543ZM315.956 268.959C313.951 268.047 312.034 267.186 309.247 265.928C310.823 265.276 312.343 264.662 314.818 263.633C312.638 262.796 311.142 262.213 308.982 261.37C310.109 260.686 310.889 259.855 311.625 259.877C312.532 259.892 313.976 260.392 314.177 261.052C315.023 263.769 315.479 266.613 315.976 268.953M312.069 276.701C312.069 276.701 312.015 276.793 311.993 276.833C311.203 275.289 310.351 273.621 309.511 271.96C309.292 271.676 309.066 271.405 308.859 271.128C309.928 270.92 311.231 270.25 312.023 270.637C313.333 271.253 313.13 274.892 312.089 276.695M4.84254 236.013C5.09333 235.579 5.38161 235.166 5.69484 234.767C6.48526 233.802 7.19533 232.861 7.89509 231.966C9.48678 229.901 10.9976 227.948 12.9091 226.05C29.6533 209.478 48.5847 196.328 69.1746 186.996C79.4997 182.321 89.2304 179.339 98.9091 177.889C104.393 177.071 109.635 176.991 114.597 177.452C107.817 172.642 101.027 167.704 94.434 162.915L90.5887 160.115C89.1939 159.099 88.2811 157.94 87.7489 157.247C87.6843 157.157 87.6197 157.067 87.535 156.983C85.4716 154.616 84.8557 151.242 85.9499 148.135L86.2843 147.152C86.4808 146.581 86.7348 146.026 87.0312 145.512C88.6196 142.761 91.4856 140.941 94.6243 140.84C95.0505 140.822 95.4718 140.785 95.8931 140.747C97.4003 140.617 99.4542 140.434 101.698 140.816C110.904 142.376 121.363 144.132 131.466 146.156C134.606 146.775 137.704 147.581 140.763 148.54C140.581 148.365 140.407 148.177 140.233 147.988C133.876 141.493 129.047 133.966 125.86 125.614C124.881 123.013 125.101 120.613 125.232 119.319C125.248 119.205 125.251 119.084 125.267 118.971C125.286 117.35 125.747 115.773 126.545 114.391C127.092 113.443 127.802 112.589 128.643 111.881C130.755 110.099 133.494 109.364 136.105 109.888C136.24 109.914 136.395 109.933 136.558 109.939C137.821 110.089 139.937 110.346 142.075 111.632C143.453 112.446 144.548 113.376 145.443 114.104C145.872 114.457 146.465 114.957 146.69 115.087C148.934 116.277 151.182 117.488 153.431 118.698C160.376 122.444 166.933 125.967 173.783 128.956C175.008 129.488 176.217 130.046 177.415 130.597C176.524 129.573 175.632 128.55 174.762 127.521C168.615 120.286 164.37 112.412 162.107 104.103C161.342 101.274 161.859 98.7642 162.145 97.4026C162.176 97.2625 162.2 97.1356 162.231 96.9955C162.386 95.7164 162.805 94.5013 163.436 93.4087C164.196 92.0924 165.268 90.9563 166.564 90.1249C168.962 88.5959 171.881 88.298 174.414 89.3041C174.579 89.3643 174.764 89.4185 174.929 89.4787C176.05 89.8449 177.763 90.3954 179.47 91.6791C181.75 93.3818 183.973 95.1563 186.115 96.8672C190.236 100.141 194.13 103.232 198.244 105.853C201.787 108.109 205.726 109.997 209.892 111.981C212.396 113.181 214.982 114.411 217.533 115.761C219.639 116.872 221.683 118.034 223.65 119.24C222.295 117.001 220.968 114.743 219.676 112.453C216.956 107.618 215.626 102.251 214.452 97.5364C214.08 96.0755 213.747 94.6901 213.364 93.3633C212.29 89.5136 213.741 86.2795 214.43 84.7115C214.491 84.6062 214.519 84.4996 214.567 84.3871C214.766 83.7825 215.036 83.2008 215.347 82.6611C216.366 80.8972 217.931 79.4841 219.813 78.6753C222.323 77.6149 225.102 77.7624 227.375 79.0746C227.437 79.1107 227.557 79.1624 227.677 79.2141C228.805 79.742 230.682 80.6151 232.317 82.5419C240.13 91.7919 249.655 99.1164 259.738 106.886C260.834 107.729 261.929 108.572 263.024 109.415C263.658 109.904 264.304 110.4 264.942 110.909C264.611 110.156 264.28 109.403 263.968 108.644C261.962 103.87 261.359 98.8008 260.825 94.3329C260.642 92.8052 260.47 91.3722 260.253 90.0181C259.69 86.4641 261.151 83.6744 261.778 82.474L261.861 82.3292C262.009 81.9581 262.181 81.6014 262.379 81.2592C263.42 79.4558 265.026 78.0308 266.945 77.2436C269.297 76.2847 271.898 76.3649 274.087 77.5056C274.175 77.5561 274.29 77.5875 274.41 77.6392C275.407 78.0746 277.087 78.7988 278.662 80.3398C279.915 81.5723 280.714 82.8411 281.305 83.779C281.444 83.9996 281.583 84.2203 281.729 84.4278C288.786 94.1532 298.548 101.931 307.992 109.454C322.623 121.113 332.447 132.823 338.924 146.321C339.706 147.966 340.488 149.61 341.262 151.269C343.298 155.586 345.223 159.664 347.344 163.661C350.112 168.875 353.729 171.753 358.711 172.698C361.46 173.215 364.294 173.728 367.026 174.217C371.072 174.938 375.253 175.685 379.406 176.538C384.497 177.582 389.769 178.66 392.256 183.957C394.733 189.213 392.388 194.371 390.109 199.356C389.878 199.872 389.621 200.373 389.355 200.834C387.934 203.296 383.705 208.804 375.122 206.798L374.519 206.66C369.779 205.556 365.314 204.522 361.029 204.33C355.343 204.084 354.142 206.164 353.352 207.533C352.858 208.388 352.413 209.448 352.019 210.677C350.281 216.168 349.349 221.965 348.303 228.996C345.752 246.075 340.489 261.623 332.653 275.194C332.304 275.8 331.947 276.419 331.577 277.03C326.444 285.545 320.525 293.519 314.811 301.224C312.524 304.291 310.168 307.477 307.916 310.6C306.473 312.61 304.699 313.692 303.834 314.21L303.683 314.298C301.702 315.682 299.312 316.216 297.026 315.791C294.773 315.368 292.821 314.048 291.592 312.11L291.51 311.992C290.717 310.972 288.885 308.58 288.944 304.929L288.949 304.23C288.997 301.204 289.041 297.754 289.775 294.176C289.961 293.248 290.167 292.314 290.373 291.38C286.859 295.16 283.245 298.795 279.679 302.405C274.37 307.765 269.353 312.819 264.666 318.257C262.618 320.62 259.589 321.802 256.636 321.378C253.683 320.955 251.202 318.996 250.083 316.174C248.98 313.413 247.943 310.076 248.555 306.217C249.217 302.071 249.95 297.37 251.415 292.757C252.504 289.314 253.683 285.887 254.861 282.548C252.665 285.545 250.356 288.477 247.934 291.344C241.009 299.561 235.347 306.455 230.871 314.208C229.123 317.236 227.704 320.155 226.518 323.103C226.315 323.6 226.071 324.109 225.797 324.582C224.254 327.255 221.116 330.181 216.929 330.397C212.591 330.613 208.436 327.687 207.036 323.421L206.842 322.835C206.199 320.92 205.308 318.282 205.38 315.129C205.415 313.569 205.394 311.96 205.382 310.251C205.331 305.061 205.272 299.165 206.797 293.323C208.419 287.081 210.349 280.912 212.356 274.84C206.058 281.682 199.19 287.493 191.659 292.376C180.81 299.399 170.4 306.499 162.1 316.117C160.399 318.083 158.456 318.91 157.413 319.361C157.21 319.454 156.974 319.546 156.694 319.683C153.853 321.114 150.561 320.933 148.015 319.2C145.489 317.461 144.099 314.447 144.377 311.255C144.43 310.672 144.449 310.121 144.469 309.624C144.534 308.099 144.622 306.36 145.168 304.376C147.135 297.192 150.156 290.143 154.373 282.837C154.434 282.732 154.503 282.613 154.563 282.508C154.448 282.564 154.337 282.64 154.221 282.696C152.202 283.83 150.177 284.942 148.145 286.068C139.021 291.086 130.423 295.827 122.787 302.072C121.024 303.512 119.249 304.049 118.197 304.371C117.955 304.443 117.674 304.526 117.338 304.648C114.361 305.737 111.101 305.154 108.798 303.087C106.494 301.02 105.499 297.813 106.16 294.649C106.292 293.988 106.413 293.374 106.512 292.799C106.787 291.255 107.104 289.525 107.764 287.66C109.113 283.91 110.86 280.163 112.958 276.53C115.436 272.238 118.401 268.053 122.037 263.746C124.582 260.722 127.159 257.7 129.729 254.691C120.541 258.407 110.967 260.339 101.096 260.449C88.8233 260.595 76.4795 258.47 61.0522 253.582C43.8289 248.114 30.3667 246.888 17.417 249.591C15.1432 250.069 13.3482 249.717 12.0365 249.451C11.6184 249.368 11.2329 249.285 10.7796 249.234C7.67669 248.812 5.103 246.694 4.05108 243.7C3.16425 241.169 3.46478 238.342 4.82516 235.985L4.84254 236.013Z" fill="#FF9900"/>
<path d="M420.978 462.71C421.182 462.495 421.385 462.263 421.589 461.997C423.994 458.907 425.902 456.459 425.343 453.555C424.785 450.633 422.034 449.257 418.85 447.664C415.938 446.21 412.97 444.817 410.09 443.478C408.087 442.548 406.092 441.608 404.098 440.652C399.65 438.5 396.837 434.765 395.499 429.239C394.63 425.673 393.916 421.959 393.217 418.362C392.945 416.951 392.666 415.532 392.386 414.113C390.154 402.985 385.165 392.467 376.68 381.016C370.879 373.188 364.878 365.093 361.236 355.805C361.133 355.551 361.046 355.28 360.968 355.017C360.739 354.302 360.447 353.407 359.937 352.545C359.363 351.57 358.601 350.975 358.039 350.53C357.903 350.427 357.783 350.324 357.662 350.22C356.949 349.574 355.982 349.278 355.012 349.414C354.22 349.526 353.483 349.911 352.921 350.506C352.791 350.643 352.677 350.781 352.571 350.943C352.514 351.02 352.432 351.106 352.359 351.2C351.797 351.844 350.852 352.943 350.718 354.569C350.621 355.744 350.474 356.938 350.328 358.132C349.906 361.597 349.474 365.187 350.012 368.774C350.903 374.658 352.296 380.457 353.641 386.074C354.189 388.348 354.728 390.613 355.244 392.888C354.935 392.159 354.633 391.423 354.332 390.686C351.384 383.516 347.168 377.523 343.044 372.126L341.053 369.533C335.115 361.784 328.96 353.77 324.677 344.813C324.129 343.662 323.295 342.962 322.677 342.444C322.541 342.325 322.397 342.214 322.276 342.094C321.547 341.365 320.517 341.038 319.482 341.193C318.698 341.313 317.985 341.706 317.439 342.283C317.26 342.472 317.089 342.687 316.958 342.924C316.86 343.077 316.738 343.223 316.624 343.377C315.996 344.207 314.928 345.585 314.986 347.453C315.025 348.615 315.016 349.795 315.023 350.975C315.026 354.798 315.028 358.754 316.04 362.564C317.829 369.295 320.079 375.935 322.25 382.344C323.166 385.036 324.081 387.745 324.965 390.454C325.146 391.021 325.296 391.472 325.358 391.869C325.373 391.968 325.388 392.067 325.412 392.158C321.508 383.345 315.868 375.577 308.157 368.419C306.537 366.917 304.861 365.475 303.233 364.082C300.41 361.661 297.739 359.375 295.378 356.796C292.68 353.846 290.283 350.628 287.758 347.232C286.471 345.51 285.153 343.723 283.802 342.003C283.09 341.107 282.263 340.564 281.596 340.132C281.411 340.015 281.234 339.905 281.066 339.77C280.207 339.129 279.094 338.954 278.05 339.301C277.484 339.488 276.981 339.823 276.574 340.254C276.232 340.615 275.954 341.058 275.781 341.538C275.715 341.723 275.625 341.901 275.534 342.096C275.132 342.95 274.59 344.117 274.611 345.579C274.749 351.899 276.354 358.313 279.39 364.649C282.012 370.119 284.901 375.505 287.702 380.719C288.904 382.959 290.114 385.208 291.3 387.466C291.682 388.183 292.047 388.901 292.421 389.626C292.763 390.287 293.082 390.873 293.384 391.41C287.907 383.57 281.228 376.54 273.132 370.069C268.454 366.329 263.958 362.084 259.598 357.975C258.147 356.608 256.696 355.242 255.237 353.883C254.852 353.532 254.461 352.973 254.038 352.382C253.551 351.694 253 350.925 252.303 350.195C251.414 349.272 250.359 348.855 249.587 348.551C249.394 348.475 249.208 348.407 249.032 348.314C248.107 347.858 247.009 347.866 246.061 348.342C245.68 348.531 245.339 348.793 245.046 349.103C244.614 349.56 244.287 350.137 244.129 350.766C244.087 350.942 244.021 351.111 243.963 351.271C243.691 352.054 243.278 353.25 243.445 354.623C244.218 361.21 246.293 367.507 249.614 373.358C252.06 377.663 254.756 381.851 257.357 385.909C258.529 387.735 259.694 389.553 260.851 391.397C261.042 391.705 261.209 392.023 261.384 392.349C261.886 393.286 262.506 394.443 263.524 395.411C263.869 395.755 264.262 396.015 264.656 396.224C264.679 396.398 264.71 396.563 264.757 396.727C264.867 397.122 264.986 397.475 265.104 397.828C264.281 396.77 263.449 395.704 262.61 394.664C255.852 386.281 247.846 379.766 238.822 375.316C231.656 371.786 224.191 368.375 217.602 365.371C216.371 364.811 215.146 364.607 214.065 364.415C213.686 364.354 213.299 364.286 212.937 364.208C211.752 363.945 210.506 364.357 209.659 365.253C209.496 365.425 209.35 365.613 209.227 365.809L208.794 366.482C208.091 367.572 208.008 368.93 208.565 370.056C208.628 370.186 208.684 370.326 208.747 370.473C208.985 371.012 209.294 371.757 209.862 372.459L212.269 375.436C216.596 380.768 221.066 386.293 225.546 391.661C227.154 393.587 228.835 395.452 230.468 397.253C231.828 398.765 233.237 400.324 234.574 401.878L234.934 402.305C235.886 403.408 236.87 404.56 237.201 405.545C237.225 405.635 237.265 405.725 237.296 405.807C230.219 400.204 221.138 394.843 209.603 393.612C202.4 392.842 194.873 393.19 186.595 394.696C169.853 397.724 153.627 403.932 138.387 413.137C136.822 414.085 135.416 415.209 133.938 416.412C133.239 416.97 132.5 417.571 131.696 418.191C131.534 418.313 131.396 418.443 131.257 418.589C130.533 419.356 130.153 420.418 130.25 421.486C130.37 422.745 131.128 423.805 132.255 424.278C132.689 424.462 133.027 424.632 133.325 424.779C134.081 425.149 134.941 425.574 136.047 425.624C146.845 426.135 157.181 429.904 169.577 437.826C179.908 444.438 188.475 448.381 197.33 450.618C209.126 453.584 221.235 452.658 233.349 447.85C234.223 447.502 235.106 447.145 235.98 446.796C235.916 446.832 235.859 446.875 235.802 446.902C235.656 446.991 235.51 447.096 235.364 447.168C234.975 447.366 234.634 447.628 234.349 447.929C234.064 448.231 233.811 448.614 233.638 449.011C233.104 449.281 232.706 449.57 232.479 449.728L229.905 451.578C224.474 455.479 218.857 459.529 213.361 463.565C210.024 466.026 207.179 468.509 204.68 471.154C202.589 473.368 200.722 475.723 199.137 478.159C198.459 479.19 198.015 480.221 197.539 481.302C197.341 481.759 197.128 482.249 196.882 482.756C196.34 483.907 196.419 485.242 197.081 486.256C197.751 487.278 198.918 487.825 200.129 487.696C200.477 487.658 200.768 487.648 201.01 487.638C201.712 487.604 202.585 487.571 203.525 487.121C210.695 483.686 218.178 481.703 226.106 479.611C227.829 479.156 229.536 478.702 231.259 478.23C237.318 476.566 243.23 474.151 248.937 470.995C246.873 472.818 244.8 474.615 242.712 476.414C239.575 479.108 236.883 481.643 234.491 484.176C230.193 488.725 226.816 493.289 224.155 498.134C223.582 499.186 223.267 500.245 222.977 501.262C222.852 501.69 222.72 502.144 222.562 502.64C222.166 503.835 222.398 505.14 223.182 506.058C223.966 506.976 225.182 507.371 226.387 507.101C226.711 507.023 226.977 506.988 227.212 506.954C227.915 506.836 228.877 506.692 229.826 506.017C238.212 499.994 247.992 496.354 257.292 493.139C268.875 489.14 279.431 482.338 289.453 472.389C289.337 472.759 289.285 473.144 289.299 473.542C289.305 473.749 289.32 473.948 289.367 474.146C289.285 474.232 289.188 474.319 289.106 474.405C288.895 474.629 288.699 474.886 288.535 475.141C287.31 477.099 286.067 479.057 284.833 481.022C280.6 487.713 276.212 494.634 272.411 501.79C270.421 505.547 269.461 509.647 268.542 513.604C268.242 514.895 267.949 516.194 267.609 517.462C267.135 519.249 267.274 521.014 267.377 522.44L267.413 522.962C267.537 524.728 268.893 526.805 270.932 527.236C272.738 527.617 274.481 526.579 275.425 525.58C275.604 525.39 275.759 525.193 275.898 524.997C277.441 522.804 279.16 520.703 281.154 518.592C286.168 513.285 291.82 509.002 298.68 503.95C304.461 499.695 309.817 494.982 314.57 489.95C317.98 486.341 321.166 482.49 324.079 478.433C324.078 478.649 324.108 478.864 324.147 479.087C323.928 479.237 323.709 479.386 323.49 479.552C323.327 479.675 323.165 479.814 323.026 479.96C322.164 480.874 321.807 482.175 322.112 483.402C322.135 483.509 322.167 483.608 322.206 483.714C322.166 483.757 322.125 483.8 322.084 483.844C321.287 484.688 320.593 485.703 319.97 486.956C317.411 492.105 314.323 496.908 311.047 501.992C309.306 504.691 307.517 507.492 305.816 510.315C304.009 513.333 302.693 516.524 301.418 519.605C300.579 521.631 300.708 523.721 300.959 525.681C301.112 526.872 301.863 527.874 302.933 528.325C304.003 528.775 305.248 528.629 306.23 527.919C310.857 524.588 315.829 521.535 320.639 518.554C327.745 514.166 335.037 509.68 341.667 504.096C340.559 506.457 339.354 508.837 338.174 511.142C336.936 513.573 335.658 516.098 334.467 518.644C333.4 520.928 332.793 523.286 332.21 525.551L332.069 526.097C331.653 527.692 332.216 529.025 332.525 529.737C332.573 529.835 332.613 529.941 332.652 530.031C332.92 530.935 333.544 531.677 334.372 532.069C335.209 532.47 336.178 532.484 337.052 532.135C337.149 532.099 337.254 532.07 337.36 532.041C337.983 531.843 338.921 531.559 339.807 530.786C342.099 528.805 344.464 526.814 346.755 524.9C352.41 520.167 358.252 515.27 363.549 509.861C363.915 509.473 364.281 509.102 364.648 508.714C372.721 500.168 379.301 489.658 384.206 477.474C386.354 472.133 388.204 467.717 390.65 463.611C391.304 462.506 392.005 461.566 392.722 460.808C394.423 459.007 397.085 457.162 402.593 458.885C406.056 459.969 409.498 461.801 412.826 463.572L413.252 463.797C416.219 465.373 418.805 465.027 420.938 462.77L420.978 462.71ZM292.708 468.993C292.731 469.1 292.763 469.215 292.794 469.314C292.697 469.368 292.17 469.661 291.984 469.76C292.041 469.7 292.529 469.183 292.708 468.993ZM328.618 399.418C328.586 399.336 328.546 399.246 328.507 399.173C328.547 399.213 328.595 399.261 328.635 399.301C328.626 399.343 328.626 399.376 328.618 399.418ZM326.931 395.085C326.946 395.3 326.968 395.524 326.999 395.739C326.832 395.354 326.666 394.986 326.507 394.61C326.643 394.78 326.779 394.949 326.939 395.093L326.931 395.085ZM295.196 394.077C295.061 393.874 294.925 393.672 294.797 393.46C294.942 393.621 295.086 393.782 295.23 393.926C295.213 393.977 295.213 394.026 295.196 394.077Z" fill="#FFA41C"/>
<path d="M133.653 420.919C135.029 421.491 135.671 421.982 136.357 422.015C149.439 422.631 160.741 427.851 171.466 434.723C179.812 440.07 188.528 444.648 198.278 447.109C209.751 450.005 221.013 448.935 232.236 444.477C238.148 442.128 243.996 439.516 250.04 437.736C253.867 436.62 258.043 436.423 261.997 436.557C265.645 436.687 267.333 439.732 266.498 442.282C264.974 441.092 263.486 439.269 261.57 438.61C259.541 437.921 257.116 438.344 254.675 438.668C258.88 439.874 263.42 440.577 262.233 446.896C261.234 443.434 258.742 442.065 255.517 441.537C252.445 441.045 249.419 440.867 246.354 442.627C247.242 442.661 248.138 442.602 249.001 442.761C251.161 443.146 253.388 443.378 255.425 444.108C258.532 445.222 259.431 449.003 257.615 452.229C257.478 452.176 257.236 452.135 257.236 452.069C256.808 446.849 256.266 446.022 251.265 445.411C248.103 445.03 244.848 445.243 241.628 445.189C241.584 445.565 241.557 445.94 241.514 446.316C242.7 446.462 243.893 446.617 245.087 446.739C246.386 446.865 247.701 446.907 249.008 447.058C252.888 447.503 253.903 448.819 253.468 452.908C253.338 454.101 252.973 455.278 252.149 456.398C252.137 455.867 252.077 455.32 252.121 454.795C252.453 450.519 252.127 449.841 248.127 449.343C245.151 448.98 242.098 449.078 239.07 449.149C238.303 449.17 237.515 449.872 236.737 450.267C236.808 450.506 236.879 450.744 236.949 450.982C238.799 450.922 240.64 450.819 242.489 450.809C243.474 450.805 244.458 450.885 245.426 451.031C248.458 451.45 249.528 452.956 248.786 456.033C248.402 457.627 247.664 459.134 246.572 460.521C246.762 458.835 247.139 457.134 247.054 455.475C247.02 454.753 246.14 453.706 245.447 453.549C242.295 452.844 239.086 452.349 235.877 451.887C235.409 451.821 234.785 452.202 234.33 452.535C227.957 457.12 221.577 461.696 215.244 466.355C212.313 468.517 209.542 470.873 207.052 473.509C205.172 475.499 203.452 477.649 201.924 479.992C201.173 481.15 200.71 482.497 199.914 484.164C201.086 484.046 201.699 484.139 202.185 483.905C211.284 479.551 220.956 477.411 230.502 474.793C242.273 471.569 252.741 465.618 262.199 457.601C267.123 453.428 271.912 449.069 276.884 444.96C282.01 440.721 287.669 437.601 294.307 437.419C295.873 437.377 297.549 437.83 298.965 438.491C300.429 439.168 301.242 440.534 300.273 442.631C297.35 438.452 293.338 439.466 289.287 440.374C292.571 441.581 297.086 441.337 296.482 446.446C294.674 445.325 292.886 443.655 290.768 443.061C288.585 442.453 286.087 442.887 283.738 442.867C283.744 443.075 283.759 443.29 283.765 443.498C285.94 444.164 288.327 444.474 290.24 445.599C292.393 446.865 292.98 449.328 292.648 452.615C291.023 449.717 289.565 447.27 286.483 446.97C283.789 446.705 281.08 446.241 277.735 447.638C281.555 448.559 285.412 447.691 287.438 450.957C288.394 452.516 288.54 454.622 288.636 456.729C287.496 453.813 286.257 451.184 282.928 450.568C280.13 450.05 277.363 449.862 274.244 451.3C277.33 452.008 280.308 452.104 282.632 453.388C285.357 454.891 285.065 458.251 284.888 461.324C284.249 457.201 281.705 455.276 278.012 454.7C275.375 454.291 272.729 454.058 269.447 455.701C273.72 456.389 278.169 455.292 280.073 459.593C280.875 461.399 280.882 463.601 280.858 465.755C279.713 463.354 279.964 460.187 276.888 459.155C273.522 458.017 270.091 457.988 266.299 458.803C269.489 459.681 272.586 460.047 275.159 461.397C277.499 462.631 277.996 467.35 276.464 470.257C276.941 464.821 274.484 462.129 269.529 461.882C267.124 461.756 264.617 461.243 261.986 463.336C265.88 463.946 270.222 461.972 272.373 465.715C273.449 467.578 272.991 470.437 273.223 472.847C272.907 472.9 272.608 472.953 272.293 473.006C272.231 472.676 272.112 472.34 272.107 471.999C272.009 466.859 271.97 466.669 267.133 465.819C265.061 465.456 262.897 465.537 260.757 465.576C260.216 465.587 259.607 466.15 259.127 466.576C254.356 470.735 249.634 474.959 244.831 479.086C242.052 481.467 239.385 483.944 236.894 486.58C233.15 490.543 229.815 494.865 227.121 499.777C226.556 500.821 226.329 502.051 225.792 503.675C226.908 503.417 227.537 503.46 227.943 503.163C236.67 496.894 246.482 493.203 256.333 489.801C269.559 485.234 280.309 477.22 289.743 467.235C291.924 464.926 294.033 462.511 296.079 460.017C298.393 457.204 300.716 454.366 303.214 451.721C305.868 448.913 308.729 446.313 311.999 444.187C317.005 440.934 322.352 439.462 328.061 441.468C330.565 442.346 331.866 444.251 331.86 448.132C328.987 441.741 323.926 442.728 319.112 442.974C319.03 443.193 318.956 443.404 318.873 443.623C320.935 444.31 323.127 444.744 325.017 445.762C327.099 446.889 328.003 449 327.586 451.733C326.612 448.279 324.154 446.708 320.968 446.337C318.201 446.017 315.35 445.159 311.748 447.455C318.766 448.156 325.211 448.888 324.503 457.932C323.366 454.65 322.025 451.633 318.146 451.039C314.977 450.55 311.851 449.753 308.561 451.355C313.306 452.715 319.246 451.92 320.964 458.38C321.403 460.026 321.551 461.782 321.53 463.536C318.429 455.291 312.043 452.156 304.241 455.78C305.466 456.067 306.255 456.303 307.061 456.423C308.36 456.615 309.675 456.641 310.957 456.884C315.938 457.861 318.275 461.589 317.302 467.468C315.947 464.053 315.695 460.148 311.535 459.422C308.342 458.86 305.173 458.405 302 459.554C301.966 459.788 301.94 460.013 301.906 460.247C303.978 460.61 306.074 460.914 308.138 461.336C312.941 462.32 315.479 467.27 313.766 472.761C312.878 469.544 312.946 465.943 309.687 464.561C306.259 463.11 302.604 462.922 298.131 464.045C299.234 464.428 299.676 464.669 300.152 464.743C301.845 464.995 303.563 465.172 305.256 465.441C308.014 465.87 309.972 467.392 310.402 470.285C310.801 472.946 310.813 475.689 310.541 478.483C309.543 474.971 310.4 470.485 306.985 468.427C303.883 466.565 300.054 466.94 296.033 468.096C296.44 468.638 296.663 469.079 297.024 469.356C297.241 469.522 297.661 469.457 297.984 469.445C306.15 468.898 307.368 472.194 306.818 480.758C306.754 481.749 306.488 482.74 305.915 483.759C305.753 481.754 305.655 479.729 305.42 477.735C304.851 472.961 303.938 472.098 299.233 471.816C298.088 471.743 296.918 471.662 295.778 471.862C294.953 472.01 294.174 472.604 292.723 473.315C296.676 474.688 300.995 472.623 303.346 476.616C299.973 476.41 296.891 476.159 293.808 476.092C293.073 476.078 291.965 476.327 291.502 476.818C291.461 476.861 291.412 476.913 291.395 476.963C285.944 485.702 280.219 494.302 275.394 503.383C273.002 507.877 272.234 513.242 270.904 518.261C270.539 519.621 270.729 521.135 270.831 522.561C270.868 523.033 271.355 523.705 271.758 523.789C272.104 523.868 272.688 523.547 273.022 523.194C273.071 523.142 273.119 523.09 273.152 523.039C274.866 520.598 276.757 518.333 278.751 516.223C284.155 510.502 290.439 505.796 296.772 501.138C302.35 497.032 307.478 492.526 312.158 487.573C317.579 481.835 322.391 475.505 326.561 468.501C330.094 462.584 334.383 457.055 338.791 451.746C339.003 451.489 339.215 451.248 339.443 451.007C342.487 447.785 346.6 446.252 351.055 446.318C354.914 446.373 357.444 449.087 357.573 452.332C355.764 451.328 353.767 449.566 351.486 449.127C349.189 448.69 346.598 449.584 344.065 450.419C348.292 450.892 352.89 450.28 354.496 455.639C355.149 457.833 356.133 459.99 355.315 462.456C354.14 458.852 353.769 454.61 349.238 453.849C345.997 453.305 342.654 453.397 339.618 455.488C343.73 456.249 348.732 454.499 350.969 459.735C352.015 462.189 352.52 464.805 351.925 467.594C350.457 464.317 350.937 459.703 346.521 458.654C343.346 457.909 340.003 457.934 336.853 459.24C336.834 459.54 336.816 459.823 336.798 460.123C337.612 460.217 338.45 460.485 339.25 460.381C347.679 459.259 349.721 465.557 349.32 473.584C348.015 468.023 346.912 462.363 339.539 462.68C336.196 462.822 335.041 462.89 333.747 464.26C333.69 464.32 333.633 464.38 333.568 464.449C337.686 465.351 342.957 463.384 344.989 468.934C346.238 472.378 347.22 475.89 346.238 479.766C345.817 477.771 345.461 475.756 344.951 473.789C343.595 468.496 342.384 467.469 336.944 467.307C335.257 467.262 333.543 467.608 331.847 467.788C331.828 468.121 331.801 468.446 331.783 468.78C332.992 468.95 334.201 469.171 335.419 469.3C340.719 469.875 341.569 470.574 342.667 475.861C343.157 478.228 343.446 480.644 343.726 483.052C343.809 483.821 343.576 484.645 343.005 485.464C342.605 482.919 342.245 480.348 341.796 477.805C340.852 472.455 334.455 469.793 329.838 472.833C329.822 472.85 329.814 472.859 329.797 472.876C329.667 473.014 329.625 473.307 329.477 473.628C333.004 474.759 337.759 472.695 340.174 477.824C335.692 475.889 331.603 475.302 327.512 478.247C329.788 478.262 332.074 478.152 334.333 478.333C338.593 478.673 339.658 479.788 340.117 484.167C340.26 485.5 340.201 486.865 340.199 488.22C340.203 488.693 340.086 489.163 339.84 489.704C338.956 486.056 339.525 481.347 334.557 480.635C331.501 480.193 328.279 480.271 325.454 482.405C329.238 482.604 333.913 480.51 335.976 485.103C337.127 487.645 336.69 491.011 336.965 494.001C336.691 494.027 336.416 494.054 336.141 494.081C335.905 492.303 335.798 490.487 335.423 488.756C334.729 485.565 333.551 484.488 330.426 484.53C328.158 484.556 326.205 484.496 324.512 486.288C323.999 486.831 323.509 487.547 323.033 488.496C318.95 496.71 313.476 504.22 308.741 512.118C307.081 514.881 305.83 517.92 304.596 520.908C304.111 522.081 304.181 523.492 304.395 525.096C318.244 515.137 333.975 508.166 345.898 495.545C347.306 494.054 348.65 492.5 349.939 490.839C350.188 491.021 350.453 491.202 350.701 491.384C348.842 495.892 347.128 500.477 345.084 504.9C342.72 510.025 339.969 514.981 337.58 520.099C336.579 522.247 336.012 524.595 335.421 526.903C335.271 527.49 335.766 528.22 335.963 528.886C336.546 528.648 337.241 528.555 337.696 528.156C345.596 521.312 353.912 514.901 361.226 507.438C361.576 507.068 361.926 506.714 362.276 506.343C370.44 497.702 376.573 487.467 381.083 476.278C383.058 471.367 385.09 466.413 387.789 461.89C388.59 460.547 389.447 459.393 390.35 458.437C393.874 454.707 398.241 453.812 403.749 455.534C407.655 456.743 411.337 458.749 414.963 460.683C416.483 461.499 417.484 461.561 418.574 460.407C418.696 460.278 418.835 460.131 418.949 459.961C423.278 454.405 423.257 453.966 417.234 450.958C412.377 448.53 407.421 446.321 402.522 443.953C396.884 441.23 393.643 436.431 392.164 430.328C390.952 425.296 390.047 420.168 389.02 415.071C386.61 403.077 380.972 392.865 373.909 383.339C367.885 375.204 361.828 367.019 358.035 357.363C357.679 356.437 357.461 355.414 356.975 354.577C356.6 353.934 355.885 353.52 355.324 353.009C354.908 353.615 354.177 354.191 354.123 354.808C353.742 359.268 352.738 363.894 353.391 368.166C354.613 376.257 356.804 384.145 358.6 392.123C358.748 392.774 359.018 393.395 359.078 394.058C359.226 395.731 360.151 396.137 361.607 395.817C363.386 395.434 365.173 395.06 366.952 394.711C367.809 394.546 368.673 394.422 369.53 394.29C369.608 394.62 369.687 394.95 369.765 395.279C366.818 396.403 363.87 397.544 360.632 398.779C360.328 400.535 361.241 401.399 363.239 400.95C366.441 400.232 369.62 399.373 372.815 398.564C372.919 398.768 373.03 398.963 373.134 399.167C371.115 400.265 369.12 401.42 367.062 402.411C366.009 402.916 364.813 403.044 363.744 403.483C363.161 403.72 362.688 404.27 362.169 404.688C362.819 405.154 363.522 406.092 364.136 406.003C366.739 405.606 369.319 404.92 371.907 404.341C372.675 404.171 373.452 404.009 374.498 404.385C374.044 404.718 373.636 405.182 373.134 405.367C370.867 406.233 368.561 406.943 366.326 407.874C365.524 408.211 364.88 408.975 364.166 409.55C365.068 409.816 366.024 410.437 366.881 410.288C370.122 409.727 373.341 408.908 377.11 408.069C377.037 408.147 376.971 408.216 376.898 408.293C373.83 411.541 370.112 412.029 366.57 412.91C367.249 414.812 367.942 415.019 371.354 414.36C373.238 413.998 375.122 413.62 377.006 413.242C377.076 413.531 377.155 413.81 377.225 414.099C374.366 415.327 371.515 416.564 368.267 417.957C371.534 421.425 375.388 417.774 378.76 419.252C375.884 420.465 373.017 421.669 369.802 423.028C373.928 427.137 378.08 422.644 382.287 423.5C379.168 424.922 376.041 426.335 372.323 428.028C375.706 431.11 379.23 428.418 382.631 429.189C380.508 430.249 378.393 431.317 375.467 432.781C378.115 433.804 380.135 434.584 382.148 435.373C379.187 436.199 376.747 435.284 374.606 433.528C369.279 429.172 365.439 423.49 362.394 417.346C358.332 409.162 354.626 400.765 351.147 392.277C348.437 385.679 344.525 380.025 340.297 374.49C333.503 365.602 326.49 356.863 321.572 346.584C321.23 345.857 320.419 345.38 319.826 344.787C319.319 345.621 318.368 346.496 318.386 347.284C318.519 352.075 318.133 357.101 319.334 361.585C321.829 370.966 325.198 380.066 328.195 389.295C328.4 389.919 328.605 390.56 328.713 391.22C328.968 392.748 329.803 393.249 331.306 393.11C334.376 392.812 337.469 392.638 340.576 392.863C337.401 395.201 333.93 395.148 330.316 394.801C330.43 396.741 331.481 397.708 333.232 397.7C335.525 397.681 337.82 397.396 340.122 397.318C341.163 397.287 342.203 397.49 343.236 397.584C343.209 397.909 343.19 398.242 343.163 398.567C339.471 398.946 335.763 399.326 331.998 399.716C332.153 401.547 333.291 401.679 334.753 401.533C337.662 401.225 340.586 401.016 343.502 400.765C343.54 401.088 343.578 401.411 343.616 401.733C341.279 402.245 338.918 402.665 336.604 403.3C335.722 403.541 334.288 404.218 333.906 404.623C333.833 404.701 333.8 404.768 333.807 404.809C334.066 406.944 335.77 405.817 336.909 405.699C338.961 405.49 340.983 404.998 343.027 404.764C343.908 404.656 344.818 404.88 345.706 404.946C345.728 405.237 345.742 405.535 345.772 405.833C342.333 406.801 338.895 407.769 335.448 408.746C335.317 408.983 335.195 409.212 335.064 409.45C335.739 409.79 336.42 410.471 337.082 410.413C340.678 410.071 344.266 409.538 347.846 409.08C347.916 409.402 347.978 409.715 348.04 410.045C344.367 411.13 340.701 412.223 337.028 413.308C336.953 413.585 336.887 413.853 336.82 414.121C337.496 414.429 338.185 415.068 338.848 414.993C341.788 414.684 344.723 414.15 347.665 413.741C348.764 413.584 349.878 413.525 351.024 413.682C347.691 416.582 343.31 416.272 339.008 418.32C341.607 420.5 344.099 419.758 346.475 419.404C348.988 419.035 351.487 418.551 354.055 418.372C350.795 421.428 346.404 421.243 342.654 422.871C342.579 423.131 342.505 423.392 342.43 423.652C343.638 424.039 344.851 424.783 346.071 424.729C349.091 424.6 352.098 424.105 355.12 423.759C355.198 424.039 355.269 424.327 355.347 424.607C352.442 425.605 349.52 426.603 346.322 427.695C350.184 429.479 354.149 428.201 358.159 428.491C354.039 431.022 348.187 430.85 343.945 428.183C338.361 424.677 334.445 419.504 331.43 413.708C328.137 407.349 325.281 400.74 322.41 394.149C318.498 385.195 312.792 377.679 305.794 371.184C301.506 367.197 296.77 363.684 292.831 359.376C288.564 354.724 285.004 349.388 281.079 344.391C280.543 343.704 279.666 343.297 278.944 342.758C278.614 343.652 277.986 344.565 278.003 345.437C278.133 351.715 279.823 357.61 282.437 363.056C286.14 370.763 290.313 378.203 294.291 385.767C294.665 386.493 295.055 387.218 295.429 387.944C296.983 390.961 299.5 392.205 302.981 391.675C304.67 391.421 306.344 391.101 308.095 391.11C305.42 393.612 302.134 393.743 298.558 394.642C299.346 395.061 300.147 395.879 300.923 395.833C303.524 395.653 306.127 395.156 308.721 394.769C309.812 394.603 310.896 394.396 312.049 394.594C308.548 397.41 304.468 397.77 300.061 398.741C300.752 399.131 301.441 399.853 302.151 399.843C304.436 399.799 306.723 399.506 309.01 399.246C310.497 399.074 311.984 398.802 313.471 398.58C313.533 398.927 313.587 399.266 313.649 399.613C310.049 400.636 306.44 401.652 302.185 402.858C303.125 403.397 303.806 404.144 304.436 404.071C307.215 403.751 309.965 403.183 312.729 402.73C313.707 402.569 314.7 402.507 315.694 402.395C315.748 402.717 315.81 403.047 315.864 403.369C312.214 404.561 308.564 405.753 304.858 406.956C304.713 409.005 306.242 408.608 307.365 408.391C310.68 407.752 313.98 406.964 317.684 406.144C317.437 406.701 317.151 407.136 316.834 407.472C315.581 408.799 313.829 408.739 312.397 409.217C310.527 409.844 308.594 410.257 306.532 410.807C307.146 412.729 308.498 412.321 309.735 412.051C313.196 411.29 316.641 410.479 320.095 409.677C320.173 409.957 320.252 410.236 320.33 410.516C316.719 411.881 313.108 413.246 309.489 414.603C309.399 414.814 309.317 415.017 309.226 415.228C309.943 415.509 310.689 416.104 311.376 416.02C314.325 415.636 317.26 415.102 320.187 414.511C320.987 414.356 321.734 413.813 322.496 413.452C322.54 414.032 322.575 414.621 322.619 415.201C319.252 416.374 315.885 417.547 312.453 418.739C313.044 420.554 314.132 420.771 315.604 420.433C318.96 419.668 322.332 419.001 325.696 418.294C325.774 418.607 325.86 418.911 325.939 419.224C322.894 420.418 319.858 421.604 316.813 422.798C316.779 423.082 316.752 423.357 316.718 423.641C319.807 424.066 322.879 424.491 325.968 424.916C325.983 425.065 325.99 425.206 326.005 425.355C324.445 425.521 322.86 425.88 321.319 425.813C315.436 425.559 310.938 422.552 306.957 418.471C301.462 412.842 298.021 405.748 294.012 399.058C287.898 388.873 280.1 380.355 270.913 373.028C264.591 367.978 258.798 362.219 252.842 356.699C251.672 355.613 250.917 354.054 249.788 352.891C249.187 352.273 248.204 352.044 247.391 351.651C247.183 352.498 246.7 353.388 246.799 354.191C247.534 360.455 249.523 366.298 252.55 371.62C256.023 377.74 259.974 383.568 263.715 389.52C264.433 390.657 264.939 392.017 265.868 392.897C266.486 393.48 267.695 393.651 268.632 393.616C272.282 393.48 275.925 393.186 279.598 393.206C275.965 395.403 272.038 395.849 268.01 395.725C268.631 397.921 268.807 398.164 270.875 398.02C273.993 397.804 277.119 397.463 280.238 397.097C281.216 396.985 282.18 396.592 283.142 396.332C283.21 396.936 283.278 397.54 283.338 398.136C279.166 399.073 274.993 400.01 270.828 400.956C275.454 404.091 280.642 400.198 285.391 402.082C281.839 404.159 277.843 404.134 274.05 405.049C273.951 405.302 273.852 405.555 273.753 405.808C274.598 406.167 275.449 406.883 276.281 406.827C279.317 406.63 282.348 406.21 285.379 405.789C286.332 405.654 287.264 405.245 288.202 404.96C288.239 405.449 288.276 405.938 288.304 406.419C286.095 407.092 283.894 407.773 281.685 408.412C280.65 408.717 279.567 408.857 278.563 409.227C278.061 409.412 277.669 409.975 277.238 410.365C277.712 410.705 278.207 411.384 278.66 411.334C281.682 411.005 284.704 410.526 287.719 410.09C288.503 409.969 289.279 409.79 290.064 409.636C290.134 409.908 290.205 410.163 290.276 410.434C287.013 411.662 283.766 412.889 280.503 414.116C281.403 415.703 282.138 415.75 286.537 414.738C288.688 414.242 290.847 413.821 293.006 413.366C293.101 413.645 293.203 413.932 293.298 414.211C290.438 415.506 287.587 416.793 284.395 418.242C288.556 420.912 292.717 418.405 297.515 418.076C294.361 419.881 291.887 421.361 289.35 422.678C288.888 422.919 288.108 422.575 287.512 422.381C281.722 420.428 277.533 416.172 273.017 412.31C267.876 407.923 264.117 402.337 259.911 397.125C253.641 389.348 246.125 383.055 237.214 378.651C230.241 375.213 223.162 371.971 216.083 368.745C214.852 368.184 213.391 368.097 212.045 367.79C211.898 368.012 211.751 368.25 211.604 368.472C211.898 369.067 212.103 369.741 212.511 370.25C217.709 376.654 222.883 383.084 228.171 389.411C231.082 392.892 234.23 396.157 237.174 399.604C238.422 401.07 239.84 402.605 240.431 404.403C241.197 406.709 242.707 406.661 244.435 406.53C248.207 406.248 251.988 405.89 255.761 405.591C256.116 405.561 256.47 405.714 257.373 405.88C252.428 408.542 247.716 408.252 242.991 408.554C248.115 410.914 253.656 409.468 259.064 409.615C254.936 412.005 250.521 411.979 246.071 412.137C248.446 414.026 251.347 413.677 254.068 413.666C256.902 413.652 259.755 413.171 262.637 413.171C258.754 415.32 254.529 415.702 250.279 416.077C255.487 419.19 261.05 415.957 266.73 416.326C263.495 419.14 259.736 418.782 255.829 419.834C260.698 421.721 265.213 420.505 269.811 419.893C269.778 419.927 269.746 419.962 269.705 420.005C267.825 421.995 263.797 423.026 259.909 422.507C252.232 421.481 245.703 418.085 240.002 412.954C231.103 404.959 221.375 398.583 209.05 397.265C201.677 396.477 194.368 396.974 186.987 398.306C170.325 401.314 154.698 407.4 139.969 416.295C137.925 417.535 136.12 419.198 133.611 421.128M217.695 425.864C209.451 432.28 200.097 433.079 191.468 436.094C193.651 434.625 195.928 433.417 198.293 432.415C201.979 430.856 205.735 429.502 209.412 427.935C210.23 427.58 210.85 426.71 211.574 426.076C211.438 425.89 211.294 425.712 211.166 425.534C201.822 428.069 192.479 430.588 182.415 433.324C189.326 428.071 197.12 427.539 204.055 424.371C194.717 424.013 185.666 426.238 176.63 428.695C181.404 425.176 186.91 424.064 192.41 422.712C184.687 420.216 177.04 422.638 169.374 424.337C169.296 424.008 169.217 423.678 169.139 423.349L177.673 420.054L177.757 419.652C174.217 419.161 170.677 418.67 167.128 418.188C167.178 417.954 167.229 417.719 167.287 417.476C184.51 417.023 201.103 419.76 217.703 425.872M174.856 413.702C177.011 411.702 177.744 411.882 178.565 414.262C177.187 414.056 176.017 413.875 174.856 413.702ZM183.1 414.508C182.105 412.775 181.165 411.131 179.93 408.958C183.769 410.502 184.844 412.498 183.1 414.508ZM188.162 414.543C187.528 414.043 186.627 413.694 186.317 413.033C185.522 411.367 185.003 409.558 184.371 407.803C184.461 407.658 184.559 407.522 184.649 407.377C185.977 408.94 187.427 410.407 188.568 412.101C188.887 412.571 188.322 413.697 188.162 414.526M194.039 414.523C193.746 414.833 193.453 415.126 193.152 415.428C192.533 415.177 191.516 415.099 191.342 414.657C190.321 411.994 189.486 409.249 188.587 406.524C188.806 406.391 189.017 406.266 189.236 406.134C190.829 408.933 192.43 411.724 194.023 414.523M198.424 415.373C198.164 415.648 197.896 415.899 197.627 416.167C196.927 415.886 195.733 415.781 195.607 415.303C194.752 412.136 194.107 408.894 193.397 405.671C193.631 405.587 193.866 405.52 194.101 405.436C195.537 408.749 196.972 412.061 198.416 415.365M202.193 416.645C199.431 415.709 200.226 413.136 199.576 411.482C198.848 409.647 198.524 407.631 198.03 405.697C198.281 405.613 198.532 405.528 198.775 405.453C200.226 408.914 202.51 412.053 202.201 416.653M206.555 417.254C205.789 417.175 205.16 417.115 204.813 417.087C204.282 414.713 203.821 412.794 203.44 410.838C203.075 408.932 202.808 407.006 202.491 405.098C202.726 405.064 202.952 405.022 203.194 404.98C204.431 408.965 207.222 412.442 206.547 417.246M211.07 418.083C209.453 418.359 208.778 417.919 208.792 416.157C208.806 414.278 208.385 412.399 208.084 410.54C207.814 408.896 207.464 407.272 207.145 405.647C207.485 405.568 207.841 405.488 208.18 405.409C208.906 409.703 211.857 413.325 211.078 418.091M214.78 419.648C214.299 419.101 213.536 418.639 213.404 418.004C213.052 416.43 213.073 414.758 212.795 413.157C212.393 410.778 211.871 408.412 211.396 406.045C211.72 405.983 212.027 405.921 212.35 405.86C212.822 407.521 213.286 409.19 213.765 410.86C214.442 413.178 215.207 415.468 215.746 417.817C215.855 418.311 215.123 419.037 214.788 419.656M220.161 421.076C219.439 420.504 218.24 420.075 218.067 419.35C217.387 416.442 216.966 413.458 216.586 410.48C216.464 409.537 216.762 408.512 216.867 407.527C216.971 407.565 217.076 407.603 217.181 407.64C218.367 411.909 219.561 416.17 220.755 420.447C220.56 420.654 220.357 420.869 220.161 421.076ZM234.185 389.344C236.873 389.418 239.391 389.49 241.909 389.562C238.91 391.187 235.877 390.901 234.185 389.344ZM225.461 422.606C223.636 422.674 222.876 421.83 222.663 420.126C222.359 417.727 221.763 415.373 221.499 412.964C221.333 411.474 221.539 409.921 221.583 408.39C221.785 408.374 221.978 408.35 222.18 408.334C223.266 413.039 224.352 417.761 225.47 422.598M238.741 394.285C240.657 393.922 242.573 393.56 244.481 393.206C243.302 394.339 240.804 394.69 238.741 394.285C237.949 394.431 237.148 394.585 236.356 394.731C236.32 394.209 236.275 393.679 236.239 393.157C236.84 393.708 237.733 394.081 238.741 394.285ZM221.342 429.226C221.342 429.226 221.269 429.304 221.236 429.338C219.717 430.533 218.11 431.691 216.376 432.47C210.147 435.238 203.854 437.842 197.594 440.511C197.458 440.275 197.331 440.03 197.195 439.794C199.49 438.47 201.737 437.081 204.072 435.847C208.36 433.568 212.711 431.435 216.991 429.131C217.996 428.595 218.692 427.397 219.697 426.911C220.369 426.595 221.351 426.99 222.19 427.075C221.902 427.792 221.798 428.76 221.334 429.251M247.557 396.332C245.449 398.497 239.355 398.451 238.671 397.097C241.353 396.863 244.52 396.595 247.557 396.332ZM229.987 424.149C226.928 423 225.749 415.606 227.827 412.121C228.539 416.1 229.236 419.98 229.987 424.149ZM239.941 399.891C243.519 399.683 247.153 399.48 250.78 399.27C250.754 399.512 250.736 399.762 250.709 400.004C247.118 401.958 242.356 401.887 239.941 399.891ZM260.69 378.671C263.014 378.734 265.129 378.787 267.147 378.845C267.066 378.931 267 379.017 266.919 379.103C265.429 380.679 262.701 380.648 260.682 378.663M241.464 403.441C245.633 403.02 249.802 402.598 253.978 402.184C253.992 402.516 253.998 402.84 254.011 403.172C249.898 404.722 245.723 404.919 241.464 403.441ZM206.163 440.988C207.023 440.424 207.559 440.055 208.111 439.719C213.877 436.287 219.619 432.831 225.425 429.489C226.203 429.044 227.332 429.252 228.891 429.102C228.761 429.273 228.614 429.461 228.435 429.651C224.829 433.467 211.028 440.424 206.163 440.988ZM270.215 382.969C267.379 384.338 264.483 384.089 262.77 382.142C265.418 382.176 267.848 382.21 270.277 382.243C270.251 382.485 270.241 382.727 270.215 382.969ZM234.245 425.793C232.044 424.363 231.547 420.7 233.036 417.112C233.426 419.865 233.801 422.619 234.245 425.793ZM273.793 385.96C269.706 388.357 266.51 388.16 264.88 385.977C267.972 385.97 270.879 385.961 273.793 385.96ZM216.41 440.763C222.15 437.49 227.899 434.225 233.632 430.961C233.791 431.287 233.95 431.614 234.109 431.94C229.171 436.854 222.699 438.625 216.401 440.772M267.974 390.931C270.924 390.58 273.857 390.229 276.604 389.911C274.274 391.602 270.227 391.994 267.974 390.931C267.514 390.99 267.061 391.04 266.601 391.099L266.603 389.744C266.874 390.249 267.355 390.647 267.974 390.931ZM400.15 449.037C399.061 449.003 397.938 449.136 396.89 448.926C379.649 445.373 362.467 441.528 345.168 438.252C322.105 433.886 298.581 432.78 275.064 431.714C263.007 431.167 250.993 430.411 239.318 427.449C238.415 427.217 237.588 426.707 236.727 426.332C236.843 425.962 236.959 425.592 237.074 425.222C238.18 425.239 239.295 425.181 240.392 425.273C249.21 425.965 258.012 426.791 266.839 427.359C282.953 428.394 299.119 428.928 315.173 430.356C327.048 431.408 338.77 433.563 350.576 435.166C364.52 437.063 378.122 440.294 391.483 444.457C394.511 445.408 397.407 446.779 400.368 447.948C400.293 448.308 400.218 448.668 400.15 449.037ZM298.471 374.516C296.013 377.084 293.583 377.084 292.259 375.022C294.157 374.86 296.007 374.716 298.471 374.516ZM294.732 379.908C296.833 379.663 299.435 379.367 302.352 379.017C299.734 381.392 297.449 381.485 294.732 379.908ZM305.217 383.306C301.175 386.05 298.124 386.014 296.205 383.676C299.217 383.555 302.221 383.426 305.217 383.306ZM307.76 386.452C303.98 389.776 299.35 390.34 297.939 388.091C300.994 387.578 304.114 387.062 307.76 386.452ZM231.592 467.472C231.431 467.395 231.262 467.326 231.093 467.258C231.198 466.14 231.312 465.014 231.435 463.696C230.603 463.686 229.974 463.626 229.344 463.683C228.754 463.747 228.18 463.943 227.589 464.073C227.551 463.734 227.514 463.394 227.476 463.055C229.471 462.922 231.474 462.781 234.099 462.591C233.083 464.557 232.337 466.006 231.575 467.456M234.024 456.569C237.014 454.18 242.359 454.08 243.853 456.126C244.731 457.324 243.808 460.824 242.083 462.65C241.896 462.848 241.693 463.03 241.481 463.188C241.766 461.931 241.886 460.945 242.216 460.036C242.959 457.947 242.288 456.991 240.197 456.928C238.244 456.868 236.3 456.716 234.016 456.577M231.209 460.538C232.927 459.726 234.635 459.056 236.389 458.732C237.545 458.531 239.24 458.584 238.782 460.471C238.39 462.09 237.313 463.56 236.542 465.101L236.051 464.912C236.264 463.533 236.468 462.145 236.689 460.708C234.663 460.642 232.936 460.59 231.209 460.538ZM327.685 380.039C329.366 379.793 331.515 379.48 333.665 379.167C333.633 379.202 333.608 379.228 333.576 379.262C331.468 381.493 329.595 381.447 327.677 380.048M336.591 384.036C333.248 386.139 330.094 385.933 328.447 383.751C331.054 383.844 333.661 383.938 336.591 384.036ZM339.362 387.914C335.622 390.355 331.013 390.303 330.16 388.881C332.778 388.6 335.904 388.276 339.362 387.914ZM267.382 476.489C267.294 475.379 267.464 474.309 267.609 473.248C267.907 471.167 267.522 469.811 265.019 469.954C263.185 470.064 261.355 469.775 259.523 469.652C259.55 469.361 259.56 469.069 259.586 468.777C262.428 467.799 265.288 467.442 268.138 468.516C268.572 468.683 269.093 469.203 269.162 469.641C269.539 472.129 268.9 474.421 267.374 476.481M256.758 474.427C258.555 472.772 263.454 471.858 264.155 473.111C265.254 475.098 264.527 477.22 262.938 479.066C263.038 477.674 263.129 476.274 263.246 474.699C261.084 474.614 259.034 474.524 256.766 474.435M258.513 481.375C258.163 481.746 257.661 481.981 256.858 482.368C257.127 481.062 257.378 479.855 257.713 478.247C256.122 478.448 254.893 478.61 253.099 478.843C253.222 478.681 253.36 478.535 253.482 478.405C255.582 476.183 257.679 477.509 259.588 477.022C259.236 479.753 259.107 480.763 258.513 481.392M367.841 389.317C364.936 392.26 361.016 392.897 359.485 390.361C362.411 390.002 364.996 389.673 367.841 389.317ZM302.102 488.323C301.845 487.094 301.83 485.856 301.743 484.629C301.47 481.224 300.974 480.694 297.699 480.268C296.086 480.062 294.473 479.89 292.868 479.709C292.87 479.476 292.88 479.235 292.881 479.002C294.377 478.721 295.957 478.006 297.335 478.262C299.206 478.607 301.849 479.207 302.476 480.571C303.476 482.794 303.752 485.751 302.118 488.322M291.412 484.301C294.332 482.463 297.71 482.088 298.652 483.449C299.746 485.028 299.43 489.387 298.314 490.567C298.306 490.576 298.29 490.593 298.282 490.601C297.972 488.851 298.251 486.231 297.152 485.266C295.909 484.174 293.42 484.567 291.42 484.309M294.054 495.538L293.232 495.419C293.425 493.401 293.626 491.374 293.89 488.588C292.426 488.884 291.383 489.097 290.332 489.32C290.293 489.063 290.247 488.816 290.201 488.552C291.787 487.994 293.382 487.444 294.968 486.886C295.225 487.142 295.465 487.416 295.705 487.673C295.152 490.303 294.599 492.917 294.046 495.547M289.241 498.951C289.023 498.884 288.814 498.826 288.596 498.759C289.132 495.24 289.336 493.886 289.776 493.421C290.052 493.128 290.415 493.189 291.012 493.283C290.416 495.201 289.828 497.076 289.233 498.96M325.203 488.772C330.119 485.729 332.798 486.934 333.21 492.038C333.321 493.455 333.358 494.9 333.266 496.333C333.229 496.966 332.797 497.589 332.27 498.888C331.989 496.547 331.807 494.975 331.625 493.452C329.25 493.724 327.311 493.946 325.299 494.179C325.497 493.623 325.783 493.155 326.141 492.776C327.517 491.32 329.906 491.297 332.146 492.934C332.433 487.122 327.614 490.178 325.195 488.781M328.196 501.634C327.928 498.702 329.039 498.07 323.928 498.103C324.043 497.966 324.157 497.829 324.279 497.699C325.646 496.252 327.417 495.828 328.718 496.694C330.277 497.733 329.245 499.6 328.196 501.634ZM371.729 451.745C375.077 449.866 379.475 451.181 379.778 453.796C377.2 453.144 374.493 452.448 371.729 451.745ZM378.501 459.287C375.692 456.01 371.747 456.756 367.816 456.645C368.021 456.313 368.241 456.031 368.469 455.789C370.007 454.161 371.853 454.516 373.507 454.679C376.12 454.93 377.575 456.82 378.493 459.279M376.121 464.28C373.05 460.588 369.355 460.211 364.695 461.499C365.014 461.013 365.332 460.594 365.657 460.249C367.407 458.397 369.37 458.315 371.353 458.64C374.199 459.107 375.703 460.879 376.121 464.28ZM374.479 470.042C372.369 464.046 367.745 464.817 362.586 465.924C362.733 465.736 362.888 465.572 363.051 465.4C365.476 462.833 369.001 462.136 371.307 463.554C373.662 465.003 375.325 468.074 374.495 470.042M372.398 475.065C371.247 473.496 370.258 470.882 368.416 469.995C366.47 469.054 363.712 469.747 361.322 469.736C361.437 469.466 361.625 469.201 361.861 468.952C363.293 467.435 366.708 466.41 369.019 467.213C371.652 468.12 373.218 472.267 372.398 475.065ZM369.435 481.301C368.141 474.293 365.876 472.749 359.137 474.622C359.423 474.204 359.725 473.818 360.058 473.465C362.012 471.398 364.714 470.582 366.523 471.52C369.113 472.869 370.71 478.203 369.443 481.292M366.988 482.456C365.893 481.109 364.924 479.001 363.307 478.239C361.747 477.499 359.522 478.139 357.721 478.165C357.919 477.676 358.205 477.241 358.563 476.862C359.743 475.613 361.702 474.991 363.756 475.488C366.012 476.035 367.448 479.331 366.988 482.456ZM365.017 488.979C364.758 489.089 364.507 489.206 364.248 489.315C363.073 485.661 362.923 481.021 357.347 481.728C357.47 481.532 357.616 481.344 357.771 481.18C359.472 479.38 362.846 479.42 363.541 481.388C364.387 483.775 364.56 486.428 365.017 488.963M361.542 487.297C359.328 486.541 357.202 485.822 354.9 485.044C355.03 484.84 355.161 484.669 355.307 484.514C356.251 483.514 357.511 483.434 358.834 483.6C361.02 483.876 361.175 485.674 361.534 487.289M361.513 494.255C360.577 490.068 357.801 488.867 353.799 489.573C353.974 488.86 354.236 488.385 354.545 488.058C355.49 487.058 356.915 487.562 358.02 487.628C360.723 487.802 361.765 489.832 361.513 494.255ZM358.158 499.175C357.423 493.934 357.351 493.828 353.045 493.158C353.217 492.878 353.404 492.646 353.583 492.457C354.698 491.276 355.907 491.614 356.985 492.022C359.247 492.893 359.7 495.976 358.158 499.175ZM355.707 502.957C354.375 501.86 353.099 500.819 351.246 499.301C352.547 499.111 353.8 498.939 355.845 498.639C354.368 497.564 353.356 496.82 351.895 495.744C352.866 495.442 353.604 494.958 354.152 495.12C354.829 495.311 355.817 495.98 355.845 496.528C355.973 498.783 355.786 501.059 355.723 502.957M351.356 508.14C351.356 508.14 351.299 508.2 351.274 508.226C350.97 506.882 350.642 505.432 350.322 503.99C350.211 503.728 350.092 503.475 349.989 503.221C350.828 503.273 351.928 503.015 352.449 503.47C353.316 504.202 352.487 506.959 351.372 508.139M128.846 416.112C129.115 415.828 129.407 415.567 129.716 415.323C130.488 414.738 131.194 414.154 131.885 413.605C133.461 412.333 134.955 411.13 136.74 410.049C152.36 400.622 168.983 394.258 186.138 391.157C194.739 389.605 202.581 389.237 210.099 390.037C214.358 390.492 218.298 391.467 221.928 392.802C217.745 387.764 213.578 382.626 209.532 377.641L207.173 374.729C206.317 373.673 205.849 372.601 205.579 371.963C205.548 371.881 205.516 371.799 205.468 371.718C204.363 369.49 204.529 366.775 205.926 364.603L206.359 363.914C206.613 363.514 206.906 363.137 207.224 362.801C208.925 361.001 211.41 360.168 213.779 360.711C214.101 360.782 214.424 360.837 214.746 360.891C215.899 361.089 217.471 361.354 219.08 362.092C225.685 365.111 233.191 368.529 240.381 372.083C242.616 373.18 244.787 374.412 246.9 375.754C246.796 375.583 246.7 375.404 246.605 375.225C243.052 368.975 240.836 362.234 240.002 355.185C239.752 352.992 240.363 351.19 240.702 350.222C240.735 350.138 240.76 350.045 240.793 349.961C241.109 348.719 241.747 347.598 242.602 346.693C243.188 346.073 243.878 345.557 244.64 345.18C246.552 344.227 248.74 344.203 250.598 345.123C250.695 345.169 250.807 345.215 250.928 345.252C251.846 345.617 253.383 346.232 254.744 347.644C255.625 348.542 256.272 349.474 256.807 350.21C257.063 350.566 257.414 351.068 257.559 351.212C259.017 352.571 260.476 353.946 261.935 355.321C266.439 359.574 270.695 363.578 275.269 367.23C276.087 367.881 276.889 368.549 277.683 369.209C277.206 368.247 276.729 367.284 276.269 366.32C273.011 359.544 271.296 352.652 271.146 345.818C271.1 343.492 271.953 341.665 272.421 340.675C272.47 340.574 272.511 340.481 272.56 340.379C272.915 339.427 273.454 338.576 274.13 337.86C274.944 336.999 275.958 336.338 277.083 335.955C279.163 335.254 281.405 335.602 283.114 336.876C283.227 336.955 283.355 337.034 283.468 337.112C284.239 337.616 285.42 338.378 286.459 339.702C287.85 341.461 289.185 343.265 290.471 345.004C292.948 348.335 295.289 351.481 297.883 354.309C300.117 356.744 302.715 358.974 305.466 361.323C307.118 362.74 308.827 364.197 310.486 365.739C311.857 367.009 313.171 368.307 314.42 369.623C313.822 367.634 313.248 365.636 312.706 363.62C311.568 359.366 311.57 354.978 311.567 351.121C311.56 349.925 311.569 348.794 311.529 347.699C311.44 344.527 313.128 342.328 313.936 341.259C314.001 341.19 314.042 341.114 314.099 341.037C314.36 340.612 314.67 340.218 315.004 339.865C316.094 338.71 317.529 337.933 319.089 337.684C321.166 337.365 323.22 338.028 324.678 339.486C324.718 339.526 324.798 339.59 324.879 339.653C325.625 340.282 326.868 341.324 327.734 343.129C331.865 351.784 337.636 359.297 343.743 367.263C344.406 368.128 345.07 368.992 345.733 369.857C346.117 370.358 346.508 370.867 346.892 371.384C346.784 370.74 346.676 370.096 346.584 369.451C345.969 365.385 346.46 361.369 346.891 357.829C347.038 356.619 347.176 355.483 347.265 354.399C347.504 351.556 349.117 349.701 349.809 348.902L349.899 348.807C350.078 348.551 350.274 348.311 350.486 348.087C351.601 346.907 353.068 346.129 354.652 345.904C356.592 345.632 358.525 346.208 359.952 347.517C360.008 347.573 360.088 347.62 360.168 347.684C360.834 348.216 361.958 349.105 362.85 350.6C363.56 351.796 363.922 352.929 364.19 353.767C364.253 353.964 364.316 354.161 364.388 354.349C367.864 363.22 373.728 371.129 379.401 378.779C388.191 390.634 393.37 401.577 395.711 413.233C395.99 414.652 396.27 416.071 396.542 417.499C397.264 421.22 397.947 424.735 398.792 428.227C399.896 432.782 402.069 435.709 405.624 437.421C407.587 438.362 409.614 439.316 411.568 440.232C414.464 441.587 417.457 442.988 420.408 444.465C424.027 446.274 427.775 448.145 428.652 452.708C429.529 457.238 426.814 460.739 424.181 464.12C423.911 464.471 423.626 464.806 423.341 465.107C421.819 466.718 417.628 470.116 411.574 466.877L411.148 466.652C407.803 464.865 404.651 463.188 401.478 462.193C397.266 460.879 395.98 462.241 395.134 463.137C394.605 463.697 394.074 464.423 393.551 465.29C391.229 469.167 389.452 473.439 387.362 478.636C382.276 491.259 375.443 502.169 367.051 511.052C366.677 511.448 366.295 511.853 365.904 512.25C360.477 517.78 354.562 522.738 348.85 527.531C346.567 529.437 344.21 531.42 341.943 533.374C340.488 534.634 338.959 535.115 338.214 535.342L338.085 535.38C336.344 536.052 334.455 535.99 332.823 535.211C331.214 534.44 329.998 533.04 329.438 531.307L329.398 531.2C328.994 530.26 328.066 528.059 328.79 525.264L328.923 524.727C329.522 522.411 330.196 519.768 331.411 517.163C331.723 516.486 332.051 515.809 332.379 515.132C329.044 517.343 325.662 519.422 322.32 521.492C317.348 524.562 312.651 527.455 308.13 530.707C306.157 532.119 303.668 532.428 301.536 531.519C299.404 530.61 297.909 528.613 297.597 526.223C297.284 523.882 297.127 521.112 298.304 518.268C299.57 515.212 300.994 511.743 302.948 508.487C304.404 506.055 305.924 503.655 307.427 501.321C305.225 503.191 302.951 504.988 300.604 506.713C293.89 511.659 288.368 515.838 283.574 520.913C281.702 522.894 280.097 524.857 278.661 526.889C278.416 527.231 278.139 527.573 277.846 527.884C276.193 529.632 273.299 531.262 270.123 530.599C266.835 529.908 264.267 526.837 264.012 523.281L263.975 522.792C263.85 521.193 263.673 518.989 264.313 516.58C264.629 515.388 264.913 514.147 265.222 512.831C266.149 508.832 267.201 504.288 269.429 500.099C271.805 495.622 274.397 491.262 277.029 486.991C271.041 491.005 264.817 494.113 258.269 496.377C248.839 499.63 239.722 503.03 231.718 508.781C230.079 509.956 228.47 510.207 227.605 510.347C227.436 510.379 227.242 510.403 227.007 510.453C224.613 510.991 222.181 510.201 220.597 508.366C219.029 506.529 218.548 503.938 219.35 501.539C219.498 501.101 219.615 500.681 219.723 500.303C220.054 499.144 220.444 497.825 221.222 496.408C224.03 491.275 227.603 486.454 232.12 481.672C232.185 481.603 232.259 481.526 232.324 481.457C232.227 481.477 232.13 481.514 232.033 481.534C230.309 482.006 228.586 482.461 226.855 482.925C219.089 484.977 211.769 486.921 204.889 490.212C203.301 490.969 201.872 491.031 201.024 491.071C200.83 491.078 200.604 491.087 200.329 491.113C197.897 491.362 195.565 490.269 194.224 488.225C192.884 486.181 192.734 483.519 193.818 481.218C194.039 480.736 194.245 480.287 194.426 479.865C194.919 478.733 195.477 477.466 196.319 476.162C198.026 473.547 200.032 471.012 202.278 468.634C204.931 465.826 207.93 463.196 211.454 460.604C213.922 458.783 216.414 456.969 218.899 455.164C211.326 456.204 203.797 455.795 196.385 453.928C187.167 451.613 178.318 447.539 167.674 440.732C155.792 433.123 145.939 429.519 135.738 429.036C133.947 428.953 132.668 428.328 131.735 427.864C131.437 427.717 131.164 427.578 130.834 427.449C128.589 426.51 127.055 424.374 126.824 421.864C126.631 419.744 127.381 417.63 128.838 416.087L128.846 416.112Z" fill="#FF9900"/>
</svg>
