<svg width="483" height="347" viewBox="0 0 483 347" fill="none" xmlns="http://www.w3.org/2000/svg">
<path d="M13.0126 270.041C13.7794 268.218 14.4068 266.632 14.7089 265.732C15.1271 263.909 16.6375 256.783 17.0093 254.77C17.3114 249.656 19.24 245.016 22.5861 241.18C22.4002 230.076 24.7704 219.848 29.6268 210.733C31.2302 207.726 33.2518 205.359 35.134 203.251C35.0875 198.185 37.8294 193.402 42.7324 190.324C47.4029 187.412 52.1432 184.808 56.1632 182.653C60.0205 180.593 64.2031 178.415 68.6413 176.545C70.0588 175.929 71.4297 175.598 72.6845 175.385C71.9642 174.651 71.2903 173.751 70.7326 172.686C68.5019 168.377 69.3152 163.097 72.8937 158.551C80.3526 149.057 90.7395 137.03 104.984 128.364C109.306 125.736 113.651 123.653 118.205 121.522C117.903 120.646 117.578 119.77 117.299 118.87C115.347 112.951 113.535 107.032 111.908 101.255C105.03 98.0115 99.4765 93.9629 95.0383 88.9436C93.2955 86.9784 91.6922 84.6108 90.298 81.9354C85.8365 73.4358 87.7187 64.06 95.1777 57.4781C101.475 51.9379 108.701 49.8071 115.556 48.3392C115.858 48.2681 116.16 48.2208 116.463 48.1497C117.322 44.693 118.205 41.1416 119.158 37.6139C120.32 33.2575 121.621 28.7591 123.062 24.2606C126.245 14.1747 134.053 8.18462 145.044 7.35595C146.02 7.28493 147.019 7.23757 147.972 7.23757C155.314 7.23757 161.983 9.34474 167.839 13.488C168.815 14.1747 169.28 14.2457 169.28 14.2457C169.28 14.2457 169.768 14.1983 170.813 13.4644C176.553 9.51047 182.501 7.49801 188.543 7.49801C189.867 7.49801 191.238 7.59271 192.586 7.78212C201.881 9.13166 208.434 14.5771 210.99 23.1242C212.616 28.5697 214.127 34.0862 215.59 39.437C216.195 41.6862 216.822 43.9354 217.449 46.1846C217.612 46.8002 217.798 47.5105 217.961 48.2445C223.375 49.1441 228.51 51.0145 233.25 53.8083C241.035 58.3778 243.567 64.2968 244.311 68.4638C245.078 72.6781 244.753 79.2601 238.874 86.6233C233.645 93.1816 227.976 95.9517 222.166 98.2482L221.818 98.9585C223.561 104.593 227.534 116.763 224.002 131.466C228.673 134.615 237.456 141.504 242.382 146.476L245.729 149.862C246.937 149.72 248.122 149.625 249.284 149.578C249.516 149.578 249.748 149.578 250.004 149.578C253.443 149.578 257.788 151.046 260.67 154.242C262.784 154.976 264.69 155.923 266.316 156.799C268.105 156.326 269.895 156.112 271.637 156.112C275.123 156.112 278.446 157.059 281.397 158.835C282.303 158.669 283.209 158.575 284.139 158.575C287.067 158.575 289.507 159.427 291.365 160.256C293.108 159.688 295.107 159.238 297.291 159.238C300.73 159.238 303.565 160.327 305.865 161.818C308.932 160.35 311.744 159.948 313.905 159.948C316.066 159.948 318.39 160.35 320.597 161.179C321.55 160.942 322.851 160.658 324.408 160.658C325.965 160.658 327.429 160.942 328.823 161.511C329.148 161.416 329.567 161.321 329.892 161.226L330.403 161.084C331.635 160.753 332.959 160.564 334.33 160.564C335.864 160.564 337.212 160.777 338.211 160.942C338.513 160.99 338.931 161.061 339.094 161.084C339.373 161.084 339.675 161.084 339.953 161.084C340.279 161.084 340.604 161.084 340.929 161.084C341.557 160.824 342.231 160.493 342.928 160.161C345.391 158.977 348.551 157.462 352.432 156.87C352.896 156.562 353.384 156.255 353.849 155.97C354.918 155.284 355.94 154.645 356.777 154.029C357.102 153.769 357.451 153.532 357.823 153.271C358.101 153.058 358.496 152.798 358.752 152.585C362.725 146.216 368.721 143.611 372.369 142.049C372.438 142.025 372.462 142.002 372.485 142.002C372.485 142.002 372.601 141.883 372.764 141.599C376.249 136.414 381.385 128.719 390.517 124.671C391.493 123.368 392.445 122.066 393.398 120.764C395.698 117.615 398.092 114.348 400.648 111.175C402.112 109.352 403.947 107.671 405.992 106.251C404.296 101.823 403.738 97.3722 404.342 92.9448C404.552 91.4059 403.576 89.0619 402.437 86.3392C402.205 85.7946 401.972 85.2501 401.763 84.7055C397.302 73.7909 399.347 65.1255 407.828 58.946C406.666 51.275 405.69 43.1541 404.854 34.2046C404.319 28.5223 404.366 22.9348 404.435 17.2052C404.528 10.1971 409.269 4.58586 416.519 2.85751C417.239 2.69178 417.959 2.50237 418.68 2.33664C422.746 1.34224 427.37 0.205794 432.296 0.134766C432.831 0.134766 433.388 0.134766 433.923 0.134766C439.151 0.134766 444.263 0.537258 449.213 0.916075C451.072 1.05813 452.93 1.20019 454.789 1.31857C456.904 1.46062 458.647 2.02885 459.832 2.38399L460.157 2.47869C468.662 5.15408 472.821 11.0021 472.519 19.8806C472.333 25.6338 472.124 32.1684 471.59 38.6083C471.241 42.7753 470.73 46.8239 470.242 50.7778C471.868 52.0326 473.565 53.5479 475.029 55.513C477.306 58.5672 479.165 63.1367 477.515 69.2214C479.258 72.1099 479.932 75.0931 479.606 78.5734C482.604 83.1903 482.883 87.8071 480.861 94.1286C482.883 103.481 479.606 109.447 476.446 112.833C472.356 117.213 467.965 121.664 463.015 126.446C461.365 128.033 459.39 129.359 457.229 130.306C458.577 132.744 459.948 135.42 461.18 138.024C465.037 146.169 466.687 151.283 464.804 156.089C465.269 156.988 465.618 157.959 465.85 158.954C466.57 162.126 465.943 165.464 464.131 168.329C462.225 171.36 460.227 173.822 458.531 175.811C457.136 177.445 455.626 178.676 453.999 179.481C453.511 181.304 452.605 183.008 451.281 184.476C450.979 184.808 450.607 185.234 450.212 185.707C448.701 187.436 446.819 189.59 445.495 190.893C442.59 193.805 439.407 195.273 436.037 195.273C434.806 195.273 433.481 195.06 432.157 194.562C425.929 202.423 419.586 210.52 413.684 218.641C404.83 230.834 394.583 238.008 382.337 240.636C378.666 241.417 374.994 242.412 371.137 243.453C369.58 243.879 368 244.306 366.443 244.708C363.144 245.56 359.844 246.436 356.544 247.289C347.041 249.751 337.212 252.308 327.568 254.889C318.901 257.209 308.607 265.472 300.102 267.816C296.431 268.834 292.76 269.828 289.111 270.846C288.763 270.965 288.228 271.154 287.555 271.32C287.206 276.079 284.441 294.144 285.44 306.881L0 318.814L3.04401 298.05C3.81082 289.977 9.96855 277.57 13.0823 270.113L13.0126 270.041Z" fill="white"/>
<path d="M12.0816 331.411C12.2675 330.63 10.2227 322.793 10.6642 322.154C15.4045 315.075 10.9198 309.227 13.4061 301.437C16.8916 290.452 20.7024 279.584 24.3971 268.67C24.583 268.149 27.0461 256.429 27.0693 255.837C27.1855 252.191 28.6029 249.279 31.3216 246.817C32.1814 246.036 32.8553 244.473 32.7856 243.289C32.2743 233.535 33.9242 224.23 38.525 215.659C39.9425 213.031 42.1267 210.758 44.1483 208.533C45.2869 207.278 46.1234 206.331 45.4961 204.413C44.706 201.998 46.2861 200.199 48.0521 199.11C52.2347 196.505 56.5567 194.114 60.902 191.794C64.7361 189.758 68.5934 187.745 72.5669 186.064C74.2864 185.33 76.3312 185.401 78.2134 185.141C81.6757 184.691 85.2541 185.307 88.5073 183.318C92.6434 180.784 96.8725 178.417 101.775 175.576C95.0136 173.35 88.7861 171.314 82.5819 169.23C81.5362 168.875 80.0956 168.615 79.7005 167.857C79.3752 167.242 80.1885 165.774 80.8159 164.969C89.2508 154.22 98.5223 144.3 110.187 137.197C116.577 133.314 123.595 130.449 131.1 126.756C129.869 123.512 128.219 119.606 126.894 115.581C124.85 109.33 122.921 103.009 121.132 96.6634C120.574 94.6983 119.737 93.4435 117.879 92.6385C112.093 90.1289 106.795 86.7905 102.542 81.9843C101.241 80.5164 100.126 78.788 99.1962 77.0123C96.9654 72.7507 97.8484 68.631 101.775 65.1743C106.307 61.1731 111.907 59.5631 117.623 58.332C119.83 57.8584 122.061 57.527 124.64 57.0771C126.011 51.5843 127.382 45.8784 128.916 40.2198C130.078 35.8871 131.333 31.578 132.68 27.3164C134.702 20.8765 139.442 17.988 145.763 17.5145C151.641 17.0646 157.172 18.3668 162.052 21.8235C166.885 25.2565 171.509 25.3039 176.458 21.8709C180.78 18.8877 185.544 17.0883 191.028 17.8459C196.047 18.5325 200.183 22.226 201.647 27.1743C203.785 34.3718 205.69 41.6167 207.689 48.8615C208.246 50.8977 209.036 55.4198 209.338 57.5033C209.338 57.5033 210.918 57.7401 212.87 57.8821C218.308 58.2846 223.443 59.8472 228.16 62.6173C235.456 66.9027 236.456 73.1768 230.995 79.9955C227.184 84.7781 223.141 86.7195 217.704 88.8267C215.635 89.6317 214.869 89.8921 213.196 90.2472C213.219 91.4547 213.033 93.8697 212.452 94.8641C210.895 97.4684 211.221 99.1021 212.08 101.777C213.335 105.66 213.196 110.609 211.383 114.207C209.385 118.161 211.732 122.968 215.868 124.98C214.497 126.211 213.777 126.992 212.011 126.519C212.731 128.034 213.66 128.697 216.704 129.265C215.612 130.496 213.986 132.154 210.616 131.373C211.546 132.888 213.521 134.261 216.751 134.048C215.496 136.297 213.567 137.363 213.567 137.363C220.748 142.69 227.254 146.099 233.783 152.255C234.527 152.941 234.364 154.196 233.481 154.693C230.6 156.351 227.904 157.866 225.279 159.523C224.396 160.092 223.118 161.844 223.234 161.962C224.396 163.288 225.534 164.85 227.765 164.235C231.855 163.098 235.944 161.962 240.081 161.086C243.287 160.399 246.54 159.926 249.793 159.736C250.979 159.665 252.791 160.376 253.349 161.323C254.325 163.004 255.672 163.264 257.229 163.809C259.251 164.495 261.179 165.537 263.015 166.626C264.363 167.431 265.455 167.81 267.105 167.171C270.753 165.774 274.401 165.797 277.585 168.591C278.863 169.704 280.094 170.225 281.814 169.325C284.579 167.881 286.949 169.467 289.389 170.604C290.225 171.006 291.503 171.125 292.317 170.769C297.359 168.52 299.776 168.923 303.494 173.303C304.609 174.629 305.306 174.818 306.584 173.563C310.186 170.012 314.229 168.946 318.9 171.598C319.504 171.93 320.503 171.527 321.339 171.432C322.617 171.267 324.151 170.509 325.081 170.983C327.846 172.45 330.239 171.645 332.958 170.888C334.747 170.391 336.838 171.196 338.79 171.243C340.51 171.267 342.392 171.456 343.926 170.84C347.829 169.301 351.385 166.744 355.846 166.816C356.311 166.816 356.775 166.129 357.287 165.797C359.099 164.614 360.958 163.501 362.701 162.222C364.258 161.062 366.093 159.973 367 158.363C369.161 154.622 372.646 152.989 376.248 151.426C378.316 150.526 379.757 149.248 381.058 147.283C384.869 141.577 388.912 135.989 395.72 133.503C396.464 133.219 397.184 132.556 397.695 131.87C401.274 127.111 404.666 122.21 408.408 117.593C409.871 115.77 411.777 114.373 413.845 113.331C416.587 111.958 418.33 108.075 416.796 105.4C414.844 101.943 413.752 98.2971 414.31 94.2722C415.007 89.2765 412.822 84.9675 411.033 80.6348C408.245 73.8161 408.895 70.0753 415.007 66.3108C418.097 64.393 418.608 62.6647 418.074 59.2553C416.703 50.5899 415.681 41.8771 414.867 33.1407C414.379 27.8846 414.426 22.5575 414.496 17.254C414.542 14.697 416.61 13.3001 418.748 12.8029C423.256 11.7375 427.833 10.4117 432.411 10.3406C439.126 10.2223 445.865 10.9089 452.581 11.3824C453.882 11.4771 455.973 11.8559 457.228 12.2584C461.294 13.5606 462.526 15.1469 462.386 19.4559C462.201 25.517 461.991 31.6017 461.48 37.6391C460.969 43.7002 460.086 49.7376 459.412 55.4672C461.991 57.5033 465.059 59.1133 466.941 61.6466C469.218 64.7008 467.429 68.0391 465.57 70.9039C469.915 74.6684 470.333 76.089 468.684 81.2504C472.541 85.1332 472.75 86.5775 470.914 91.7625C470.473 93.0173 470.589 94.6747 470.914 96.0242C471.728 99.5756 471.635 102.961 469.102 105.66C464.78 110.277 460.318 114.776 455.787 119.156C454.695 120.221 453.324 120.86 451.86 121.239C448.537 122.092 446.376 124.104 445.145 127.206C444.843 127.987 444.773 129.265 445.191 129.881C449.049 135.587 456.322 150.124 455.392 152.278C454.532 154.291 452.185 155.854 450.327 157.89C451.721 158.482 454.161 159.5 455.346 160.234C455.973 160.612 456.391 161.512 455.648 162.696C454.207 164.992 452.673 166.91 450.931 168.97C449.374 170.793 448.444 170.746 447.399 168.497C446.888 167.407 446.493 165.561 445.656 163.643L439.359 171.338C441.45 173.516 445.795 175.268 443.82 177.493C442.496 178.985 439.847 182.063 438.429 183.46C436.477 185.401 435.037 185.543 434.433 182.749C434.316 182.229 433.155 177.612 433.085 177.257C431.389 179.459 429.809 181.092 427.624 183.815C420.142 193.262 412.637 202.685 405.573 212.439C399.066 221.412 391.282 228.113 380.268 230.457C374.784 231.617 369.37 233.203 363.932 234.624C350.966 238.009 337.977 241.348 325.011 244.804C312.579 248.119 300.194 258.276 287.786 261.662C287.274 261.804 286.786 262.041 286.275 262.088C280.722 262.443 279.304 266.018 278.956 271.037C278.305 280.271 277.027 282.733 276.353 291.967C275.656 301.461 275.377 310.979 274.912 320.497C274.819 322.485 275.261 324.095 276.446 325.871C279.42 330.299 281.907 335.081 284.718 339.627C285.392 340.74 286.67 341.45 287.53 342.468C288.622 343.746 290.109 345.049 290.458 346.564L12.1513 331.364L12.0816 331.411Z" fill="black"/>
<path d="M422.002 52.4599C421.003 42.9895 419.144 33.6138 418.005 23.6225C417.935 22.9832 418.586 22.5097 419.167 22.7701C425.743 25.7296 432.11 25.0194 438.337 24.901C444.704 24.7826 451.048 24.167 457.554 23.7172C458.019 23.6935 458.414 24.0723 458.414 24.5458V33.5427C449.142 37.7334 439.244 37.615 429.112 36.668C427.881 47.2511 430.437 57.5976 429.856 68.2044C429.321 66.4524 428.555 64.7241 428.299 62.9247C427.207 54.8512 426.184 46.754 425.278 38.6567C425.023 36.3602 423.559 34.6555 421.444 35.0106C421.049 35.0817 420.515 36.1471 420.561 36.7153C420.979 41.9714 421.514 47.2038 422.025 52.4599C421.7 52.4835 422.35 52.4362 422.025 52.4599H422.002Z" fill="white"/>
<path d="M418.238 25.7285L423.211 63.0183C423.211 63.0183 424.326 68.8426 426.418 70.9734C428.509 73.1043 430.67 73.6015 435.643 72.5834C442.312 71.2102 449.747 64.2968 450.746 63.184C451.746 62.0712 455.835 57.5491 456.021 57.1466C456.997 54.9921 457.206 50.4463 457.439 49.594C457.671 48.7416 458.368 37.6376 458.415 33.589C458.438 30.6058 458.415 26.4388 458.415 26.4388C458.415 26.4388 454.232 28.8301 452.303 29.2562C450.375 29.6824 449.19 29.8955 444.775 29.6114C440.36 29.3273 440.429 31.4108 436.711 30.298C432.994 29.1852 430.298 28.2619 427.672 27.9777C425.047 27.6936 424.257 28.4749 422.514 28.1908C420.818 27.9304 418.238 25.7759 418.238 25.7759V25.7285Z" fill="#FF9900"/>
<path d="M213.569 218.618C216.171 220.867 219.843 222.193 222.701 224.111C223.05 224.348 223.514 224.679 223.491 224.987C223.259 225.224 222.701 225.058 222.283 224.987C218.844 224.016 215.312 222.643 211.826 221.72C211.408 221.649 210.571 221.483 210.85 222.027C214.15 224.655 218.681 226.502 222.259 228.822C222.631 229.083 223.375 229.58 222.957 229.769C217.589 228.515 212.337 225.934 207.063 224.253C206.668 224.135 205.808 223.85 205.599 224.087C205.529 225.342 227.209 235.097 220.238 233.581C214.568 232.587 209.41 228.917 203.902 228.041C208.922 232.398 215.428 235.357 221.632 237.772C221.981 237.938 222.19 238.056 222.167 238.151C216.938 238.743 211.78 235.641 206.83 234.221C201.741 233.629 222.631 243.194 217.635 242.152C214.801 241.513 211.64 240.66 208.829 240.069C203.879 239.453 217.821 244.851 216.334 245.727C214.01 246.579 211.338 245.325 209.108 244.733C208.364 244.543 207.992 244.543 208.132 244.851C215.196 252.522 224.165 245.561 231.438 242.341C231.926 242.223 232.158 242.318 231.996 242.602C228.371 245.988 223.863 248.402 219.727 251.551C218.054 252.688 218.286 252.972 220.749 252.285C222.376 251.741 225.536 251.291 222.631 253.327C213.732 258.796 204.344 263.413 193.655 263.816C193.144 263.863 192.052 263.816 192.609 263.46C211.664 256.405 204.274 258.56 190.355 260.169C187.009 259.436 196.839 257.707 197.512 257.328C203.229 254.582 185.731 257.044 186.916 255.221C189.333 254.156 192.424 254.227 194.933 253.588C197.954 252.712 194.143 251.836 192.47 252.001C190.263 252.001 177.622 252.877 186.405 251.007C188.868 250.368 191.448 249.989 193.841 249.184C194.027 249.089 194.073 248.994 194.004 248.9C191.169 247.787 185.917 248.616 182.804 249.728C178.714 250.817 181.409 255.34 182.292 257.991C186.103 265.804 190.541 273.523 196.931 279.726C200.626 284.603 234.738 251.409 240.477 247.337C248.494 241.702 225.768 264.881 225.28 265.899C224.978 266.349 224.304 266.988 224.281 267.391C224.281 267.604 224.606 267.509 225.094 267.249C226.024 266.704 228.603 266.704 227.581 267.983C217.031 280.484 200.975 286.805 185.987 292.274C185.383 292.558 184.012 292.937 184.546 291.966C184.709 291.09 191.587 284.508 187.497 285.929C186.243 286.379 184.918 287.326 183.64 287.539C182.478 287.444 187.637 283.846 184.523 284.674C181.874 285.621 175.414 289.22 182.037 284.035C183.036 283.183 184.221 282.449 184.918 281.478C185.034 281.289 185.034 281.194 184.918 281.146C182.804 281.431 179.922 283.514 177.784 284.272C174.647 285.408 181.758 280.318 182.106 279.75C183.942 277.713 180.643 279.252 179.62 279.797C178.435 280.27 169.698 285.148 172.719 282.093C175.345 279.56 179.202 277.713 181.525 274.991C177.97 275.701 174.345 277.903 170.767 278.968C170.511 279.039 170.279 279.087 170.093 279.087C169.791 279.087 169.652 279.016 169.698 278.85C172.417 276.103 176.483 274.399 179.55 272.055C179.829 271.865 180.41 271.439 180.364 271.155C176.994 271.392 173.369 273.475 169.977 274.328C163.61 275.559 178.389 269.498 178.249 268.385C175.298 268.077 170.999 270.374 167.816 270.682C163.354 270.611 179.643 265.118 174.252 265.568C166.933 266.988 160.287 268.906 172.068 263.342C174.973 261.117 165.91 263.981 165.469 263.082C164.772 262.277 171.441 260.572 169.303 259.743C168.327 259.317 165.701 260.027 165.283 259.009C166.329 257.636 169.349 257.707 170.535 256.334C170.767 255.931 169.861 255.695 168.652 255.695C159.683 255.718 167.467 254.108 170.232 252.854C171.905 251.504 167.351 251.646 166.584 251.528C164.818 251.409 163.842 250.77 166.7 249.941C168.211 249.492 170.465 248.947 170.488 248.331C170.558 247.74 168.281 247.645 166.677 247.598C165.353 247.55 164.354 247.29 164.772 246.84C165.841 245.727 168.466 245.656 169.187 244.307C168.769 243.288 166.422 243.857 165.446 243.644C163.494 243.502 164.028 242.626 166.189 241.868C167.351 241.442 168.281 240.968 168.025 240.613C167.072 239.619 164.051 240.329 163.633 238.956C163.726 238.009 168.722 236.967 169.024 235.854C168.118 235.049 165.655 235.617 164.377 235.428C159.334 234.765 166.979 233.037 167.072 232.042C166.631 231.308 165.329 231.593 164.539 231.521C163.61 231.569 161.402 231.332 162.541 230.148C162.541 229.675 170.627 226.076 166.747 226.526C165.562 226.763 164.237 227.331 163.099 227.591C162.239 227.804 161.774 227.804 161.983 227.544C162.355 227.07 163.354 226.715 163.424 226.1C163.517 225.91 162.913 225.531 162.634 225.437C160.798 224.987 159.59 224.016 159.427 221.933C157.452 207.774 157.243 193.427 157.429 179.197C157.452 175.646 157.406 172.047 157.429 168.472C157.429 166.768 158.568 166.034 160.078 166.081C165.817 166.318 171.673 165.584 177.203 166.389C177.552 166.625 177.366 167.028 176.808 167.502C175.995 168.212 174.647 168.827 173.857 169.632C171.743 172.568 186.243 165.489 183.524 168.969C178.737 173.326 172.603 177.872 183.687 172.426C184.686 172.095 191.819 167.928 189.519 171.1C187.497 173.539 185.081 175.954 183.036 178.463C182.827 178.7 182.478 179.268 182.711 179.434C186.87 178.179 190.286 174.746 194.097 172.379C194.887 171.858 196.653 170.792 195.375 172.687C193.167 175.978 190.355 179.482 188.078 183.128C187.846 183.767 188.543 183.388 188.938 183.151C192.911 180.689 196.467 177.185 199.975 174.131C200.185 173.941 200.394 173.799 200.533 173.681C200.789 173.515 200.928 173.468 200.951 173.61C199.116 177.469 196.467 181.139 194.422 184.927C194.259 185.164 193.887 185.945 194.352 185.898C196.49 184.951 198.465 182.867 200.115 181.115C201.184 180.287 206.598 171.621 204.855 176.83C202.903 180.784 200.742 184.809 198.837 188.739C198.697 189.141 198.279 190.088 198.767 190.159C202.531 186.821 205.273 181.802 208.573 177.99C208.759 177.777 208.922 177.587 209.061 177.469C209.27 177.256 209.41 177.209 209.433 177.351C209.781 178.274 200.231 195.865 204.228 192.29C208.015 187.555 211.059 181.683 215.079 177.114C214.359 182.796 210.525 187.934 208.271 193.048C206.854 196.055 208.852 193.261 210.223 191.651C211.176 190.562 211.571 190.704 211.176 192.172C206.342 208.437 221.586 172.237 219.773 181.352C218.332 186.419 215.8 191.817 214.731 197.215C214.986 197.523 215.567 196.86 215.846 196.599C219.076 192.811 220.796 188.171 223.119 183.601C223.421 182.915 224.421 180.997 224.235 183.033C223.77 187.271 222.027 191.414 220.447 195.345C220.284 195.818 219.982 196.765 220.215 197.097C220.494 197.404 220.981 196.812 221.237 196.505C223.05 193.735 224.769 190.491 226.558 187.579C227.511 185.992 227.604 186.537 227.023 188.786C223.607 202.353 230.834 185.188 231.81 182.062C233.39 180.121 232.228 187.271 232.46 187.934C232.995 192.29 236.016 179.221 237.27 179.197C237.503 179.197 237.596 179.789 237.573 180.618C237.503 182.583 237.131 184.667 237.177 186.632C237.758 189.97 240.919 177.919 242.243 177.895C243.08 178.606 241.592 182.796 241.43 184.311C241.035 186.016 240.756 187.768 241.639 186.774C242.638 185.495 243.428 183.814 244.265 182.465C244.66 181.826 244.962 181.494 245.101 181.707C245.45 187.082 244.636 193.143 244.939 198.872C245.055 204.46 245.705 210.047 246.147 215.919C246.217 217.482 245.659 216.748 245.264 215.848C243.219 211.634 242.452 207.111 241.151 202.897C240.826 202.968 241.012 207.703 240.965 208.935C240.965 210.095 241.012 211.539 240.802 212.131C240.709 212.391 240.593 212.486 240.454 212.368C240.152 212.131 239.548 210.852 239.269 210.9C237.828 211.35 244.869 238.885 241.197 231.166C236.202 221.436 235.109 210.308 233.018 199.44C232.321 195.936 232.623 202.329 232.553 203.229C233.088 209.787 227.418 202.66 231.903 210.379C234.133 214.688 225.28 208.698 223.956 208.556C220.145 207.443 231.113 214.593 231.275 215.516C231.554 216.014 231.113 215.943 230.694 215.824C226.791 214.12 223.142 211.492 218.937 210.521C218.495 210.379 216.845 210.047 217.705 210.781C218.332 211.657 231.159 218.571 228.045 218.452C223.538 217.316 219.099 214.475 214.545 213.622C214.289 213.883 214.986 214.333 215.265 214.569C218.17 216.677 221.679 218.476 224.444 220.749C225.931 223.069 213.825 217.103 213.337 218.429L213.383 218.523L213.569 218.618ZM178.389 244.709C181.409 243.975 184.709 243.004 187.753 242.223C188.845 241.773 190.425 241.892 191.122 240.992C191.122 240.779 190.913 240.589 190.658 240.566C186.312 240.874 181.642 241.3 178.342 244.662V244.733L178.389 244.709ZM190.239 237.583C185.685 236.707 180.666 238.009 177.18 241.3C181.386 240.305 186.057 238.814 190.263 237.63V237.583H190.239ZM180.062 247.574C180.062 247.574 180.108 248.047 180.294 248.095C182.106 247.811 184.128 247.1 185.964 246.698C187.892 246.011 190.286 245.964 191.982 244.875C191.959 244.614 191.843 244.425 191.517 244.378C187.428 244.022 183.454 245.112 180.131 247.455L180.062 247.574ZM177.203 237.18C180.619 236.186 184.477 235.286 187.823 234.221C184.337 232.658 179.992 234.741 177.203 237.133V237.18Z" fill="white"/>
<path d="M125.525 266.584C124.503 266.82 123.039 265.613 121.993 265.755C121.923 267.294 131.59 271.698 124.851 270.348C121.11 269.425 117.578 270.04 114.139 272.005C113.465 272.29 112.582 272.905 111.978 272.739C111.374 272.218 116.951 267.98 115.951 266.939C114.209 266.939 112.419 268.738 110.839 269.354C110.165 269.661 109.724 269.733 109.677 269.472C109.608 269.235 109.91 268.667 110.421 267.98C111.56 266.513 117.508 260.167 111.536 263.766C110.003 264.737 106.75 267.057 106.215 266.702C105.263 265.944 113.814 258.652 110.491 259.528C108.516 260.499 105.89 262.866 103.799 263.364C102.497 263.766 102.265 263.151 103.497 261.99C104.077 261.185 110.793 256.734 107.958 256.356C105.89 256.663 104.008 258.747 101.754 259.386C99.1977 260.238 99.8251 258.818 102.033 257.042C103.311 255.787 105.17 254.627 105.03 253.656C103.125 253.68 100.778 256.095 98.8027 255.29C97.9197 254.911 98.4774 254.177 99.3836 253.491C100.383 252.757 101.126 252.189 99.9645 252.26C92.9703 253.514 98.1753 261.967 100.104 265.85C106.703 278.256 117.02 286.258 129.615 291.207C134.192 293.29 140.001 293.598 143.022 298.12C146.043 302.524 149.343 306.809 152.085 311.379C153.27 313.699 150.667 315.096 148.924 315.948C146.717 317.203 143.301 318.813 145.346 316.493C146.089 315.64 148.088 314.385 148.274 313.391C147.902 313.107 147.391 313.533 146.88 313.628C143.952 314.788 140.745 316.611 137.747 317.7C135.215 318.481 138.398 315.948 139.56 315.025C141.744 313.367 145.09 310.574 141.698 311.781C140.304 312.184 126.338 319.949 132.961 314.243C134.099 313.107 137.12 311.521 137.19 310.053C136.028 309.271 130.01 313.557 128.499 313.178C128.197 312.042 133.867 308.395 133.286 307.756C131.915 307.141 127.337 310.408 125.664 310.053C125.246 309.485 127.128 308.348 127.732 307.851C128.662 307.164 129.8 306.478 130.405 305.554C130.66 303.968 121.342 309.414 122.946 307.022C123.991 305.838 125.781 304.797 126.989 303.802C127.686 303.234 128.035 302.832 127.849 302.713C126.385 302.382 120.552 305.696 119.553 304.915C119.414 304.276 123.945 301.458 124.177 300.677C124.2 300.582 124.177 300.535 124.154 300.488C122.434 300.251 116.393 303.447 114.836 303.21C114.464 303.116 114.906 302.619 115.835 301.932C116.881 301.151 120.39 299.162 120.552 298.262C120.25 297.765 116.765 299.28 115.603 299.659C113.79 300.251 111.49 301.435 110.956 300.914C110.956 300.653 111.769 299.99 112.838 299.28C122.225 293.243 110.282 298.049 107.377 298.736C102.335 299.635 114.325 293.977 113.279 293.669C113.093 293.409 112.512 293.622 112.141 293.669C109.12 294.166 105.472 295.8 102.404 295.871C101.614 294.853 114.72 290.781 107.888 291.278C105.402 291.538 92.1105 294.024 101.661 290.52C103.497 289.881 105.96 289.005 106.006 288.508C106.169 288.081 104.542 288.058 102.799 288.247C101.033 288.342 98.0127 288.863 96.5487 288.531C95.8052 288.2 98.9654 287.087 101.08 286.235C102.126 285.761 102.869 285.264 102.892 284.933C102.265 283.465 94.6898 286.59 94.6433 285.169C94.9222 284.246 100.197 281.855 99.9181 280.931C99.0583 279.866 92.7611 282.589 92.4358 281.878C91.5064 281.286 98.2915 278.256 97.5479 277.119C96.7114 276.48 91.0416 278.8 90.4607 278.256C90.1354 278.043 91.0184 277.285 92.2267 276.409C93.7836 275.32 95.8981 273.876 95.8749 273.284C95.8749 273.189 95.8284 273.118 95.7587 273.071C94.8989 272.361 89.2989 275.036 88.7412 273.852C88.8109 272.929 93.3885 271.508 93.8533 269.78C93.7139 268.265 88.23 270.68 87.7188 269.993C86.952 269.354 92.9238 266.394 92.4126 265.092C91.9014 264.121 85.6042 267.175 85.4881 265.968C85.3486 265.187 92.7844 261.541 89.9495 261.114C88.3926 260.972 85.3022 262.772 84.1636 261.47C84.8142 259.67 88.23 259.315 89.2756 257.681C89.5545 256.142 82.7461 258.179 82.5835 257.232C82.932 256.19 85.2789 255.693 86.2549 255.077C86.7196 254.746 87.6258 254.461 87.4167 253.893C87.0914 253.301 82.8158 253.799 82.3511 252.946C81.5843 251.691 87.5329 250.886 84.6748 250.223C81.8864 250.081 80.3992 248.945 80.3527 245.891C79.8183 237.841 77.1228 230.454 72.8705 223.659C71.9875 222.191 71.0116 221.149 71.5692 223.777C73.9626 235.213 73.9162 247.193 76.844 258.557C88.1138 293.598 85.2324 267.957 90.0889 305.01C89.8798 314.291 85.8366 299.659 85.2092 297.433C78.6564 266.252 80.4689 276.575 75.0548 260.83C71.3601 250.034 71.7087 237.817 65.4348 227.921C65.3883 228.418 65.8995 229.436 66.0854 230.099C67.7584 234.668 69.5709 239.072 69.78 243.689C69.7103 244.091 69.8962 245.015 69.5012 245.038C67.2937 241.369 66.1783 236.657 64.2729 232.466C63.4364 230.478 62.4604 229.649 63.3202 232.68C64.9468 237.746 66.5036 243.239 65.9924 248.59C65.8762 248.992 65.7136 249.016 65.4812 248.708C61.4148 239.214 57.9293 229.152 54.072 219.468C53.189 217.219 52.9101 215.396 55.3732 218.308C56.1633 219.066 56.9533 220.557 57.9757 220.818C58.5334 220.652 56.6513 216.675 56.5815 215.278C56.5583 214.994 56.5583 214.78 56.7674 214.686C58.2314 215.325 59.1376 217.527 60.2065 218.711C63.599 222.854 59.3467 212.697 60.2994 211.726C60.4621 211.513 60.6712 211.537 60.9036 211.679C61.9725 212.223 63.9941 215.822 64.5517 215.751C64.9468 215.822 64.6447 214.449 64.2032 212.839C63.5061 210.353 62.9949 207.796 65.5277 210.329C69.5012 214.307 65.7368 204.032 69.8265 208.909C70.5701 209.808 70.9883 209.808 71.3601 209.548C72.1037 208.909 72.9867 210.14 73.6373 210.756C74.1485 211.229 74.2415 210.874 74.1253 210.235C72.6381 204.316 75.9842 210.235 77.4946 210.708C78.0755 210.59 77.6108 209.69 77.239 208.506C76.1933 205.926 76.5884 205.073 78.8656 207.228C83.327 211.276 79.0282 205.192 78.8888 203.392C79.0747 201.498 84.1403 207.204 84.6283 206.612C84.698 206.612 84.7445 206.541 84.7445 206.446C84.7909 206.091 84.21 205.026 83.5362 203.913C82.6299 202.516 81.5843 200.741 81.561 200.054C81.5378 199.722 81.7005 199.722 81.9561 199.865C82.7229 199.865 86.0225 205.949 86.6266 203.416C86.8823 201.853 84.8142 198.799 85.4183 196.929C97.4782 219.232 110.258 242.126 124.526 263.411C125.037 264.169 126.315 266.157 125.711 266.607L125.618 266.655L125.525 266.584Z" fill="white"/>
<path d="M144.279 231.567C145.185 232.349 157.687 230.833 155.572 232.727C154.759 233.58 142.862 234.764 144.581 235.758C145.836 236.326 147.974 236.445 149.484 236.374C150.274 236.492 156.432 235.498 155.038 236.989C151.715 238.173 147.672 238.197 144 239.333C143.907 239.404 144 239.499 144.256 239.57C147.207 240.28 150.739 240.469 153.852 240.422C154.712 240.422 155.735 240.872 154.294 241.369C153.481 241.89 142.699 242.719 148.206 243.95C150.181 244.447 152.644 244.068 154.433 244.684C154.526 244.755 154.433 244.85 154.178 244.944C152.087 245.536 149.042 245.915 146.998 246.531C144.442 247.596 154.712 247.809 155.223 248.543C155.386 248.661 155.386 248.78 155.223 248.898C153.876 249.656 150.228 249.632 148.764 250.413C148.322 250.816 150.413 251.171 151.808 251.455C152.551 251.597 153.295 251.763 154.038 251.929C159.848 253.326 150.739 253.42 150.204 254.486C150.111 255.03 152.83 255.48 153.969 255.812C155.409 256.096 157.919 256.877 155.502 257.279C154.503 257.587 152.389 257.256 151.738 258.037C151.506 258.582 153.922 259.339 154.921 259.765C156.176 260.263 156.966 260.807 155.944 261.091C155.316 261.375 153.76 261.162 153.457 261.896C153.295 262.749 156.85 263.53 157.222 264.311V264.501C157.222 264.501 157.082 264.595 157.036 264.619C146.974 266.56 113.049 205.216 107.356 194.491C105.659 191.507 110.655 194.23 111.817 194.372C112.468 194.42 117.185 196.574 116.604 195.201C114.768 193.259 111.515 191.578 109.47 189.779C109.308 189.59 108.936 189.282 109.029 189.045C109.075 188.927 109.284 188.903 109.61 188.95C111.213 189.306 113.165 190.182 114.815 190.702C116.906 191.271 118.997 192.597 121.112 192.668C121.228 192.597 121.205 192.431 121.042 192.241C118.626 190.04 115.558 188.288 113.002 186.275C112.63 185.967 111.678 185.02 112.747 185.139C116.906 186.512 120.81 189.092 125.202 189.613C128.827 190.229 117.185 183.623 116.813 182.747C114.629 180.238 128.478 186.678 129.431 186.725C134.636 188.359 122.413 180.782 121.809 180.048C121.6 179.859 121.158 179.551 121.112 179.314C121.182 178.983 121.832 179.314 122.181 179.385C126.131 180.901 130.197 182.558 134.171 184.121C134.659 184.286 136.239 184.807 135.542 183.813C120.624 172.661 125.504 176.118 138.609 180.924C142.931 182.179 137.029 178.083 136.123 177.349C134.798 176.26 133.288 175.313 132.196 174.106C132.01 173.869 131.963 173.679 132.08 173.585C132.405 173.372 133.149 173.561 133.613 173.703C137.192 174.911 140.817 176.165 144.418 177.373C149.252 178.722 137.842 172.188 138.237 171.051C138.284 170.957 138.4 170.886 138.586 170.886C141.514 171.264 144.674 172.638 147.648 173.23C148.415 173.277 147.834 172.827 147.23 172.306C146.51 171.454 142.071 169.063 144.279 168.565C145.069 168.447 146.208 168.66 147.021 168.352C147.881 168.092 148.578 167.5 149.391 167.145C150.808 166.837 154.828 165.393 154.619 168.092C154.828 183.576 155.223 199.179 155.595 214.686C155.642 218.522 156.199 222.144 156.455 226.003C156.455 227.211 156.199 228.3 155.154 228.868C152.203 230.099 148.787 230.005 145.72 230.715C145.325 230.857 144.116 230.952 144.209 231.473L144.302 231.544L144.279 231.567Z" fill="white"/>
<path d="M414.546 79.0947C412.989 77.0585 412.454 73.7912 414.36 71.8498C415.382 70.7134 418.055 68.7246 419.588 69.3165C420.889 70.2635 420.634 72.8442 421.54 74.1701C423.608 78.5028 428.906 79.4261 433.112 78.1476C441.803 75.4722 449.099 70.6423 455.21 63.871C455.954 63.066 456.79 62.2137 457.72 61.6928C459.532 60.3906 463.273 61.6218 463.482 63.942C463.482 64.9364 462.669 65.7177 462.088 66.4753C460.229 69.0087 458.37 72.1576 457.487 75.2118C457.464 76.9402 459.3 76.3482 460.857 76.1588C463.877 75.5196 465.481 78.9526 463.994 81.4149C462.994 83.7352 460.531 85.6293 459.95 87.9969C460.973 88.3757 462.437 87.2866 463.831 87.1208C465.341 86.742 467.711 87.0025 467.526 88.9202C467.27 90.3171 464.923 91.1458 463.413 91.7377C462.088 92.2585 459.927 92.8978 460.578 94.0579C460.717 94.5078 461.043 94.9103 460.996 95.3601C460.345 95.7863 458.742 94.8629 457.394 94.5078C453.212 92.8978 456.279 95.9283 457.325 97.3962C460.694 101.753 449.889 94.2473 452.259 98.0355C452.561 98.7695 457.023 103.173 453.886 101.611C450.47 99.7875 445.892 97.2779 451.26 102.865C454.141 106.085 450.749 104.499 448.797 103.457C447.983 103.078 445.288 101.563 445.265 102.297C445.079 103.221 449.447 106.725 449.122 107.814H449.029C448.262 108.24 438.549 100.995 441.524 104.902C442.685 106.275 444.033 107.719 445.218 109.092C445.892 109.85 446.078 110.252 445.59 110.039C443.94 109.187 441.593 107.364 439.688 106.606C438.433 106.062 437.178 105.778 437.225 106.18C438.038 107.624 440.548 109.234 441.826 110.536C442.639 111.27 443.104 111.91 442.778 112.004C442.058 112.596 432.345 106.44 433.739 108.382C435.436 110.276 438.131 112.549 439.804 114.443C439.92 114.632 440.292 115.082 440.106 115.248C438.944 115.39 437.62 114.112 436.295 113.449C435.017 112.667 429.952 109.305 432.856 113.046C433.368 113.733 434.576 114.798 434.39 115.627C433.902 116.29 432.531 116.029 433.437 117.403C433.577 117.781 434.413 118.586 433.763 118.705C429.905 117.497 425.816 115.532 422.005 113.969C420.959 113.472 420.471 112.454 420.796 111.318C421.61 108.619 422.237 105.778 420.866 103.078C420.866 103.078 418.24 98.8405 418.357 93.8685C418.473 88.8965 414.476 79.071 414.476 79.071L414.546 79.0947Z" fill="white"/>
<path d="M32.6018 302.525C32.5321 300.204 35.3669 302.738 36.3894 297.908C36.6682 296.274 33.996 295.564 32.6947 294.498C31.4399 293.386 30.3943 291.894 29.5578 290.284C27.6988 286.33 27.4665 284.483 31.3238 287.419C32.718 288.177 32.2532 286.827 31.4632 285.502C28.0706 280.198 29.6739 280.624 33.2756 283.631C35.5064 284.815 32.2532 280.127 31.6723 278.943C30.8358 277.404 30.3013 275.96 31.5096 276.67C32.5321 277.333 33.5777 278.73 34.4839 279.512C34.9487 279.938 35.2507 280.103 35.3205 279.938C35.5528 279.417 33.5777 275.865 32.9271 274.469C32.23 273.048 31.9279 271.746 32.4856 271.817C33.9495 272.314 34.9254 274.374 36.064 275.273C38.8292 277.262 33.8333 269.212 34.9254 268.715H35.0184C35.8781 268.715 39.0383 273.806 37.9462 270.017C36.1802 264.572 32.7644 258.842 33.903 252.545C34.1354 251.621 34.5304 251.503 35.0184 252.308C37.2956 257.232 39.1778 262.394 41.1994 267.058C41.8732 268.81 42.6865 269.023 43.4069 267.2C46.3347 260.476 48.3098 252.829 51.7953 246.412C55.8153 244.258 46.8459 266.821 46.6135 268.834C41.5944 284.341 40.9205 289.124 37.0167 304.442C36.7611 305.413 36.1337 306.265 35.2508 306.692C34.1122 307.212 32.718 306.928 32.625 302.572L32.6018 302.525Z" fill="white"/>
<path d="M161.356 57.7844C161.519 58.7077 171.209 57.9975 175.879 58.3052C176.414 58.3763 176.46 58.5183 175.972 58.7551C171.696 60.4834 165.655 60.6728 161.17 61.833C160.984 61.8803 161.008 62.2591 161.193 62.2828C165.748 62.5669 171.696 62.0461 176.483 62.2828C177.18 62.3538 176.948 62.5196 176.321 62.7563C171.348 64.6978 160.822 64.5794 160.473 65.3133C160.218 65.8579 161.891 65.7869 162.332 65.8579C166.213 65.9052 170.233 65.8105 174.067 65.9052C174.531 65.9763 175.136 65.9999 175.345 66.3314C175.368 66.7102 174.531 66.8996 174.136 66.9943C169.721 67.7283 160.868 68.0124 160.38 68.6043C160.171 68.8647 160.473 69.1252 160.752 69.1725C163.145 69.3856 165.771 69.1962 168.327 69.0542C170.233 68.9358 179.295 69.4803 176.46 70.0485C150.598 75.1626 135.633 68.7937 134.309 67.4679C133.24 66.3788 135.447 66.8286 135.842 66.5918C136.563 66.1183 134.634 65.2897 133.983 64.8635C130.521 62.709 134.053 63.4193 135.424 63.5613C136.655 63.5376 135.192 62.5669 134.332 61.8803C133.031 60.957 131.381 59.6548 131.753 59.0865C132.868 58.1632 135.075 59.9862 136.168 59.3943C135.889 58.0922 133.263 57.2398 133.054 55.8193C132.984 54.9196 138.607 57.0978 138.398 56.1034C138.212 55.6298 136.679 54.5407 135.656 53.7121C135.006 53.1675 132.357 51.2971 132.938 51.1314C135.238 51.2735 138.747 52.8834 140.931 53.1202C141.349 53.1439 141.465 53.0018 141.187 52.7177C139.467 51.1788 137.05 50.0423 135.168 48.5507C132.357 46.0411 141.512 49.9476 142.256 49.7819C144.463 49.7345 136.47 45.9227 136.353 44.9756C136.121 44.5258 137.004 44.5258 138.212 44.8809C140.745 45.7333 144.602 46.846 140.699 43.8629C140.095 43.271 136.191 40.8797 137.701 40.5482C139.676 40.7139 143.58 42.9395 139.699 39.4354C138.584 38.4647 135.494 35.6473 138.793 36.618C139.258 36.689 140.164 37.1862 140.35 36.7127C140.536 36.0261 138.026 33.8716 138.375 32.8772C138.7 31.9301 140.768 32.9482 140.885 32.3326C141.094 31.2672 138.305 29.6336 138.84 26.8398C139.374 24.046 146.322 22.365 150.69 22.4834C155.361 22.6018 148.599 24.8273 146.88 26.0111C144.486 27.6921 145.183 33.3981 147.066 36.6417C151.713 45.1887 158.568 46.2305 165.492 39.98C170.837 35.7657 176.042 31.3856 181.479 27.337C184.686 24.9694 189.426 22.0099 193.353 23.5488C194.166 23.8566 194.073 25.0404 193.609 25.4192C192.842 26.0585 191.587 26.7214 190.89 27.0055C186.103 28.9943 181.897 30.0124 176.204 36.4996C175.228 37.6124 178.272 37.0442 178.691 37.1389C181.502 37.3756 173.881 40.3588 173.695 41.0217C173.323 41.6136 174.462 41.4242 174.88 41.4716C179.481 41.59 168.327 45.3071 168.49 46.4435C169.024 47.1775 173.95 45.5439 174.183 46.2778C174.229 46.3488 174.229 46.4435 174.136 46.5619C173.184 47.4853 171.627 47.8878 170.256 48.5744C168.862 49.2373 167.258 49.8055 166.027 50.5395C164.702 51.7233 175.019 49.8055 174.136 50.9657C170.721 52.623 166.538 52.7414 163.029 54.233C162.797 54.375 162.75 54.6828 162.913 54.7538C166.538 55.1327 170.883 54.233 174.508 54.6355C175.205 54.8485 174.648 55.109 174.183 55.2747C170.116 56.5059 161.379 57.1214 161.333 57.8791L161.356 57.7844Z" fill="white"/>
<path d="M51.8626 275.368C52.5365 273.142 53.3265 270.869 54.1398 268.573C54.4419 267.768 54.744 267.2 55.0925 267.152H55.1855C56.3705 267.721 56.7888 269.638 57.4859 270.775C57.8577 271.58 58.0203 272.148 57.7415 272.29C56.7191 272.574 53.5589 270.159 54.6278 272.977C55.4875 275.131 57.7647 277.925 59.949 280.245C60.2511 280.553 60.739 281.145 60.6693 281.453C59.5772 281.974 54.8137 279.44 53.1406 279.653C52.2344 280.056 53.7448 281.666 54.0701 282.281C55.4643 284.388 56.3938 285.667 53.28 284.483C52.7456 284.365 52.7456 284.815 52.9315 285.478C53.28 286.543 52.9315 286.946 52.095 287.182C51.3049 287.395 51.8858 287.987 52.3506 288.319C54.5116 289.881 57.0676 290.402 59.7166 290.71C62.1565 290.947 61.3432 291.562 59.5307 292.012C56.6261 292.793 53.6983 292.746 50.9564 293.007C50.5381 293.078 49.2136 293.196 49.6551 293.812C50.2825 294.664 54.3025 295.137 54.3722 296.061C54.5813 296.629 48.2377 296.724 49.8178 297.552C50.817 298.05 53.1406 297.789 53.861 298.547C53.9074 299.186 48.6792 299.541 48.7721 300.465C49.8642 301.198 52.1182 300.583 53.1174 301.317C52.6526 302.003 50.7472 302.146 49.9107 302.501C49.5157 302.666 48.8883 302.737 48.8186 303.164C48.8651 303.59 51.4908 303.684 51.6999 303.945C51.8161 304.063 51.6999 304.134 51.5838 304.229C50.6078 304.726 49.0509 304.916 48.0982 305.365C45.6816 306.715 55.5805 305.152 55.3714 305.863C54.6045 306.786 45.8908 307.994 46.7505 309.177C47.2617 309.58 50.0734 309.201 50.5846 309.485C51.0725 309.817 49.9572 310.195 48.8883 310.669C47.8194 311.142 47.3314 313.415 45.6584 312.445C45.6584 312.445 40.4534 311.829 42.777 305.697C45.1007 299.589 51.8626 275.344 51.8626 275.344V275.368Z" fill="white"/>
<path d="M155.756 146.168C141.279 148.44 128.127 155.78 116.114 163.854C115.998 163.854 116.114 163.688 116.462 163.333C124.619 155.046 134.75 149.814 145.346 145.576C146.903 144.984 147.832 144.463 145.485 144.913C137.073 146.499 129.336 150.121 121.667 153.862C121.179 154.075 120.854 154.194 120.808 154.123C126.594 148.464 134.75 145.812 141.651 141.859C142.488 141.29 142.743 140.746 141.558 140.959C140.466 140.817 116.416 151.305 121.923 147.659C126.338 144.581 131.613 142.64 136.097 139.846C136.214 139.68 136.121 139.562 135.865 139.538C134.355 139.538 132.705 140.272 131.102 140.651C130.056 140.959 123.898 142.829 127.128 140.556C146.043 130.589 174.763 133.146 193.841 141.693C194.724 142.095 196.234 142.9 194.329 142.735C189.774 142.285 184.778 141.669 180.131 141.219C179.69 141.196 178.69 141.148 178.505 141.456C178.156 141.953 181.177 142.829 182.432 143.208C183.593 143.729 187.009 144.226 187.172 145.221C184.198 145.86 180.735 144.629 177.668 144.865C174.833 145.339 180.968 146.783 179.713 147.328C179.202 147.517 178.133 147.493 177.645 147.635C177.343 147.825 178.365 147.92 178.737 147.991C184.523 148.843 189.891 150.358 194.677 153.176C196.745 154.383 195.514 154.194 193.98 153.744C181.339 150.358 168.234 148.914 155.686 153.294C155.314 153.697 156.662 153.578 157.057 153.626C165.213 153.791 173.114 152.821 181.061 155.709C182.129 156.088 183.384 156.774 181.27 156.703C165.864 156.017 150.551 156.04 135.563 159.876C134.959 160.018 133.867 160.278 134.657 159.663C141.465 155.117 149.04 151.092 155.825 146.286V146.239L155.756 146.168Z" fill="white"/>
<path d="M402.226 141.292C410.22 145.814 416.726 152.088 418.538 161.558C418.538 161.819 418.376 161.7 418.074 161.25C414.17 154.526 408.756 149.365 401.692 146.24C400.367 145.624 399.206 145.269 400.902 146.855C405.526 151.283 409.29 156.586 410.684 163.003C410.777 163.713 410.545 163.689 410.173 163.358C409.709 162.908 409.197 162.387 409.174 162.837C409.29 164.447 410.104 166.459 410.499 168.117C410.824 169.324 412.822 175.551 410.429 171.952C406.85 165.583 402.319 160.256 394.883 157.96C389.493 156.279 397.207 161.511 396.603 162.15C395.883 162.529 389.934 158.812 392.653 161.108C395.65 163.547 398.648 166.27 400.46 169.798C400.623 170.176 400.786 170.603 400.298 170.413C398.392 169.206 396.417 167.312 394.558 165.986C394.233 165.796 393.791 165.441 393.513 165.583C392.955 166.53 401.854 176.379 397.044 173.207C396.092 172.615 393.025 169.442 392.653 169.892C394.419 174.13 397.393 178.037 398.601 182.535C398.787 183.269 398.601 183.34 398.113 182.772C394.721 178.392 391.073 174.225 385.891 172.047C382.777 170.792 385.566 173.065 386.867 174.438C387.68 175.338 386.634 174.817 386.146 174.58C379.942 171.36 373.413 168.685 366.349 168.093C364.769 167.903 365.721 167.146 366.581 166.72C372.088 163.736 378.292 164.328 384.566 164.707C385.054 164.707 385.751 164.707 385.449 164.115C382.917 161.511 379.594 159.546 375.969 158.788C375.504 158.646 374.877 158.457 375.016 157.96C382.196 151.354 393.164 150.573 401.111 155.687C405.294 158.386 400.274 151.543 398.671 150.62C396.789 149.057 394.395 147.708 391.747 146.666C389.771 146.003 389.446 144.701 390.678 142.996C402.064 127.394 434.177 150.17 431.83 166.151C431.598 168.093 431.551 166.27 431.481 165.465C430.459 152.112 412.776 138.877 402.18 141.173V141.268L402.226 141.292Z" fill="white"/>
<path d="M274.637 222.334C282.329 210.141 287.115 191.342 286.349 180.451C286.209 179.859 285.884 181.043 285.744 181.351C283.769 187.223 278.657 191.153 275.079 196.007C274.614 196.598 274.08 197.143 273.429 196.669C273.127 196.527 273.057 196.314 272.685 196.362C271.895 196.717 273.104 203.37 271.547 202.186C271.221 201.902 270.803 201.215 270.431 201.878C269.781 203.228 269.339 206.282 268.712 207.702C267.992 209.147 268.154 205.856 267.457 206.424C266.411 207.229 259.185 222.05 261.23 214.876C266.481 201.405 267.945 186.891 271.245 172.851C271.826 171.076 273.29 170.815 274.475 172.141C277.751 175.692 277.728 180.309 277.96 184.689C278.053 187.128 279.308 185.944 280.121 183.837C280.934 181.825 281.399 179.268 282.003 177.137C283.003 172.97 285.024 172.425 287.813 174.769C290.508 176.876 291.856 179.954 291.437 183.577C291.437 184.026 291.437 184.311 291.554 184.358C293.366 183.103 294.272 177.705 294.296 175.29C294.365 174.39 294.9 173.656 295.852 174.011C302.893 176.213 304.078 195.604 301.569 204.293C301.174 205.643 300.5 207.513 300.407 205.572C300.314 205.122 300.593 202.375 299.965 202.707C298.92 204.198 298.85 207.418 297.618 208.91C297.316 209.028 296.991 208.626 296.642 209.147C294.784 213.361 293.087 217.741 289.509 220.535C288.347 221.435 289.067 219.872 289.393 219.28C294.342 209.028 296.062 197.995 295.643 186.726C295.457 185.518 294.923 185.636 294.435 186.654C289.718 199.061 286.232 212.532 276.45 221.79C276.031 222.216 274.87 223.068 274.637 222.476V222.334Z" fill="white"/>
<path d="M214.314 298.24C214.662 299.495 216.684 300.631 217.265 301.815C217.381 302.099 217.195 302.217 216.94 302.217C215.778 302.312 211.409 300.158 210.503 300.56C209.945 300.844 210.41 301.365 210.991 302.123C213.872 305.035 217.125 308.018 210.131 304.561C207.993 303.638 205.205 301.91 204.833 302.762C204.694 303.78 210.457 307.9 209.527 308.728C208.574 309.154 203.114 305.698 202.138 306.1C201.603 306.526 202.324 307.237 203.021 308.278C207.459 314.245 199.954 308.042 198.35 307.876C196.933 307.971 201.092 311.854 199.349 311.759C198.257 311.688 195.097 309.249 193.889 309.297C193.215 309.533 194.051 310.835 193.982 311.356C193.982 312.138 193.215 311.688 192.704 311.427C191.495 310.693 190.148 309.888 188.916 309.368C187.011 308.681 189.241 307.284 190.241 306.29C192.169 304.301 185.338 306.053 185.988 304.467C186.499 303.78 187.661 303.259 188.312 302.691C190.798 300.418 183.618 301.839 183.27 300.749C183.943 299.85 186.011 299.637 186.802 298.879C187.406 298.287 186.337 297.979 187.452 297.766C199.117 296.583 209.829 291.895 220.169 286.615C227.675 282.59 235.947 279.796 243.151 275.227C248.379 270.61 253.096 265.401 258.557 261.021C259.138 260.524 260.834 259.364 260.416 259.601C265.528 256.925 253.444 267.532 242.709 281.43C235.529 290.711 231.137 308.847 229.348 307.521C227.303 306.006 228.07 301.01 237.039 284.981C237.69 283.679 237.969 282.708 236.366 283.466C234.39 284.65 230.928 286.402 230.068 287.87C229.511 288.817 229.371 290.143 228.024 290.166C227.094 290.332 224.817 289.906 225.816 291.611C227.768 294.807 223.957 292.652 222.749 293.599C222.307 294.097 224.747 296.322 224.282 296.701C223.794 297.009 222.981 296.63 221.75 296.204C220.495 295.754 218.194 294.783 219.031 296.417C219.496 297.245 220.541 298.216 220.89 299.069C220.96 299.305 220.89 299.447 220.657 299.495C219.844 299.731 216.219 297.885 214.964 297.908C214.709 297.908 214.453 297.908 214.384 298.145V298.24H214.314Z" fill="white"/>
<path d="M104.726 74.9032C103.889 71.7306 114.764 86.2203 125.964 87.4514C126.592 87.5225 125.988 87.12 125.685 86.9306C123.199 85.368 120.155 83.9237 117.785 82.2664C117.506 82.0296 117.367 81.7692 117.855 81.7929C119.435 81.8402 133.191 87.5225 125.058 82.5979C124.036 81.9113 121.642 79.8988 124.803 81.0589C147.644 89.2982 171.392 88.9667 194.675 82.4321C198.207 81.5798 201.995 80.1829 205.48 79.4016C203.552 81.4614 199.834 82.5742 197.278 84.0658C193.885 86.7175 210.407 79.9461 211.383 79.8041C216.216 78.4072 207.944 82.8583 206.921 83.5449C205.457 84.4209 206.131 84.8234 207.154 84.4919C213.265 82.5742 219.051 80.0645 224.395 75.9686C227.904 73.2695 224.999 77.3655 224.07 78.1231C203.924 97.206 118.296 103.551 104.656 74.8558H104.679L104.726 74.9032Z" fill="white"/>
<path d="M324.871 218.475C326.358 208.153 324.592 198.398 319.433 189.614C318.643 188.17 318.272 188.928 318.086 190.159C316.018 201.926 313.067 213.267 303.447 221.174C302.68 221.79 302.564 221.672 303.121 220.843C311.37 209.336 314.391 195.77 306.886 182.464C306.467 181.517 306.398 180.83 307.188 180.452C310.906 178.842 312.741 185.921 313.322 189.117C313.508 189.614 313.624 189.401 313.694 189.259C314.902 184.808 314.066 180.333 311.696 176.521C311.347 175.882 311.277 175.054 312.021 174.746C313.322 174.201 314.786 175.267 315.762 176.19C326.823 186.347 332.353 202.968 326.242 217.102C326.033 217.647 325.382 218.878 324.941 218.617L324.871 218.499V218.475Z" fill="white"/>
<path d="M226.768 153.698C225.606 155.094 223.445 155.734 221.842 156.799C221.354 156.989 216.079 160.422 216.776 158.812C218.519 157.06 221.028 155.876 223.12 154.147C223.561 153.769 223.863 153.319 223.631 152.798C216.939 147.447 209.038 143.588 201.324 139.847C180.039 129.856 154.664 127.086 132.148 134.52C115.371 139.634 102.568 150.667 90.5774 163.002C89.5317 164.02 89.4388 165.038 90.9956 165.725C94.9924 167.761 98.9426 169.679 102.73 171.644C103.079 171.786 103.846 172.354 103.706 172.615C103.52 172.78 102.451 172.52 102.08 172.331C97.4322 170.437 92.6222 168.519 87.6728 166.435C86.6736 165.985 86.1624 165.204 87.1151 164.162C113.721 131.347 153.014 118.231 192.54 133.526C204.321 137.882 215.405 143.872 225.374 151.685C226.233 152.348 226.977 152.987 226.814 153.556L226.745 153.721L226.768 153.698Z" fill="white"/>
<path d="M410.778 122.185C413.381 120.717 417.029 122.019 419.864 122.232C420.166 122.232 420.631 122.185 420.305 121.877C419.701 120.882 409.872 119.083 413.45 118.254C432.481 113.874 443.449 135.325 447.632 148.726C447.887 149.625 447.516 150.833 446.958 149.53C443.263 140.77 439.847 129.335 431.529 124.836C430.088 124.079 429.159 124.718 430.344 126.02C430.901 126.849 433.271 128.838 432.9 129.548C430.367 128.767 427.788 126.494 425.371 125.31C425.115 125.192 424.581 124.86 424.511 125.144C426.881 128.127 430.692 130.566 433.132 133.478C429.6 131.916 426.045 129.548 422.606 127.796C422.28 127.654 421.723 127.322 421.514 127.464C421.49 128.482 433.527 137.456 429.879 136.58C426.44 134.236 422.745 130.803 418.423 130.59C418.377 130.661 418.47 130.826 418.656 131.016C421.281 133.17 424.488 135.704 426.347 138.687C426.579 139.042 427.114 139.965 426.277 139.421C422.699 136.793 418.656 134.141 414.171 133.218C414.055 133.265 414.078 133.36 414.217 133.525C416.192 135.42 418.563 137.172 420.607 138.995C421.072 139.397 421.7 140.013 420.538 139.587C417.819 138.497 414.891 137.266 412.172 136.13C409.407 134.97 406.549 133.857 403.761 132.602C403.389 132.389 403.157 132.2 403.157 132.01C403.11 131.205 407.711 130.59 407.246 129.879C406.967 129.548 406.456 129.311 406.27 128.909C405.968 128.056 407.084 127.535 407.874 127.393C408.292 127.086 412.591 127.843 411.08 126.967C410.383 126.494 408.617 126.233 408.548 125.31C408.733 124.742 411.197 124.765 412.405 124.671C413.613 124.623 414.543 124.387 414.171 124.079C413.427 123.392 410.709 123.487 410.732 122.327L410.801 122.208L410.778 122.185Z" fill="white"/>
<path d="M333.401 174.439C351.502 177.517 350.968 206.805 336.491 215.588C336.189 215.636 336.212 215.257 336.468 214.57C337.955 211.019 338.536 207.468 338.211 204.153C337.421 193.167 328.405 184.928 323.246 176.097C330.519 172.569 341.231 193.238 341.185 200.98C341.185 202.425 341.719 201.099 341.928 200.436C344.903 191.936 337.095 182.371 333.308 174.51L333.401 174.439Z" fill="white"/>
<path d="M187.357 326.91C188.496 325.797 183.059 318.742 181.386 315.759C155.407 272.739 119.808 232.822 98.9881 186.748C96.6876 181.776 95.7582 181.776 97.4312 187.056C103.287 202.871 112.582 217.716 120.97 232.324C139.188 262.582 162.448 290.07 181.641 319.523C181.641 319.523 186.358 327.857 187.334 326.91H187.357Z" fill="white"/>
<path d="M372.113 201.357C371.556 201.357 369.813 198.564 369.255 198.682C368.791 199.108 370.347 203.417 369.999 203.346C365.723 195.888 361.006 188.501 354.128 182.819C353.849 182.606 352.734 181.564 353.013 182.416C352.966 183.056 360.216 193.97 357.265 192.076C356.847 191.84 355.731 190.372 355.662 191.342C356.01 193.213 357.544 195.77 358.032 197.759C358.102 198.185 357.59 197.948 357.335 197.995C357.195 198.043 357.149 198.208 357.149 198.492C357.312 201.428 357.73 204.767 357.892 207.75C357.892 209.833 356.87 208.697 356.475 207.442C352.571 197.238 351.316 185.968 344.857 176.663C344.508 176.142 343.881 175.29 344.299 174.816C354.5 172.117 368.326 190.656 372.206 199.984C372.369 200.339 372.648 201.286 372.253 201.357H372.137H372.113Z" fill="white"/>
<path d="M178.409 330.084C177.48 330.581 176.086 328.45 175.412 327.622C173.181 324.899 168.487 317.157 166.651 314.387C153.685 294.215 141.904 281.501 128.845 261.471C114.578 239.073 99.1487 216.936 89.459 191.982C87.5536 186.678 88.2972 187.128 90.6208 191.982C111.441 237.25 141.602 268.976 167.093 311.522C169.115 314.742 175.11 322.295 176.852 325.467C176.852 325.467 179.13 329.705 178.409 330.084Z" fill="white"/>
<path d="M430.949 16.1406C427.579 16.1406 419.377 16.4247 420.074 15.4066C423.42 12.1157 450.235 12.7312 456.741 15.525C459.112 17.8689 445.843 13.5125 445.541 15.3356C445.007 18.7686 458.414 16.3537 459.135 17.8689C459.623 19.1474 458.438 20.0708 456.277 20.2839C451.978 20.7101 449.259 21.515 442.218 21.444C435.178 21.3967 429.926 21.7044 421.724 20.1418C420.167 19.834 418.261 19.2895 417.471 17.94C416.449 16.2826 425.86 21.4203 432.482 19.2895C433.412 18.2477 429.392 18.6029 428.137 18.1294C427.138 17.6322 429.09 17.2534 428.718 17.3244C428.718 17.3244 435.968 16.3063 430.972 16.1406H430.949Z" fill="white"/>
<path d="M256.998 168.14C257.672 169.466 256.673 172.757 256.162 174.627C248.493 200.15 255.859 228.324 270.22 250.935C272.218 254.321 271.126 253.634 269.151 251.408C253.791 234.101 248.331 210.188 249.121 187.554C249.493 181.564 250.306 174.011 254.14 169.253C255.395 167.761 256.487 167.335 256.952 168.045L257.021 168.14H256.998Z" fill="white"/>
<path d="M260.58 194.942C260.161 193.687 260.347 191.201 259.999 189.757C259.952 189.686 259.906 189.71 259.836 189.852C259.395 191.296 259 193.356 258.581 194.8C258.465 195.155 258.465 194.847 258.465 194.611C258.767 188.147 256.908 172.829 264.298 171.313C269.015 172.521 263.74 185.945 262.787 189.402C262.067 191.58 261.416 193.451 261.044 194.587C260.951 194.8 260.835 195.132 260.603 195.037L260.533 194.966L260.58 194.942Z" fill="white"/>
<path d="M394.005 219.231C389.195 201.806 375.95 190.583 363.936 178.272C363.471 177.822 362.635 176.78 363.007 176.307C380.341 180 392.843 201.522 394.028 219.231H394.005Z" fill="white"/>
<path d="M64.946 272.126C63.668 268.929 62.3435 265.733 61.1352 262.513C56.0463 248.757 50.9575 235.025 45.9616 221.222C45.1251 218.902 43.1732 216.487 45.4736 213.883C45.5666 213.764 45.7757 213.764 46.1242 213.622C55.7675 231.971 60.8796 251.859 65.5966 271.889C65.3875 271.983 65.1551 272.055 64.946 272.149V272.126Z" fill="white"/>
<path d="M191.306 162.647C168.627 159.806 146.041 160.8 123.849 168.613C122.966 168.897 122.432 169.016 123.245 168.4C135.933 159.308 172.577 154.36 191.329 162.623H191.306V162.647Z" fill="white"/>
<path d="M401.927 209.527C397.976 198.304 389.89 189.899 381.734 181.258C381.106 180.5 381.408 180.311 382.082 180.453C390.75 182.442 401.555 194.706 404.506 204.863C404.413 205.218 403.228 203.703 402.414 202.803C399.045 198.541 403.669 209.385 402.043 209.598L401.927 209.527Z" fill="white"/>
<path d="M50.863 204.647C49.7709 207.464 52.7916 208.553 55.1618 207.701C57.2066 207.062 59.4141 205.901 61.3892 204.931C65.688 202.871 73.3329 198.041 77.4226 195.626C78.8168 194.679 81.1869 193.519 81.884 192.169C81.884 191.956 81.582 191.909 81.0243 192.051C80.1645 192.264 78.9097 192.809 78.0035 193.329C72.5196 196.549 63.7594 202.468 57.6714 204.552C53.2796 206.47 50.5842 205.286 55.9518 201.687C55.9518 201.687 58.5776 200.124 56.7187 199.556C54.8597 198.988 50.8397 204.647 50.8397 204.647H50.863Z" fill="white"/>
<path d="M193.002 111.816C193.444 112.006 193.816 113.071 193.885 111.935C194.373 107.128 191.91 97.4685 197.72 95.598C199.439 95.3139 199.23 97.7526 198.788 98.8417C196.581 104.192 196.929 109.898 198.51 115.368C198.974 116.859 199.439 118.919 198.138 120.032C195.512 120.647 194.513 116.173 193.374 114.42C193.095 113.71 192.003 112.266 192.863 111.816H193.002Z" fill="white"/>
<path d="M37.8086 232.041C40.3646 236.018 42.363 240.611 44.5705 244.991C45.2908 246.672 46.1506 249.3 44.9422 250.816C43.8269 251.384 42.5953 247.998 42.0377 247.572C41.8285 247.359 41.6891 247.335 41.6194 247.501C41.387 248.945 41.387 249.253 40.6202 247.785C38.6683 243.737 37.1347 236.066 37.3671 232.751C37.4136 232.419 37.3903 231.946 37.7156 231.97L37.8086 232.017V232.041Z" fill="white"/>
<path d="M211.152 169.182C210.571 168.827 211.384 168.329 211.547 168.258H211.663C212.732 168.258 213.661 169.253 214.916 169.584C215.822 169.868 216.798 169.987 217.751 170.129C221.631 170.555 225.373 172.544 229.393 172.78C233.017 172.899 236.573 171.407 240.128 170.579C243.497 170.081 245.844 167.785 247.215 164.683C248.005 163.263 249.028 162.908 248.842 164.896C248.4 171.028 242.614 172.165 237.688 173.254C237.688 173.254 231.019 175.811 224.536 173.254C218.076 170.697 215.265 171.668 211.175 169.182H211.152Z" fill="white"/>
<path d="M206.598 100.948C207.062 101.279 207.295 102.155 207.481 102.818C208.387 106.63 208.828 110.844 207.109 114.017C206.644 114.893 205.784 115.082 205.343 114.017C203.879 110.253 204.158 105.872 205.505 101.99C205.715 101.516 205.97 100.829 206.458 100.853L206.598 100.9V100.948Z" fill="white"/>
<path d="M47.752 239.476C43.4532 235.877 41.664 230.053 40.5951 224.726C40.5486 224.252 40.4092 223.376 40.8274 223.258C40.9901 223.258 41.1992 223.424 41.4084 223.755C42.5702 225.91 43.5694 228.538 44.6383 230.81C45.7536 233.486 47.1943 236.114 48.1005 238.837C48.1935 239.263 48.1005 239.547 47.8914 239.523H47.7288L47.752 239.476Z" fill="white"/>
<path d="M189.195 120.811C189.357 121.261 190.659 125.902 191.658 128.624C191.728 128.79 191.542 128.956 191.379 128.885C189.752 128.104 187.429 127.63 187.243 126.849C186.871 125.333 187.243 120.74 187.824 120.29C188.405 119.817 188.939 120.125 189.195 120.811Z" fill="white"/>
<path d="M178.344 244.707C181.852 241.132 186.407 240.966 190.892 240.54C190.961 240.8 191.031 241.061 191.124 241.321C186.872 242.458 182.596 243.594 178.344 244.731V244.707Z" fill="black"/>
<path d="M190.215 237.629C185.893 238.86 181.571 240.092 177.133 241.37C180.92 238.079 185.219 236.706 190.215 237.629Z" fill="black"/>
<path d="M180.086 247.477C183.618 245.038 187.522 244.044 191.82 244.446L192.006 245.133C188.103 246.127 184.176 247.145 180.272 248.14C180.202 247.927 180.156 247.69 180.086 247.477Z" fill="black"/>
<path d="M177.227 237.179C180.875 233.983 184.964 232.965 187.846 234.22C184.476 235.167 180.875 236.161 177.227 237.179Z" fill="black"/>
</svg>
