<svg width="216" height="44" viewBox="0 0 216 44" fill="none" xmlns="http://www.w3.org/2000/svg">
<path d="M210.09 38.9048C209.896 38.419 209.777 38.0628 209.777 37.4799V27.9696C209.777 26.0157 209.27 24.2561 208.331 22.9068C209.367 21.525 209.928 19.841 209.928 18.103V8.0314C209.928 3.61629 206.334 0.0215898 201.919 0.0215898H190.077C189.245 0.0215898 188.479 0.269872 187.81 0.669284C187.151 0.269872 186.374 0.0215898 185.543 0.0215898H174.931C173.971 0.0215898 173.085 0.345437 172.362 0.874387C171.65 0.356232 170.775 0.0539745 169.825 0.0539745H164.169C163.446 0.0539745 162.765 0.226693 162.161 0.539745C161.556 0.226693 160.876 0.0539745 160.153 0.0539745H154.497C153.223 0.0539745 152.079 0.615309 151.28 1.4789C149.984 0.55054 148.354 0.0215898 146.476 0.0215898H138.488C136.577 0.0215898 134.925 0.561335 133.619 1.52208C132.82 0.626104 131.665 0.0431796 130.359 0.0431796H119.748C118.323 0.0431796 117.06 0.734053 116.261 1.80275C114.89 0.712463 113.152 0.0431796 111.274 0.0431796H99.4318C98.0824 0.0431796 96.8842 0.669284 96.0854 1.63003C94.7576 0.604514 93.0412 0.0107949 91.055 0.0107949H79.3641C78.5329 0.0107949 77.7664 0.259077 77.0972 0.658489C76.4387 0.259077 75.6614 0.0107949 74.8302 0.0107949H64.208C62.9127 0.0107949 61.7576 0.582924 60.9588 1.4789C59.6634 0.55054 58.0334 0.0323847 56.1551 0.0323847H44.1619C42.8881 0.0323847 41.7547 0.582924 40.9558 1.44652C39.6712 0.52895 38.052 0 36.1845 0H27.6457C25.2493 0 23.263 0.842002 21.8705 2.31011C20.5211 0.874386 18.5348 0.0431796 16.16 0.0431796H7.93425C3.18449 0.0431796 0 3.35721 0 8.29048V35.7527C0 40.686 3.18449 44 7.93425 44H16.16C18.5564 44 20.5427 43.158 21.9352 41.6899C23.3278 43.1364 25.314 43.9784 27.6889 43.9784H36.2277C38.0736 43.9784 39.682 43.471 40.9666 42.5643C41.6143 43.2767 42.5103 43.7841 43.5358 43.946L43.7841 43.9784H56.1982C58.0765 43.9784 59.7066 43.4603 61.002 42.5319C61.8008 43.4279 62.9558 44 64.2512 44H74.9814C75.791 44 76.5466 43.7625 77.1943 43.3739C77.842 43.7625 78.5976 44 79.4073 44H91.4112C93.1815 44 94.8224 43.4171 96.1501 42.4347C96.949 43.3847 98.1364 44 99.475 44H105.132C105.898 44 106.621 43.8057 107.247 43.4495C107.884 43.8057 108.618 44 109.385 44H116.045C116.693 44 117.297 43.8165 117.837 43.5142C118.431 43.8165 119.089 44 119.791 44H130.51C131.32 44 132.065 43.7625 132.723 43.3847C133.371 43.7733 134.116 44 134.925 44H140.539C141.251 44 141.931 43.8273 142.525 43.525C143.119 43.8273 143.799 44 144.511 44H150.125C150.934 44 151.679 43.7625 152.327 43.3847C152.974 43.7733 153.73 44 154.54 44H160.196C160.952 44 161.664 43.8057 162.28 43.471C162.906 43.8057 163.618 44 164.374 44H171.218C171.876 44 172.492 43.8057 173.031 43.5034C173.614 43.7949 174.262 43.9676 174.964 43.9676H185.683C186.493 43.9676 187.237 43.7301 187.896 43.3415C188.544 43.7301 189.299 43.9676 190.109 43.9676H195.765C196.532 43.9676 197.255 43.7733 197.881 43.4171C198.518 43.7733 199.252 43.9676 200.019 43.9676H206.679C208.719 43.9676 210.382 42.3052 210.382 40.265C210.382 39.79 210.295 39.3366 210.123 38.9048H210.09Z" fill="white"/>
<path d="M20.8438 8.29008V19.8298C20.8438 20.4451 20.3473 20.9525 19.7212 20.9525H14.1618C13.5465 20.9525 13.0391 20.4559 13.0391 19.8298V10.8053C13.0391 10.0928 12.78 9.7366 12.1863 9.7366C11.5926 9.7366 11.3335 10.082 11.3335 10.8053V33.2587C11.3335 33.9711 11.5926 34.3274 12.1863 34.3274C12.78 34.3274 13.0391 33.9819 13.0391 33.2587V24.3745C13.0391 23.7592 13.5357 23.2518 14.1618 23.2518H19.7212C20.3365 23.2518 20.8438 23.7592 20.8438 24.3745V35.7523C20.8438 38.7641 19.1598 40.7611 16.1481 40.7611H7.92234C4.91057 40.7611 3.22656 38.7641 3.22656 35.7523V8.29008C3.22656 5.27831 4.91057 3.28125 7.92234 3.28125H16.1481C19.1598 3.28125 20.8438 5.27831 20.8438 8.29008Z" fill="black"/>
<path d="M40.9225 8.2686V35.72C40.9225 38.7318 39.2385 40.7289 36.2267 40.7289H27.688C24.6762 40.7289 22.9922 38.7318 22.9922 35.72V8.2686C22.9922 5.25682 24.6762 3.25977 27.688 3.25977H36.2267C39.2385 3.25977 40.9225 5.25682 40.9225 8.2686ZM32.8047 10.773C32.8047 10.0606 32.5457 9.70432 31.952 9.70432C31.3582 9.70432 31.0992 10.0498 31.0992 10.773V33.2264C31.0992 33.9389 31.3582 34.2951 31.952 34.2951C32.5457 34.2951 32.8047 33.9497 32.8047 33.2264V10.773Z" fill="black"/>
<path d="M60.9712 8.37644V35.6443C60.9712 38.6993 59.2548 40.7395 56.1999 40.7395H44.0232C43.4727 40.6532 43.0625 40.189 43.0625 39.6169V4.42551C43.0625 3.7994 43.5699 3.28125 44.2068 3.28125H56.1999C59.2548 3.28125 60.9712 5.31069 60.9712 8.36565V8.37644ZM52.7239 10.924C52.7239 10.19 52.4649 9.83375 51.8603 9.83375C51.2558 9.83375 50.9968 10.1792 50.9968 10.924V33.1075C50.9968 33.8416 51.2558 34.1978 51.8603 34.1978C52.4649 34.1978 52.7239 33.8524 52.7239 33.1075V10.924Z" fill="black"/>
<path d="M76.1124 35.2127V39.617C76.1124 40.2431 75.605 40.7612 74.9681 40.7612H64.238C63.6119 40.7612 63.0938 40.2539 63.0938 39.617V4.40402C63.0938 3.77792 63.6011 3.25977 64.238 3.25977H74.8602C75.4863 3.25977 76.0044 3.76713 76.0044 4.40402V8.97027C76.0044 9.59637 75.4971 10.1145 74.8602 10.1145H71.0388V18.8692H74.7091C74.8278 18.8692 74.9465 18.8908 75.0545 18.9232C75.5187 19.0743 75.8425 19.4953 75.8425 20.0134V24.5797C75.8425 25.087 75.5079 25.5188 75.0545 25.67C74.9573 25.7024 74.8494 25.7239 74.7307 25.7239H71.0388V34.09H74.9681C75.5942 34.09 76.1124 34.5974 76.1124 35.2342V35.2127Z" fill="black"/>
<path d="M96.1803 26.2421V35.9791C96.1803 38.6131 94.0429 40.7612 91.3982 40.7612H79.3943C78.7682 40.7612 78.25 40.2539 78.25 39.617V4.40402C78.25 3.77792 78.7574 3.25977 79.3943 3.25977H91.0851C94.1509 3.25977 95.8673 5.28921 95.8673 8.35496V16.0517C95.8673 18.6317 94.3344 20.4021 92.4237 20.9742C92.2834 21.0174 92.2834 21.2225 92.4237 21.2549C94.356 21.719 96.1695 23.565 96.1695 26.2313L96.1803 26.2421ZM87.9222 10.4276C87.9222 9.69352 87.6632 9.33729 87.0586 9.33729C86.4541 9.33729 86.195 9.68273 86.195 10.4276V17.088C86.195 17.8221 86.4541 18.1783 87.0586 18.1783C87.6632 18.1783 87.9222 17.8329 87.9222 17.088V10.4276ZM87.9222 25.5296C87.9222 24.7956 87.6632 24.4394 87.0586 24.4394C86.4541 24.4394 86.195 24.7848 86.195 25.5296V33.5826C86.195 34.3167 86.4541 34.6729 87.0586 34.6729C87.6632 34.6729 87.9222 34.3275 87.9222 33.5826V25.5296Z" fill="black"/>
<path d="M116.463 40.1242C116.484 40.1782 116.495 40.2322 116.495 40.2969C116.495 40.556 116.29 40.7611 116.031 40.7611H109.37C108.841 40.7611 108.366 40.4049 108.237 39.8975C108.064 39.2175 107.989 38.3755 107.989 37.6198V27.1272C107.989 26.555 107.827 26.2096 107.46 26.0909C107.363 26.0585 107.255 26.0369 107.125 26.0369C106.521 26.0369 106.261 26.3823 106.261 27.1272V39.6277C106.261 40.2538 105.754 40.7719 105.117 40.7719H99.4607C98.8346 40.7719 98.3164 40.2646 98.3164 39.6277V4.42551C98.3164 3.7994 98.8238 3.28125 99.4607 3.28125H111.303C113.937 3.28125 116.074 5.41864 116.074 8.05259V18.1242C116.074 19.3225 115.631 20.4128 114.908 21.2548C114.304 21.978 113.516 22.4962 112.641 22.7552C112.501 22.7984 112.501 23.0035 112.641 23.0359C113.57 23.2626 114.368 23.8131 114.941 24.6228C115.577 25.4864 115.912 26.6414 115.912 27.9908V37.5011C115.912 38.6777 116.193 39.4657 116.452 40.1134L116.463 40.1242ZM107.989 10.4491C107.989 9.71501 107.73 9.35878 107.125 9.35878C106.521 9.35878 106.261 9.70421 106.261 10.4275V18.556C106.261 19.2901 106.521 19.6463 107.125 19.6463C107.73 19.6463 107.989 19.3009 107.989 18.5776V10.4491Z" fill="black"/>
<path d="M131.633 35.2125V39.6169C131.633 40.243 131.125 40.7611 130.489 40.7611H119.769C119.143 40.7611 118.625 40.2538 118.625 39.6169V4.42551C118.625 3.7994 119.132 3.28125 119.769 3.28125H130.381C131.007 3.28125 131.525 3.78861 131.525 4.42551V8.99175C131.525 9.61785 131.018 10.136 130.381 10.136H126.559V18.8799H130.219C130.337 18.8799 130.456 18.9015 130.564 18.9338C131.028 19.085 131.352 19.506 131.352 20.0241V24.5904C131.352 25.0977 131.018 25.5295 130.564 25.6807C130.467 25.713 130.359 25.7346 130.24 25.7346H126.548V34.0899H130.478C131.104 34.0899 131.622 34.5972 131.622 35.2341L131.633 35.2125Z" fill="black"/>
<path d="M151.234 8.31178V39.6278C151.234 40.2539 150.726 40.7612 150.1 40.7612H144.487C143.861 40.7612 143.354 40.2539 143.354 39.6278V29.3186C143.354 28.5954 143.094 28.2392 142.49 28.2392C141.885 28.2392 141.626 28.5846 141.626 29.3186V39.6278C141.626 40.2539 141.119 40.7612 140.493 40.7612H134.88C134.253 40.7612 133.746 40.2539 133.746 39.6278V8.31178C133.746 5.27841 135.452 3.25977 138.485 3.25977H146.473C149.507 3.25977 151.212 5.27841 151.212 8.31178H151.234ZM143.364 20.1862V10.8378C143.364 10.1145 143.105 9.75829 142.501 9.75829C141.896 9.75829 141.637 10.1037 141.637 10.8378V20.1862C141.637 20.9094 141.896 21.2657 142.501 21.2657C143.105 21.2657 143.364 20.9202 143.364 20.1862Z" fill="black"/>
<path d="M171.663 40.2851C171.663 40.5442 171.458 40.7493 171.199 40.7493H164.355C163.837 40.7493 163.384 40.4039 163.254 39.9073C163.081 39.2164 163.049 38.3636 163.049 37.5972V26.1654C163.049 25.4313 162.779 25.0751 162.185 25.0751C161.592 25.0751 161.322 25.4206 161.322 26.1654V39.6158C161.322 40.2419 160.815 40.7493 160.188 40.7493H154.532C153.906 40.7493 153.398 40.2419 153.398 39.6158V4.42448C153.398 3.79838 153.906 3.29102 154.532 3.29102H160.188C160.815 3.29102 161.322 3.79838 161.322 4.42448V17.4215C161.322 18.1556 161.581 18.5118 162.185 18.5118C162.79 18.5118 163.049 18.1664 163.049 17.4215V4.42448C163.049 3.79838 163.556 3.29102 164.193 3.29102H169.85C170.476 3.29102 170.983 3.79838 170.983 4.42448V16.0722C170.983 18.6198 169.796 20.4549 167.626 20.9946C167.594 20.9946 167.572 21.0162 167.54 21.0162C167.399 21.0594 167.399 21.2537 167.54 21.2969C167.54 21.2969 167.54 21.2969 167.551 21.2969C167.551 21.2969 167.561 21.2969 167.572 21.2969C169.817 21.8151 171.145 23.661 171.145 26.241V37.4892C171.145 38.6659 171.437 39.5403 171.642 40.1016C171.663 40.1556 171.674 40.2096 171.674 40.2743L171.663 40.2851Z" fill="black"/>
<path d="M186.793 35.1803V39.5846C186.793 40.2107 186.286 40.7289 185.649 40.7289H174.929C174.303 40.7289 173.785 40.2215 173.785 39.5846V4.40402C173.785 3.77792 174.293 3.25977 174.929 3.25977H185.541C186.167 3.25977 186.685 3.76713 186.685 4.40402V8.97027C186.685 9.59637 186.178 10.1145 185.541 10.1145H181.719V18.8584H185.379C185.498 18.8584 185.616 18.88 185.724 18.9124C186.188 19.0635 186.512 19.4845 186.512 20.0027V24.5689C186.512 25.0763 186.178 25.508 185.724 25.6592C185.627 25.6916 185.519 25.7132 185.4 25.7132H181.709V34.0684H185.638C186.264 34.0684 186.782 34.5758 186.782 35.2127L186.793 35.1803Z" fill="black"/>
<path d="M207.08 40.0919C207.101 40.1459 207.112 40.1999 207.112 40.2647C207.112 40.5237 206.907 40.7288 206.648 40.7288H199.988C199.459 40.7288 198.984 40.3726 198.854 39.8653C198.681 39.1852 198.606 38.3432 198.606 37.5875V27.0949C198.606 26.5228 198.444 26.1773 198.077 26.0586C197.98 26.0262 197.872 26.0046 197.742 26.0046C197.138 26.0046 196.879 26.35 196.879 27.0949V39.5954C196.879 40.2215 196.371 40.7396 195.734 40.7396H190.078C189.452 40.7396 188.934 40.2323 188.934 39.5954V4.40402C188.934 3.77792 189.441 3.25977 190.078 3.25977H201.92C204.554 3.25977 206.691 5.39716 206.691 8.03111V18.1027C206.691 19.301 206.249 20.3913 205.525 21.2333C204.921 21.9565 204.133 22.4747 203.258 22.7338C203.118 22.7769 203.118 22.982 203.258 23.0144C204.187 23.2411 204.986 23.7917 205.558 24.6013C206.195 25.4649 206.529 26.6199 206.529 27.9693V37.4796C206.529 38.6562 206.81 39.4443 207.069 40.0919H207.08ZM198.606 10.4276C198.606 9.69352 198.347 9.33729 197.742 9.33729C197.138 9.33729 196.879 9.68273 196.879 10.406V18.5345C196.879 19.2686 197.138 19.6248 197.742 19.6248C198.347 19.6248 198.606 19.2794 198.606 18.5561V10.4276Z" fill="black"/>
<path d="M211.287 42.6404C213.594 42.6404 215.465 40.77 215.465 38.4628C215.465 36.1555 213.594 34.2852 211.287 34.2852C208.98 34.2852 207.109 36.1555 207.109 38.4628C207.109 40.77 208.98 42.6404 211.287 42.6404Z" fill="white"/>
<path d="M212.919 36.8314C212.488 36.3996 211.905 36.1621 211.3 36.1621C210.696 36.1621 210.113 36.3996 209.681 36.8314C209.249 37.2632 209.012 37.8461 209.012 38.4506C209.012 39.0551 209.249 39.6381 209.681 40.0699C210.113 40.5017 210.696 40.7391 211.3 40.7391C211.905 40.7391 212.488 40.5017 212.919 40.0699C213.351 39.6381 213.589 39.0551 213.589 38.4506C213.589 37.8461 213.351 37.2632 212.919 36.8314ZM211.289 40.3721C210.232 40.3721 209.368 39.5085 209.368 38.4506C209.368 37.3927 210.232 36.5291 211.289 36.5291C212.347 36.5291 213.211 37.3927 213.211 38.4506C213.211 39.5085 212.347 40.3721 211.289 40.3721Z" fill="black"/>
<path d="M211.82 38.5163C212.122 38.3868 212.263 38.1817 212.263 37.8902C212.263 37.6743 212.166 37.4908 211.971 37.372C211.777 37.2425 211.518 37.1777 211.194 37.1777C210.978 37.1777 210.73 37.1993 210.449 37.2425V39.7469H210.805V38.6458H211.259C211.626 38.6458 211.863 39.0129 211.971 39.7469H212.328C212.263 39.3583 212.198 39.0884 212.122 38.9157C212.047 38.743 211.939 38.6135 211.788 38.5271L211.82 38.5163ZM211.27 38.3544H210.827V37.48C210.924 37.48 211.054 37.4692 211.205 37.4692C211.68 37.4692 211.917 37.6203 211.917 37.9118C211.917 38.2032 211.701 38.3652 211.27 38.3652V38.3544Z" fill="black"/>
</svg>
