<svg width="96" height="116" viewBox="0 0 96 116" fill="none" xmlns="http://www.w3.org/2000/svg">
<path d="M93.4028 2.60547H2.59766V113.394H93.4028V2.60547Z" fill="url(#paint0_linear_292_15458)"/>
<path d="M93.4026 2.60557V113.394H2.5974V2.60557H93.4026ZM96 0H0V116H96V0Z" fill="white"/>
<path d="M88.8588 7.16602H7.14453V108.835H88.8588V7.16602Z" fill="url(#paint1_linear_292_15458)"/>
<path d="M15.9238 69.1774L15.0667 71.314H11.6641L16.4173 58.9375H19.9238L24.5732 71.314H21.1446L20.3394 69.1774H15.9238ZM18.1835 62.7937H18.1576L16.8329 66.7282H19.5082L18.2095 62.7937H18.1835Z" fill="black"/>
<path d="M28.1067 66.9639H28.1327L30.7041 58.9648H33.2495L35.6651 66.9639H35.6911L38.0028 58.9648H41.3275L37.3794 71.3413H34.1067L31.9508 64.176H31.9249L29.5093 71.3413H26.2625L22.5742 58.9648H25.8989L28.0288 66.9639H28.1067Z" fill="black"/>
<path d="M43.3769 69.1774L42.5198 71.314H39.1172L43.8704 58.9375H47.3769L52.0263 71.314H48.5977L47.7925 69.1774H43.3769ZM45.6107 62.7937H45.5847L44.26 66.7282H46.9354L45.6367 62.7937H45.6107Z" fill="black"/>
<path d="M63.2494 71.3413H59.2494L56.2364 66.5731H56.2104V71.3413H53.0156V58.9648H57.7948C60.2364 58.9648 62.0806 60.1374 62.0806 62.769C62.0806 64.4626 61.1195 65.9478 59.3793 66.2604L63.2494 71.3413ZM56.2104 64.5147H56.5221C57.5611 64.5147 58.7559 64.3063 58.7559 62.9774C58.7559 61.6486 57.5871 61.4401 56.5221 61.4401H56.2104V64.5147Z" fill="black"/>
<path d="M64.1328 58.9636H68.6783C72.1068 58.9636 74.938 61.6733 74.938 65.1388C74.938 68.6042 72.0809 71.314 68.6783 71.314H64.1328V58.9375V58.9636ZM67.3276 68.6042H68.0549C69.977 68.6042 71.6133 67.5619 71.6133 65.1388C71.6133 62.924 70.1588 61.6733 68.1068 61.6733H67.3536V68.6042H67.3276Z" fill="black"/>
<path d="M82.546 62.1431C81.9486 61.6481 81.1953 61.3354 80.4161 61.3354C79.8187 61.3354 79.0395 61.6741 79.0395 62.3776C79.0395 63.0811 79.8966 63.3678 80.468 63.5501L81.2732 63.7846C82.9875 64.3058 84.3122 65.1656 84.3122 67.1719C84.3122 68.3965 84.0265 69.6732 83.0395 70.507C82.0784 71.3147 80.7797 71.6795 79.533 71.6795C77.9745 71.6795 76.468 71.1584 75.1953 70.2725L76.5719 67.693C77.3771 68.3965 78.3122 68.9697 79.4291 68.9697C80.1823 68.9697 80.9875 68.605 80.9875 67.7191C80.9875 66.8332 79.7408 66.4944 79.0395 66.3121C77.0395 65.7388 75.7148 65.2177 75.7148 62.8206C75.7148 60.4235 77.507 58.6777 79.9745 58.6777C81.2213 58.6777 82.7278 59.0686 83.8447 59.6939L82.5719 62.1953L82.546 62.1431Z" fill="black"/>
<path d="M84.3369 73.6074H11.6875V75.8743H84.3369V73.6074Z" fill="black"/>
<path d="M84.3369 11.7246H11.6875V13.9915H84.3369V11.7246Z" fill="black"/>
<path d="M17.9224 25.3793H17.9484L20.8835 16.2598H23.7926L26.5458 25.3793H26.5718L29.2211 16.2598H33.0393L28.5458 30.3559H24.8056L22.338 22.1744H22.312L19.5588 30.3559H15.8445L11.6367 16.2598H15.4289L17.8705 25.3793H17.9224Z" fill="black"/>
<path d="M61.118 30.3813H56.5725L53.118 24.9617H53.092V30.3813H49.4297V16.2852H54.8842C57.6635 16.2852 59.7673 17.614 59.7673 20.6365C59.7673 22.5906 58.6764 24.2582 56.7024 24.623L61.118 30.4073V30.3813ZM53.0661 22.5906H53.4297C54.6245 22.5906 55.9751 22.3561 55.9751 20.8188C55.9751 19.2816 54.6245 19.0471 53.4297 19.0471H53.0661V22.5646V22.5906Z" fill="black"/>
<path d="M66.1311 27.2807H70.5207V30.3813H62.4688V16.2852H66.1311V27.2807Z" fill="black"/>
<path d="M71.6875 16.0768H77.0122C81.0122 16.0768 84.3369 19.2035 84.3369 23.2161C84.3369 27.2287 81.0122 30.3554 77.0122 30.3554H71.6875V16.0508V16.0768ZM75.4278 27.2287H76.2589C78.4927 27.2287 80.4148 26.0041 80.4148 23.2161C80.4148 20.6626 78.7265 19.2035 76.3109 19.2035H75.4278V27.2026V27.2287Z" fill="black"/>
<path d="M11.6875 56.6705V32.6211H20.5966C24.8563 32.6211 27.7135 34.2887 27.7135 38.8745C27.7135 41.0371 27.0122 42.8089 25.0641 43.799V43.8511C28.4927 44.294 29.9732 46.6391 29.9732 49.9742C29.9732 55.0029 25.6875 56.6705 21.2979 56.6705H11.6875ZM17.9213 42.0793H18.6226C20.2849 42.0793 21.9992 41.7927 21.9992 39.7604C21.9992 37.5717 20.0511 37.4414 18.3628 37.4414H17.9213V42.1054V42.0793ZM17.9213 51.9023H18.7265C20.5706 51.9023 23.6875 52.0065 23.6875 49.3489C23.6875 46.4567 20.5966 46.7433 18.5706 46.7433H17.9472V51.9023H17.9213Z" fill="black"/>
<path d="M38.1556 37.9365V41.949H45.1946V47.2383H38.1556V51.3812H45.5582V56.6705H31.9219V32.6211H45.5582V37.9104H38.1556V37.9365Z" fill="black"/>
<path d="M54.39 37.9365V41.949H61.429V47.2383H54.39V51.3812H61.7926V56.6705H48.1562V32.6211H61.7926V37.9104H54.39V37.9365Z" fill="black"/>
<path d="M84.3113 56.6705H76.5451L70.649 47.4207H70.597V56.6705H64.3633V32.6211H73.688C78.4152 32.6211 82.0256 34.8879 82.0256 40.0209C82.0256 43.33 80.1815 46.2222 76.7789 46.8214L84.3113 56.6705ZM70.597 43.4082H71.1944C73.2204 43.4082 75.5321 43.0173 75.5321 40.4117C75.5321 37.8062 73.2464 37.4153 71.1944 37.4153H70.597V43.4082Z" fill="black"/>
<path d="M21.4023 78.166H25.8959V79.078H22.3634V81.6575H25.792V82.5694H22.3634V85.9827H25.8959V86.8947H21.4023V78.1921V78.166Z" fill="black"/>
<path d="M27.6094 77.8027L34.3626 84.9159V78.1675H35.3237V87.261L28.5704 80.1738V86.8701H27.6094V77.8027Z" fill="black"/>
<path d="M45.2224 82.4913C45.2224 83.6639 45.1185 84.6279 44.3133 85.5659C43.5081 86.5039 42.3133 87.025 41.0925 87.025C38.651 87.025 36.625 84.9927 36.625 82.5435C36.625 80.0942 38.651 78.0098 41.1445 78.0098C42.651 78.0098 43.8977 78.6872 44.8068 79.8858L44.1055 80.5372C43.3782 79.521 42.3912 78.8957 41.1185 78.8957C39.1445 78.8957 37.586 80.5632 37.586 82.5435C37.586 83.4554 37.9497 84.3413 38.599 84.9927C39.2224 85.618 40.1575 86.1131 41.0666 86.1131C42.5731 86.1131 44.1575 84.9927 44.1575 83.3772H41.586V82.4653H45.1964L45.2224 82.4913Z" fill="black"/>
<path d="M47.5587 85.984H49.9483V86.896H46.5977V78.1934H47.5587V85.984Z" fill="black"/>
<path d="M52.2094 84.3942L51.1704 86.8695H50.1055L54.1055 77.75L58.0016 86.8695H56.9366L55.9236 84.3942H52.2094ZM54.0795 80.0168L52.599 83.5083H55.534L54.0795 80.0168Z" fill="black"/>
<path d="M58.9883 77.8027L65.7415 84.9159V78.1675H66.7026V87.261L59.9493 80.1738V86.8701H58.9883V77.8027Z" fill="black"/>
<path d="M68.5195 78.1667H70.1559C71.4546 78.1667 72.5195 78.3491 73.5325 79.2089C74.5195 80.0687 74.9611 81.2413 74.9611 82.518C74.9611 83.7947 74.4936 84.9151 73.5585 85.7489C72.5195 86.6608 71.4806 86.8432 70.1299 86.8432H68.5195V78.1406V78.1667ZM70.2078 85.9834C71.2728 85.9834 72.1559 85.8271 72.9351 85.0714C73.6364 84.394 74.026 83.482 74.026 82.518C74.026 81.5539 73.6364 80.5638 72.9091 79.9124C72.1039 79.2089 71.2468 79.0786 70.2078 79.0786H69.5065V85.9834H70.2078Z" fill="black"/>
<path d="M11.6875 89.1621H14.155C16.8823 89.1621 19.168 90.1522 19.168 93.2529C19.168 94.4775 18.7005 95.5197 17.6875 96.1971C19.4797 96.6401 20.5446 98.2556 20.5446 100.053C20.5446 103.05 18.1291 104.248 15.168 104.248H11.6875V89.1621ZM13.3498 95.8063H13.9992C15.8953 95.8063 17.5057 95.5979 17.5057 93.2529C17.5057 90.9078 16.0771 90.7254 14.0252 90.7254H13.3758V95.8063H13.3498ZM13.3498 102.685H15.0122C16.8823 102.685 18.8563 102.216 18.8563 99.9231C18.8563 97.6302 16.6226 97.2394 14.7784 97.2394H13.3239V102.685H13.3498Z" fill="black"/>
<path d="M23.8694 104.248H22.207V89.1621H24.3888C27.246 89.1621 29.8953 89.9177 29.8953 93.331C29.8953 95.65 28.4408 97.2915 26.1291 97.4999L30.9083 104.248H28.8564L24.3109 97.6302H23.8953V104.248H23.8694ZM23.8694 96.145H24.3888C26.285 96.145 28.207 95.7803 28.207 93.4352C28.207 90.96 26.3889 90.7254 24.3888 90.7254H23.8953V96.145H23.8694Z" fill="black"/>
<path d="M47.1414 96.7444C47.1414 101.096 43.583 104.535 39.2973 104.535C35.0116 104.535 31.4531 101.096 31.4531 96.7444C31.4531 92.3931 35.0116 88.9277 39.2973 88.9277C43.583 88.9277 47.1414 92.4192 47.1414 96.7444ZM33.1414 96.7184C33.1414 100.132 35.8947 102.972 39.2973 102.972C42.6999 102.972 45.4531 100.132 45.4531 96.7184C45.4531 93.3051 42.7518 90.465 39.2973 90.465C35.8427 90.465 33.1414 93.279 33.1414 96.7184Z" fill="black"/>
<path d="M48.6992 88.5371L60.4135 100.861V89.1885H62.0758V104.952L50.3616 92.6539V104.275H48.6992V88.5632V88.5371Z" fill="black"/>
<path d="M74.3613 102.685V104.248H63.582L71.7898 90.7254H64.621V89.1621H74.569L66.3613 102.685H74.3613Z" fill="black"/>
<path d="M76.5195 89.1621H84.3117V90.7254H78.1819V95.207H84.1299V96.7704H78.1819V102.685H84.3117V104.248H76.5195V89.1621Z" fill="black"/>
<path d="M40.2336 15.7109C36.1817 15.7109 32.4414 18.7073 32.4414 22.9805C32.4414 27.5663 35.7141 30.7972 40.2336 30.7972C44.7531 30.7972 48.0258 27.5663 48.0258 22.9805C48.0258 18.7073 44.2856 15.7109 40.2336 15.7109ZM39.9998 26.7846H34.3375L36.0778 24.9607C36.5453 24.4917 36.9089 24.0748 37.1687 23.7361C37.4284 23.3974 37.6362 23.1108 37.7401 22.8763C37.87 22.6418 37.9479 22.4594 37.9739 22.303C37.9998 22.1467 38.0258 22.0425 38.0258 21.9383C38.0258 21.834 38.0258 21.7298 37.9739 21.6256C37.9479 21.5214 37.896 21.4432 37.818 21.365C37.7401 21.2869 37.6622 21.2347 37.5583 21.1826C37.4544 21.1305 37.3505 21.1045 37.2206 21.1045C36.9609 21.1045 36.7791 21.1826 36.6492 21.339C36.5193 21.4953 36.4414 21.7037 36.4414 21.9383C36.4414 22.0164 36.4414 22.0946 36.4674 22.2509H34.4674C34.4674 21.834 34.5453 21.4692 34.6752 21.1305C34.805 20.7918 34.9869 20.5052 35.2466 20.2707C35.4804 20.0362 35.7661 19.8277 36.1037 19.6975C36.4414 19.5672 36.805 19.489 37.1947 19.489C37.5843 19.489 37.9479 19.5411 38.2856 19.6714C38.6232 19.8017 38.9089 19.9841 39.1427 20.1925C39.3765 20.427 39.5843 20.6876 39.7141 21.0002C39.844 21.3129 39.9219 21.6516 39.9219 22.0164C39.9219 22.4073 39.844 22.772 39.6622 23.0847C39.5063 23.4234 39.2466 23.7361 38.883 24.1009L37.7141 25.1952H39.9998V26.7586V26.7846ZM45.3505 26.3156C45.1167 26.5241 44.805 26.6804 44.4674 26.7846C44.1297 26.8888 43.7661 26.9409 43.3505 26.9409C42.805 26.9409 42.3115 26.8367 41.896 26.6283C41.4544 26.4198 41.1167 26.0811 40.857 25.6121C40.7271 25.4037 40.6492 25.1952 40.6232 24.9868C40.5713 24.7783 40.5713 24.5699 40.5713 24.3614H42.3895C42.3895 24.7002 42.4934 24.9347 42.6752 25.117C42.857 25.2994 43.0908 25.3776 43.4024 25.3776C43.7141 25.3776 43.9739 25.2994 44.1037 25.117C44.2596 24.9347 44.3375 24.7262 44.3375 24.4657C44.3375 24.153 44.2596 23.9185 44.0778 23.7621C43.896 23.6058 43.6882 23.5276 43.4284 23.5276C43.3765 23.5276 43.2985 23.5276 43.2466 23.5276C43.1947 23.5276 43.1167 23.5276 43.0648 23.5537V22.4073C43.0648 22.4073 43.1687 22.4073 43.1947 22.4073H43.2726C43.5063 22.4073 43.6882 22.3291 43.844 22.1988C43.9998 22.0685 44.0518 21.8861 44.0518 21.6516C44.0518 21.4171 43.9739 21.2608 43.844 21.1305C43.7141 21.0002 43.5323 20.9221 43.3245 20.9221C43.0908 20.9221 42.9089 21.0002 42.7791 21.1566C42.6492 21.3129 42.5713 21.4953 42.5713 21.7298H40.883C40.9349 21.365 41.0128 21.0263 41.1687 20.7397C41.2986 20.4531 41.4804 20.2186 41.7141 20.0101C41.9219 19.8017 42.1817 19.6714 42.4934 19.5672C42.7791 19.463 43.1167 19.4108 43.4544 19.4108C43.7921 19.4108 44.1297 19.463 44.4154 19.5672C44.7011 19.6714 44.9349 19.8017 45.1427 19.9841C45.3505 20.1665 45.5063 20.3749 45.6102 20.6355C45.7141 20.896 45.7661 21.1826 45.7661 21.4953C45.7661 21.834 45.7141 22.1206 45.5843 22.3291C45.4544 22.5375 45.2726 22.7199 45.0388 22.8763C45.4024 22.9805 45.6882 23.1889 45.896 23.4755C46.1037 23.7622 46.2076 24.1269 46.2076 24.5438C46.2076 24.8825 46.1297 25.2213 45.9998 25.5079C45.87 25.7945 45.6622 26.0551 45.4284 26.2374L45.3505 26.3156Z" fill="black"/>
<defs>
<linearGradient id="paint0_linear_292_15458" x1="5.24701" y1="-0.000102508" x2="90.7619" y2="115.3" gradientUnits="userSpaceOnUse">
<stop offset="0.07" stop-color="#FCB873"/>
<stop offset="0.16" stop-color="white"/>
<stop offset="0.39" stop-color="#E1863D"/>
<stop offset="0.53" stop-color="#AE6D2E"/>
<stop offset="0.71" stop-color="#E1863D"/>
<stop offset="0.84" stop-color="white"/>
<stop offset="1" stop-color="#FCB873"/>
</linearGradient>
<linearGradient id="paint1_linear_292_15458" x1="9.50817" y1="4.84706" x2="86.2642" y2="110.17" gradientUnits="userSpaceOnUse">
<stop stop-color="#AE6D2E"/>
<stop offset="0.1" stop-color="#FCB873"/>
<stop offset="0.26" stop-color="white"/>
<stop offset="0.35" stop-color="#FCB873"/>
<stop offset="0.49" stop-color="#E1863D"/>
<stop offset="0.75" stop-color="white"/>
<stop offset="1" stop-color="#AE6D2E"/>
</linearGradient>
</defs>
</svg>
