<svg width="1047" height="91" viewBox="0 0 1047 91" fill="none" xmlns="http://www.w3.org/2000/svg">
<path d="M991.762 0.329102H1016.26V90.2091H991.762V0.329102ZM1041.6 36.1691V53.6691H1002.26V36.1691H1041.6ZM1045.66 0.329102V17.8291H1000.44V0.329102H1045.66ZM1046.92 72.7091V90.2091H1000.44V72.7091H1046.92Z" fill="#FF9900"/>
<path d="M956.443 37.8491V19.5091C956.443 18.4824 956.162 17.7358 955.602 17.2691C955.042 16.7091 954.156 16.4291 952.943 16.4291H927.182V0.329102H960.362C967.829 0.329102 973.102 1.91577 976.182 5.0891C979.356 8.26243 980.943 12.4624 980.943 17.6891V37.8491H956.443ZM956.443 71.0291V36.0291H980.943V72.8491C980.943 78.0758 979.356 82.2758 976.182 85.4491C973.102 88.6224 967.829 90.2091 960.362 90.2091H927.182V74.1091H952.943C954.156 74.1091 955.042 73.8758 955.602 73.4091C956.162 72.8491 956.443 72.0558 956.443 71.0291ZM919.062 0.329102H943.562V90.2091H919.062V0.329102Z" fill="#FF9900"/>
<path d="M882.435 37.8491V20.9091C882.435 19.8824 882.155 19.1358 881.595 18.6691C881.035 18.1091 880.148 17.8291 878.935 17.8291H874.315V0.329102H886.355C893.821 0.329102 899.095 1.91577 902.175 5.0891C905.348 8.26243 906.935 12.4624 906.935 17.6891V37.8491H882.435ZM882.435 69.6291V36.0291H906.935V72.8491C906.935 78.0758 905.348 82.2758 902.175 85.4491C899.095 88.6224 893.821 90.2091 886.355 90.2091H874.315V72.7091H878.935C880.148 72.7091 881.035 72.4758 881.595 72.0091C882.155 71.4491 882.435 70.6558 882.435 69.6291ZM869.555 20.9091V37.8491H845.055V17.6891C845.055 12.4624 846.595 8.26243 849.675 5.0891C852.848 1.91577 858.168 0.329102 865.635 0.329102H877.675V17.8291H873.055C871.841 17.8291 870.955 18.1091 870.395 18.6691C869.835 19.1358 869.555 19.8824 869.555 20.9091ZM869.555 36.0291V69.6291C869.555 70.6558 869.835 71.4491 870.395 72.0091C870.955 72.4758 871.841 72.7091 873.055 72.7091H877.675V90.2091H865.635C858.168 90.2091 852.848 88.6224 849.675 85.4491C846.595 82.2758 845.055 78.0758 845.055 72.8491V36.0291H869.555Z" fill="#FF9900"/>
<path d="M799.957 19.5091V71.0291C799.957 72.0558 800.237 72.8491 800.797 73.4091C801.357 73.8758 802.244 74.1091 803.457 74.1091H807.097V90.2091H796.037C788.57 90.2091 783.25 88.6224 780.077 85.4491C776.997 82.2758 775.457 78.0758 775.457 72.8491V17.6891C775.457 12.4624 776.997 8.26243 780.077 5.0891C783.25 1.91577 788.57 0.329102 796.037 0.329102H807.097V16.4291H803.457C802.244 16.4291 801.357 16.7091 800.797 17.2691C800.237 17.7358 799.957 18.4824 799.957 19.5091ZM811.857 33.9291V19.5091C811.857 18.4824 811.577 17.7358 811.017 17.2691C810.457 16.7091 809.57 16.4291 808.357 16.4291H804.717V0.329102H815.777C823.244 0.329102 828.517 1.91577 831.597 5.0891C834.77 8.26243 836.357 12.4624 836.357 17.6891V33.9291H811.857ZM811.857 71.0291V57.1691H836.357V72.8491C836.357 78.0758 834.77 82.2758 831.597 85.4491C828.517 88.6224 823.244 90.2091 815.777 90.2091H804.717V74.1091H808.357C809.57 74.1091 810.457 73.8758 811.017 73.4091C811.577 72.8491 811.857 72.0558 811.857 71.0291Z" fill="#FF9900"/>
<path d="M690.16 0.329102H714.66V90.2091H690.16V0.329102ZM698.28 90.2091V72.7091H742.52V90.2091H698.28Z" fill="#FF9900"/>
<path d="M669.167 59.4091V76.7691H624.227V59.4091H669.167ZM684.567 90.2091H659.927L646.487 27.0691L632.627 90.2091H608.547L631.647 0.329102H661.467L684.567 90.2091Z" fill="#FF9900"/>
<path d="M568.629 19.5091V71.0291C568.629 72.0558 568.909 72.8491 569.469 73.4091C570.029 73.8758 570.916 74.1091 572.129 74.1091H575.769V90.2091H564.709C557.242 90.2091 551.922 88.6224 548.749 85.4491C545.669 82.2758 544.129 78.0758 544.129 72.8491V17.6891C544.129 12.4624 545.669 8.26243 548.749 5.0891C551.922 1.91577 557.242 0.329102 564.709 0.329102H575.769V16.4291H572.129C570.916 16.4291 570.029 16.7091 569.469 17.2691C568.909 17.7358 568.629 18.4824 568.629 19.5091ZM580.529 33.9291V19.5091C580.529 18.4824 580.249 17.7358 579.689 17.2691C579.129 16.7091 578.242 16.4291 577.029 16.4291H573.389V0.329102H584.449C591.916 0.329102 597.189 1.91577 600.269 5.0891C603.442 8.26243 605.029 12.4624 605.029 17.6891V33.9291H580.529ZM580.529 71.0291V57.1691H605.029V72.8491C605.029 78.0758 603.442 82.2758 600.269 85.4491C597.189 88.6224 591.916 90.2091 584.449 90.2091H573.389V74.1091H577.029C578.242 74.1091 579.129 73.8758 579.689 73.4091C580.249 72.8491 580.529 72.0558 580.529 71.0291Z" fill="#FF9900"/>
<path d="M509.145 0.329102H533.645V90.2091H509.145V0.329102Z" fill="#FF9900"/>
<path d="M476.258 40.2291V20.9091C476.258 19.8824 475.978 19.1358 475.418 18.6691C474.858 18.1091 473.971 17.8291 472.758 17.8291H446.718V0.329102H480.178C487.644 0.329102 492.918 1.91577 495.998 5.0891C499.171 8.26243 500.758 12.4624 500.758 17.6891V43.4491C500.758 48.6758 499.171 52.8758 495.998 56.0491C492.918 59.2224 487.644 60.8091 480.178 60.8091H446.718V43.3091H472.758C473.971 43.3091 474.858 43.0758 475.418 42.6091C475.978 42.0491 476.258 41.2558 476.258 40.2291ZM438.598 0.329102H463.098V90.2091H438.598V0.329102Z" fill="#FF9900"/>
<path d="M403.372 37.8491V20.9091C403.372 19.8824 403.092 19.1358 402.532 18.6691C401.972 18.1091 401.086 17.8291 399.872 17.8291H395.252V0.329102H407.292C414.759 0.329102 420.032 1.91577 423.112 5.0891C426.286 8.26243 427.872 12.4624 427.872 17.6891V37.8491H403.372ZM403.372 69.6291V36.0291H427.872V72.8491C427.872 78.0758 426.286 82.2758 423.112 85.4491C420.032 88.6224 414.759 90.2091 407.292 90.2091H395.252V72.7091H399.872C401.086 72.7091 401.972 72.4758 402.532 72.0091C403.092 71.4491 403.372 70.6558 403.372 69.6291ZM390.492 20.9091V37.8491H365.992V17.6891C365.992 12.4624 367.532 8.26243 370.612 5.0891C373.786 1.91577 379.106 0.329102 386.572 0.329102H398.612V17.8291H393.992C392.779 17.8291 391.892 18.1091 391.332 18.6691C390.772 19.1358 390.492 19.8824 390.492 20.9091ZM390.492 36.0291V69.6291C390.492 70.6558 390.772 71.4491 391.332 72.0091C391.892 72.4758 392.779 72.7091 393.992 72.7091H398.612V90.2091H386.572C379.106 90.2091 373.786 88.6224 370.612 85.4491C367.532 82.2758 365.992 78.0758 365.992 72.8491V36.0291H390.492Z" fill="#FF9900"/>
<path d="M332.156 38.5491V20.9091C332.156 19.8824 331.876 19.1358 331.316 18.6691C330.756 18.1091 329.869 17.8291 328.656 17.8291H302.616V0.329102H336.076C343.543 0.329102 348.816 1.91577 351.896 5.0891C355.069 8.26243 356.656 12.4624 356.656 17.6891V40.9291C356.656 46.1558 355.069 50.3558 351.896 53.5291C348.816 56.7024 343.543 58.2891 336.076 58.2891H302.616V41.6291H328.656C329.869 41.6291 330.756 41.3958 331.316 40.9291C331.876 40.3691 332.156 39.5758 332.156 38.5491ZM294.496 0.329102H318.996V90.2091H294.496V0.329102ZM316.196 48.4891H340.136L361.136 90.2091H334.816L316.196 48.4891Z" fill="#FF9900"/>
<path d="M246.388 8.7291H270.888V90.2091H246.388V8.7291ZM288.248 0.329102V17.8291H229.168V0.329102H288.248Z" fill="#FF9900"/>
<path d="M143.148 0.329102H167.648V90.2091H143.148V0.329102ZM192.988 36.1691V53.6691H153.648V36.1691H192.988ZM197.048 0.329102V17.8291H151.828V0.329102H197.048ZM198.308 72.7091V90.2091H151.828V72.7091H198.308Z" fill="#FF9900"/>
<path d="M110.976 37.1491V54.6491H85.7758V37.1491H110.976ZM66.1758 0.329102H90.2558V90.2091H66.1758V0.329102ZM107.896 0.329102H131.976V90.2091H107.896V0.329102Z" fill="#FF9900"/>
<path d="M18.0677 8.7291H42.5677V90.2091H18.0677V8.7291ZM59.9277 0.329102V17.8291H0.847656V0.329102H59.9277Z" fill="#FF9900"/>
</svg>
