<svg width="1047" height="91" viewBox="0 0 1047 91" fill="none" xmlns="http://www.w3.org/2000/svg">
<path d="M991.477 0.913086H1015.98V90.7931H991.477V0.913086ZM1041.32 36.7531V54.2531H1001.98V36.7531H1041.32ZM1045.38 0.913086V18.4131H1000.16V0.913086H1045.38ZM1046.64 73.2931V90.7931H1000.16V73.2931H1046.64Z" fill="#FF9900"/>
<path d="M956.157 38.4331V20.0931C956.157 19.0664 955.877 18.3198 955.317 17.8531C954.757 17.2931 953.871 17.0131 952.657 17.0131H926.897V0.913086H960.077C967.544 0.913086 972.817 2.49975 975.897 5.67308C979.071 8.84642 980.657 13.0464 980.657 18.2731V38.4331H956.157ZM956.157 71.6131V36.6131H980.657V73.4331C980.657 78.6598 979.071 82.8598 975.897 86.0331C972.817 89.2064 967.544 90.7931 960.077 90.7931H926.897V74.6931H952.657C953.871 74.6931 954.757 74.4598 955.317 73.9931C955.877 73.4331 956.157 72.6398 956.157 71.6131ZM918.777 0.913086H943.277V90.7931H918.777V0.913086Z" fill="#FF9900"/>
<path d="M882.15 38.4331V21.4931C882.15 20.4664 881.87 19.7197 881.31 19.2531C880.75 18.6931 879.863 18.4131 878.65 18.4131H874.03V0.913086H886.07C893.536 0.913086 898.81 2.49975 901.89 5.67308C905.063 8.84642 906.65 13.0464 906.65 18.2731V38.4331H882.15ZM882.15 70.2131V36.6131H906.65V73.4331C906.65 78.6598 905.063 82.8598 901.89 86.0331C898.81 89.2064 893.536 90.7931 886.07 90.7931H874.03V73.2931H878.65C879.863 73.2931 880.75 73.0598 881.31 72.5931C881.87 72.0331 882.15 71.2398 882.15 70.2131ZM869.27 21.4931V38.4331H844.77V18.2731C844.77 13.0464 846.31 8.84642 849.39 5.67308C852.563 2.49975 857.883 0.913086 865.35 0.913086H877.39V18.4131H872.77C871.556 18.4131 870.67 18.6931 870.11 19.2531C869.55 19.7197 869.27 20.4664 869.27 21.4931ZM869.27 36.6131V70.2131C869.27 71.2398 869.55 72.0331 870.11 72.5931C870.67 73.0598 871.556 73.2931 872.77 73.2931H877.39V90.7931H865.35C857.883 90.7931 852.563 89.2064 849.39 86.0331C846.31 82.8598 844.77 78.6598 844.77 73.4331V36.6131H869.27Z" fill="#FF9900"/>
<path d="M799.672 20.0931V71.6131C799.672 72.6398 799.952 73.4331 800.512 73.9931C801.072 74.4598 801.959 74.6931 803.172 74.6931H806.812V90.7931H795.752C788.285 90.7931 782.965 89.2064 779.792 86.0331C776.712 82.8598 775.172 78.6598 775.172 73.4331V18.2731C775.172 13.0464 776.712 8.84642 779.792 5.67308C782.965 2.49975 788.285 0.913086 795.752 0.913086H806.812V17.0131H803.172C801.959 17.0131 801.072 17.2931 800.512 17.8531C799.952 18.3198 799.672 19.0664 799.672 20.0931ZM811.572 34.5131V20.0931C811.572 19.0664 811.292 18.3198 810.732 17.8531C810.172 17.2931 809.285 17.0131 808.072 17.0131H804.432V0.913086H815.492C822.959 0.913086 828.232 2.49975 831.312 5.67308C834.485 8.84642 836.072 13.0464 836.072 18.2731V34.5131H811.572ZM811.572 71.6131V57.7531H836.072V73.4331C836.072 78.6598 834.485 82.8598 831.312 86.0331C828.232 89.2064 822.959 90.7931 815.492 90.7931H804.432V74.6931H808.072C809.285 74.6931 810.172 74.4598 810.732 73.9931C811.292 73.4331 811.572 72.6398 811.572 71.6131Z" fill="#FF9900"/>
<path d="M689.875 0.913086H714.375V90.7931H689.875V0.913086ZM697.995 90.7931V73.2931H742.235V90.7931H697.995Z" fill="#FF9900"/>
<path d="M668.882 59.9931V77.3531H623.942V59.9931H668.882ZM684.282 90.7931H659.642L646.202 27.6531L632.342 90.7931H608.262L631.362 0.913086H661.182L684.282 90.7931Z" fill="#FF9900"/>
<path d="M568.344 20.0931V71.6131C568.344 72.6398 568.624 73.4331 569.184 73.9931C569.744 74.4598 570.63 74.6931 571.844 74.6931H575.484V90.7931H564.424C556.957 90.7931 551.637 89.2064 548.464 86.0331C545.384 82.8598 543.844 78.6598 543.844 73.4331V18.2731C543.844 13.0464 545.384 8.84642 548.464 5.67308C551.637 2.49975 556.957 0.913086 564.424 0.913086H575.484V17.0131H571.844C570.63 17.0131 569.744 17.2931 569.184 17.8531C568.624 18.3198 568.344 19.0664 568.344 20.0931ZM580.244 34.5131V20.0931C580.244 19.0664 579.964 18.3198 579.404 17.8531C578.844 17.2931 577.957 17.0131 576.744 17.0131H573.104V0.913086H584.164C591.63 0.913086 596.904 2.49975 599.984 5.67308C603.157 8.84642 604.744 13.0464 604.744 18.2731V34.5131H580.244ZM580.244 71.6131V57.7531H604.744V73.4331C604.744 78.6598 603.157 82.8598 599.984 86.0331C596.904 89.2064 591.63 90.7931 584.164 90.7931H573.104V74.6931H576.744C577.957 74.6931 578.844 74.4598 579.404 73.9931C579.964 73.4331 580.244 72.6398 580.244 71.6131Z" fill="#FF9900"/>
<path d="M508.859 0.913086H533.359V90.7931H508.859V0.913086Z" fill="#FF9900"/>
<path d="M475.973 40.8131V21.4931C475.973 20.4664 475.693 19.7197 475.133 19.2531C474.573 18.6931 473.686 18.4131 472.473 18.4131H446.432V0.913086H479.892C487.359 0.913086 492.632 2.49975 495.712 5.67308C498.886 8.84642 500.473 13.0464 500.473 18.2731V44.0331C500.473 49.2598 498.886 53.4598 495.712 56.6331C492.632 59.8064 487.359 61.3931 479.892 61.3931H446.432V43.8931H472.473C473.686 43.8931 474.573 43.6598 475.133 43.1931C475.693 42.6331 475.973 41.8398 475.973 40.8131ZM438.312 0.913086H462.812V90.7931H438.312V0.913086Z" fill="#FF9900"/>
<path d="M403.087 38.4331V21.4931C403.087 20.4664 402.807 19.7197 402.247 19.2531C401.687 18.6931 400.8 18.4131 399.587 18.4131H394.967V0.913086H407.007C414.474 0.913086 419.747 2.49975 422.827 5.67308C426 8.84642 427.587 13.0464 427.587 18.2731V38.4331H403.087ZM403.087 70.2131V36.6131H427.587V73.4331C427.587 78.6598 426 82.8598 422.827 86.0331C419.747 89.2064 414.474 90.7931 407.007 90.7931H394.967V73.2931H399.587C400.8 73.2931 401.687 73.0598 402.247 72.5931C402.807 72.0331 403.087 71.2398 403.087 70.2131ZM390.207 21.4931V38.4331H365.707V18.2731C365.707 13.0464 367.247 8.84642 370.327 5.67308C373.5 2.49975 378.82 0.913086 386.287 0.913086H398.327V18.4131H393.707C392.494 18.4131 391.607 18.6931 391.047 19.2531C390.487 19.7197 390.207 20.4664 390.207 21.4931ZM390.207 36.6131V70.2131C390.207 71.2398 390.487 72.0331 391.047 72.5931C391.607 73.0598 392.494 73.2931 393.707 73.2931H398.327V90.7931H386.287C378.82 90.7931 373.5 89.2064 370.327 86.0331C367.247 82.8598 365.707 78.6598 365.707 73.4331V36.6131H390.207Z" fill="#FF9900"/>
<path d="M331.871 39.1331V21.4931C331.871 20.4664 331.591 19.7197 331.031 19.2531C330.471 18.6931 329.584 18.4131 328.371 18.4131H302.331V0.913086H335.791C343.258 0.913086 348.531 2.49975 351.611 5.67308C354.784 8.84642 356.371 13.0464 356.371 18.2731V41.5131C356.371 46.7398 354.784 50.9398 351.611 54.1131C348.531 57.2864 343.258 58.8731 335.791 58.8731H302.331V42.2131H328.371C329.584 42.2131 330.471 41.9798 331.031 41.5131C331.591 40.9531 331.871 40.1598 331.871 39.1331ZM294.211 0.913086H318.711V90.7931H294.211V0.913086ZM315.911 49.0731H339.851L360.851 90.7931H334.531L315.911 49.0731Z" fill="#FF9900"/>
<path d="M246.103 9.31309H270.603V90.7931H246.103V9.31309ZM287.963 0.913086V18.4131H228.883V0.913086H287.963Z" fill="#FF9900"/>
<path d="M142.863 0.913086H167.363V90.7931H142.863V0.913086ZM192.703 36.7531V54.2531H153.363V36.7531H192.703ZM196.763 0.913086V18.4131H151.543V0.913086H196.763ZM198.023 73.2931V90.7931H151.543V73.2931H198.023Z" fill="#FF9900"/>
<path d="M110.691 37.7331V55.2331H85.4906V37.7331H110.691ZM65.8906 0.913086H89.9706V90.7931H65.8906V0.913086ZM107.611 0.913086H131.691V90.7931H107.611V0.913086Z" fill="#FF9900"/>
<path d="M17.7825 9.31309H42.2825V90.7931H17.7825V9.31309ZM59.6425 0.913086V18.4131H0.5625V0.913086H59.6425Z" fill="#FF9900"/>
</svg>
