<svg width="1047" height="91" viewBox="0 0 1047 91" fill="none" xmlns="http://www.w3.org/2000/svg">
<path d="M991.195 0.329102H1015.7V90.2091H991.195V0.329102ZM1041.04 36.1691V53.6691H1001.7V36.1691H1041.04ZM1045.1 0.329102V17.8291H999.875V0.329102H1045.1ZM1046.36 72.7091V90.2091H999.875V72.7091H1046.36Z" fill="#FF9900"/>
<path d="M955.876 37.8491V19.5091C955.876 18.4824 955.596 17.7358 955.036 17.2691C954.476 16.7091 953.589 16.4291 952.376 16.4291H926.616V0.329102H959.796C967.263 0.329102 972.536 1.91577 975.616 5.0891C978.789 8.26243 980.376 12.4624 980.376 17.6891V37.8491H955.876ZM955.876 71.0291V36.0291H980.376V72.8491C980.376 78.0758 978.789 82.2758 975.616 85.4491C972.536 88.6224 967.263 90.2091 959.796 90.2091H926.616V74.1091H952.376C953.589 74.1091 954.476 73.8758 955.036 73.4091C955.596 72.8491 955.876 72.0558 955.876 71.0291ZM918.496 0.329102H942.996V90.2091H918.496V0.329102Z" fill="#FF9900"/>
<path d="M881.868 37.8491V20.9091C881.868 19.8824 881.588 19.1358 881.028 18.6691C880.468 18.1091 879.582 17.8291 878.368 17.8291H873.748V0.329102H885.788C893.255 0.329102 898.528 1.91577 901.608 5.0891C904.782 8.26243 906.368 12.4624 906.368 17.6891V37.8491H881.868ZM881.868 69.6291V36.0291H906.368V72.8491C906.368 78.0758 904.782 82.2758 901.608 85.4491C898.528 88.6224 893.255 90.2091 885.788 90.2091H873.748V72.7091H878.368C879.582 72.7091 880.468 72.4758 881.028 72.0091C881.588 71.4491 881.868 70.6558 881.868 69.6291ZM868.988 20.9091V37.8491H844.488V17.6891C844.488 12.4624 846.028 8.26243 849.108 5.0891C852.282 1.91577 857.602 0.329102 865.068 0.329102H877.108V17.8291H872.488C871.275 17.8291 870.388 18.1091 869.828 18.6691C869.268 19.1358 868.988 19.8824 868.988 20.9091ZM868.988 36.0291V69.6291C868.988 70.6558 869.268 71.4491 869.828 72.0091C870.388 72.4758 871.275 72.7091 872.488 72.7091H877.108V90.2091H865.068C857.602 90.2091 852.282 88.6224 849.108 85.4491C846.028 82.2758 844.488 78.0758 844.488 72.8491V36.0291H868.988Z" fill="#FF9900"/>
<path d="M799.391 19.5091V71.0291C799.391 72.0558 799.671 72.8491 800.231 73.4091C800.791 73.8758 801.677 74.1091 802.891 74.1091H806.531V90.2091H795.471C788.004 90.2091 782.684 88.6224 779.511 85.4491C776.431 82.2758 774.891 78.0758 774.891 72.8491V17.6891C774.891 12.4624 776.431 8.26243 779.511 5.0891C782.684 1.91577 788.004 0.329102 795.471 0.329102H806.531V16.4291H802.891C801.677 16.4291 800.791 16.7091 800.231 17.2691C799.671 17.7358 799.391 18.4824 799.391 19.5091ZM811.291 33.9291V19.5091C811.291 18.4824 811.011 17.7358 810.451 17.2691C809.891 16.7091 809.004 16.4291 807.791 16.4291H804.151V0.329102H815.211C822.677 0.329102 827.951 1.91577 831.031 5.0891C834.204 8.26243 835.791 12.4624 835.791 17.6891V33.9291H811.291ZM811.291 71.0291V57.1691H835.791V72.8491C835.791 78.0758 834.204 82.2758 831.031 85.4491C827.951 88.6224 822.677 90.2091 815.211 90.2091H804.151V74.1091H807.791C809.004 74.1091 809.891 73.8758 810.451 73.4091C811.011 72.8491 811.291 72.0558 811.291 71.0291Z" fill="#FF9900"/>
<path d="M689.594 0.329102H714.094V90.2091H689.594V0.329102ZM697.714 90.2091V72.7091H741.954V90.2091H697.714Z" fill="#FF9900"/>
<path d="M668.6 59.4091V76.7691H623.66V59.4091H668.6ZM684 90.2091H659.36L645.92 27.0691L632.06 90.2091H607.98L631.08 0.329102H660.9L684 90.2091Z" fill="#FF9900"/>
<path d="M568.062 19.5091V71.0291C568.062 72.0558 568.342 72.8491 568.902 73.4091C569.462 73.8758 570.349 74.1091 571.562 74.1091H575.202V90.2091H564.142C556.676 90.2091 551.356 88.6224 548.182 85.4491C545.102 82.2758 543.562 78.0758 543.562 72.8491V17.6891C543.562 12.4624 545.102 8.26243 548.182 5.0891C551.356 1.91577 556.676 0.329102 564.142 0.329102H575.202V16.4291H571.562C570.349 16.4291 569.462 16.7091 568.902 17.2691C568.342 17.7358 568.062 18.4824 568.062 19.5091ZM579.962 33.9291V19.5091C579.962 18.4824 579.682 17.7358 579.122 17.2691C578.562 16.7091 577.676 16.4291 576.462 16.4291H572.822V0.329102H583.883C591.349 0.329102 596.622 1.91577 599.702 5.0891C602.876 8.26243 604.462 12.4624 604.462 17.6891V33.9291H579.962ZM579.962 71.0291V57.1691H604.462V72.8491C604.462 78.0758 602.876 82.2758 599.702 85.4491C596.622 88.6224 591.349 90.2091 583.883 90.2091H572.822V74.1091H576.462C577.676 74.1091 578.562 73.8758 579.122 73.4091C579.682 72.8491 579.962 72.0558 579.962 71.0291Z" fill="#FF9900"/>
<path d="M508.578 0.329102H533.078V90.2091H508.578V0.329102Z" fill="#FF9900"/>
<path d="M475.691 40.2291V20.9091C475.691 19.8824 475.411 19.1358 474.851 18.6691C474.291 18.1091 473.405 17.8291 472.191 17.8291H446.151V0.329102H479.611C487.078 0.329102 492.351 1.91577 495.431 5.0891C498.605 8.26243 500.191 12.4624 500.191 17.6891V43.4491C500.191 48.6758 498.605 52.8758 495.431 56.0491C492.351 59.2224 487.078 60.8091 479.611 60.8091H446.151V43.3091H472.191C473.405 43.3091 474.291 43.0758 474.851 42.6091C475.411 42.0491 475.691 41.2558 475.691 40.2291ZM438.031 0.329102H462.531V90.2091H438.031V0.329102Z" fill="#FF9900"/>
<path d="M402.806 37.8491V20.9091C402.806 19.8824 402.526 19.1358 401.966 18.6691C401.406 18.1091 400.519 17.8291 399.306 17.8291H394.686V0.329102H406.726C414.192 0.329102 419.466 1.91577 422.546 5.0891C425.719 8.26243 427.306 12.4624 427.306 17.6891V37.8491H402.806ZM402.806 69.6291V36.0291H427.306V72.8491C427.306 78.0758 425.719 82.2758 422.546 85.4491C419.466 88.6224 414.192 90.2091 406.726 90.2091H394.686V72.7091H399.306C400.519 72.7091 401.406 72.4758 401.966 72.0091C402.526 71.4491 402.806 70.6558 402.806 69.6291ZM389.926 20.9091V37.8491H365.426V17.6891C365.426 12.4624 366.966 8.26243 370.046 5.0891C373.219 1.91577 378.539 0.329102 386.006 0.329102H398.046V17.8291H393.426C392.212 17.8291 391.326 18.1091 390.766 18.6691C390.206 19.1358 389.926 19.8824 389.926 20.9091ZM389.926 36.0291V69.6291C389.926 70.6558 390.206 71.4491 390.766 72.0091C391.326 72.4758 392.212 72.7091 393.426 72.7091H398.046V90.2091H386.006C378.539 90.2091 373.219 88.6224 370.046 85.4491C366.966 82.2758 365.426 78.0758 365.426 72.8491V36.0291H389.926Z" fill="#FF9900"/>
<path d="M331.59 38.5491V20.9091C331.59 19.8824 331.31 19.1358 330.75 18.6691C330.19 18.1091 329.303 17.8291 328.09 17.8291H302.05V0.329102H335.51C342.976 0.329102 348.25 1.91577 351.33 5.0891C354.503 8.26243 356.09 12.4624 356.09 17.6891V40.9291C356.09 46.1558 354.503 50.3558 351.33 53.5291C348.25 56.7024 342.976 58.2891 335.51 58.2891H302.05V41.6291H328.09C329.303 41.6291 330.19 41.3958 330.75 40.9291C331.31 40.3691 331.59 39.5758 331.59 38.5491ZM293.93 0.329102H318.43V90.2091H293.93V0.329102ZM315.63 48.4891H339.57L360.57 90.2091H334.25L315.63 48.4891Z" fill="#FF9900"/>
<path d="M245.822 8.7291H270.322V90.2091H245.822V8.7291ZM287.682 0.329102V17.8291H228.602V0.329102H287.682Z" fill="#FF9900"/>
<path d="M142.582 0.329102H167.082V90.2091H142.582V0.329102ZM192.422 36.1691V53.6691H153.082V36.1691H192.422ZM196.482 0.329102V17.8291H151.262V0.329102H196.482ZM197.742 72.7091V90.2091H151.262V72.7091H197.742Z" fill="#FF9900"/>
<path d="M110.409 37.1491V54.6491H85.2094V37.1491H110.409ZM65.6094 0.329102H89.6894V90.2091H65.6094V0.329102ZM107.329 0.329102H131.409V90.2091H107.329V0.329102Z" fill="#FF9900"/>
<path d="M17.5012 8.7291H42.0013V90.2091H17.5012V8.7291ZM59.3613 0.329102V17.8291H0.28125V0.329102H59.3613Z" fill="#FF9900"/>
</svg>
