<svg width="1047" height="91" viewBox="0 0 1047 91" fill="none" xmlns="http://www.w3.org/2000/svg">
<path d="M990.914 0.913086H1015.41V90.7931H990.914V0.913086ZM1040.75 36.7531V54.2531H1001.41V36.7531H1040.75ZM1044.81 0.913086V18.4131H999.594V0.913086H1044.81ZM1046.07 73.2931V90.7931H999.594V73.2931H1046.07Z" fill="#FF9900"/>
<path d="M955.595 38.4331V20.0931C955.595 19.0664 955.315 18.3198 954.755 17.8531C954.195 17.2931 953.308 17.0131 952.095 17.0131H926.335V0.913086H959.515C966.981 0.913086 972.255 2.49975 975.335 5.67308C978.508 8.84642 980.095 13.0464 980.095 18.2731V38.4331H955.595ZM955.595 71.6131V36.6131H980.095V73.4331C980.095 78.6598 978.508 82.8598 975.335 86.0331C972.255 89.2064 966.981 90.7931 959.515 90.7931H926.335V74.6931H952.095C953.308 74.6931 954.195 74.4598 954.755 73.9931C955.315 73.4331 955.595 72.6398 955.595 71.6131ZM918.215 0.913086H942.715V90.7931H918.215V0.913086Z" fill="#FF9900"/>
<path d="M881.587 38.4331V21.4931C881.587 20.4664 881.307 19.7197 880.747 19.2531C880.187 18.6931 879.3 18.4131 878.087 18.4131H873.467V0.913086H885.507C892.974 0.913086 898.247 2.49975 901.327 5.67308C904.5 8.84642 906.087 13.0464 906.087 18.2731V38.4331H881.587ZM881.587 70.2131V36.6131H906.087V73.4331C906.087 78.6598 904.5 82.8598 901.327 86.0331C898.247 89.2064 892.974 90.7931 885.507 90.7931H873.467V73.2931H878.087C879.3 73.2931 880.187 73.0598 880.747 72.5931C881.307 72.0331 881.587 71.2398 881.587 70.2131ZM868.707 21.4931V38.4331H844.207V18.2731C844.207 13.0464 845.747 8.84642 848.827 5.67308C852 2.49975 857.32 0.913086 864.787 0.913086H876.827V18.4131H872.207C870.994 18.4131 870.107 18.6931 869.547 19.2531C868.987 19.7197 868.707 20.4664 868.707 21.4931ZM868.707 36.6131V70.2131C868.707 71.2398 868.987 72.0331 869.547 72.5931C870.107 73.0598 870.994 73.2931 872.207 73.2931H876.827V90.7931H864.787C857.32 90.7931 852 89.2064 848.827 86.0331C845.747 82.8598 844.207 78.6598 844.207 73.4331V36.6131H868.707Z" fill="#FF9900"/>
<path d="M799.109 20.0931V71.6131C799.109 72.6398 799.389 73.4331 799.949 73.9931C800.509 74.4598 801.396 74.6931 802.609 74.6931H806.249V90.7931H795.189C787.723 90.7931 782.403 89.2064 779.229 86.0331C776.149 82.8598 774.609 78.6598 774.609 73.4331V18.2731C774.609 13.0464 776.149 8.84642 779.229 5.67308C782.403 2.49975 787.723 0.913086 795.189 0.913086H806.249V17.0131H802.609C801.396 17.0131 800.509 17.2931 799.949 17.8531C799.389 18.3198 799.109 19.0664 799.109 20.0931ZM811.009 34.5131V20.0931C811.009 19.0664 810.729 18.3198 810.169 17.8531C809.609 17.2931 808.723 17.0131 807.509 17.0131H803.869V0.913086H814.929C822.396 0.913086 827.669 2.49975 830.749 5.67308C833.923 8.84642 835.509 13.0464 835.509 18.2731V34.5131H811.009ZM811.009 71.6131V57.7531H835.509V73.4331C835.509 78.6598 833.923 82.8598 830.749 86.0331C827.669 89.2064 822.396 90.7931 814.929 90.7931H803.869V74.6931H807.509C808.723 74.6931 809.609 74.4598 810.169 73.9931C810.729 73.4331 811.009 72.6398 811.009 71.6131Z" fill="#FF9900"/>
<path d="M689.312 0.913086H713.812V90.7931H689.312V0.913086ZM697.432 90.7931V73.2931H741.673V90.7931H697.432Z" fill="#FF9900"/>
<path d="M668.319 59.9931V77.3531H623.379V59.9931H668.319ZM683.719 90.7931H659.079L645.639 27.6531L631.779 90.7931H607.699L630.799 0.913086H660.619L683.719 90.7931Z" fill="#FF9900"/>
<path d="M567.781 20.0931V71.6131C567.781 72.6398 568.061 73.4331 568.621 73.9931C569.181 74.4598 570.068 74.6931 571.281 74.6931H574.921V90.7931H563.861C556.395 90.7931 551.075 89.2064 547.901 86.0331C544.821 82.8598 543.281 78.6598 543.281 73.4331V18.2731C543.281 13.0464 544.821 8.84642 547.901 5.67308C551.075 2.49975 556.395 0.913086 563.861 0.913086H574.921V17.0131H571.281C570.068 17.0131 569.181 17.2931 568.621 17.8531C568.061 18.3198 567.781 19.0664 567.781 20.0931ZM579.681 34.5131V20.0931C579.681 19.0664 579.401 18.3198 578.841 17.8531C578.281 17.2931 577.395 17.0131 576.181 17.0131H572.541V0.913086H583.601C591.068 0.913086 596.341 2.49975 599.421 5.67308C602.595 8.84642 604.181 13.0464 604.181 18.2731V34.5131H579.681ZM579.681 71.6131V57.7531H604.181V73.4331C604.181 78.6598 602.595 82.8598 599.421 86.0331C596.341 89.2064 591.068 90.7931 583.601 90.7931H572.541V74.6931H576.181C577.395 74.6931 578.281 74.4598 578.841 73.9931C579.401 73.4331 579.681 72.6398 579.681 71.6131Z" fill="#FF9900"/>
<path d="M508.297 0.913086H532.797V90.7931H508.297V0.913086Z" fill="#FF9900"/>
<path d="M475.41 40.8131V21.4931C475.41 20.4664 475.13 19.7197 474.57 19.2531C474.01 18.6931 473.123 18.4131 471.91 18.4131H445.87V0.913086H479.33C486.797 0.913086 492.07 2.49975 495.15 5.67308C498.323 8.84642 499.91 13.0464 499.91 18.2731V44.0331C499.91 49.2598 498.323 53.4598 495.15 56.6331C492.07 59.8064 486.797 61.3931 479.33 61.3931H445.87V43.8931H471.91C473.123 43.8931 474.01 43.6598 474.57 43.1931C475.13 42.6331 475.41 41.8398 475.41 40.8131ZM437.75 0.913086H462.25V90.7931H437.75V0.913086Z" fill="#FF9900"/>
<path d="M402.525 38.4331V21.4931C402.525 20.4664 402.245 19.7197 401.685 19.2531C401.125 18.6931 400.238 18.4131 399.025 18.4131H394.405V0.913086H406.445C413.911 0.913086 419.185 2.49975 422.265 5.67308C425.438 8.84642 427.025 13.0464 427.025 18.2731V38.4331H402.525ZM402.525 70.2131V36.6131H427.025V73.4331C427.025 78.6598 425.438 82.8598 422.265 86.0331C419.185 89.2064 413.911 90.7931 406.445 90.7931H394.405V73.2931H399.025C400.238 73.2931 401.125 73.0598 401.685 72.5931C402.245 72.0331 402.525 71.2398 402.525 70.2131ZM389.645 21.4931V38.4331H365.145V18.2731C365.145 13.0464 366.685 8.84642 369.765 5.67308C372.938 2.49975 378.258 0.913086 385.725 0.913086H397.765V18.4131H393.145C391.931 18.4131 391.045 18.6931 390.485 19.2531C389.925 19.7197 389.645 20.4664 389.645 21.4931ZM389.645 36.6131V70.2131C389.645 71.2398 389.925 72.0331 390.485 72.5931C391.045 73.0598 391.931 73.2931 393.145 73.2931H397.765V90.7931H385.725C378.258 90.7931 372.938 89.2064 369.765 86.0331C366.685 82.8598 365.145 78.6598 365.145 73.4331V36.6131H389.645Z" fill="#FF9900"/>
<path d="M331.308 39.1331V21.4931C331.308 20.4664 331.028 19.7197 330.468 19.2531C329.908 18.6931 329.022 18.4131 327.808 18.4131H301.768V0.913086H335.228C342.695 0.913086 347.968 2.49975 351.048 5.67308C354.222 8.84642 355.808 13.0464 355.808 18.2731V41.5131C355.808 46.7398 354.222 50.9398 351.048 54.1131C347.968 57.2864 342.695 58.8731 335.228 58.8731H301.768V42.2131H327.808C329.022 42.2131 329.908 41.9798 330.468 41.5131C331.028 40.9531 331.308 40.1598 331.308 39.1331ZM293.648 0.913086H318.148V90.7931H293.648V0.913086ZM315.348 49.0731H339.288L360.288 90.7931H333.968L315.348 49.0731Z" fill="#FF9900"/>
<path d="M245.54 9.31309H270.04V90.7931H245.54V9.31309ZM287.4 0.913086V18.4131H228.32V0.913086H287.4Z" fill="#FF9900"/>
<path d="M142.301 0.913086H166.801V90.7931H142.301V0.913086ZM192.141 36.7531V54.2531H152.801V36.7531H192.141ZM196.201 0.913086V18.4131H150.981V0.913086H196.201ZM197.461 73.2931V90.7931H150.981V73.2931H197.461Z" fill="#FF9900"/>
<path d="M110.128 37.7331V55.2331H84.9281V37.7331H110.128ZM65.3281 0.913086H89.4081V90.7931H65.3281V0.913086ZM107.048 0.913086H131.128V90.7931H107.048V0.913086Z" fill="#FF9900"/>
<path d="M17.22 9.31309H41.72V90.7931H17.22V9.31309ZM59.08 0.913086V18.4131H0V0.913086H59.08Z" fill="#FF9900"/>
</svg>
