<svg width="1047" height="91" viewBox="0 0 1047 91" fill="none" xmlns="http://www.w3.org/2000/svg">
<path d="M991.043 0.913086H1015.54V90.7931H991.043V0.913086ZM1040.88 36.7531V54.2531H1001.54V36.7531H1040.88ZM1044.94 0.913086V18.4131H999.723V0.913086H1044.94ZM1046.2 73.2931V90.7931H999.723V73.2931H1046.2Z" fill="#FF9900"/>
<path d="M955.724 38.4331V20.0931C955.724 19.0664 955.444 18.3198 954.884 17.8531C954.324 17.2931 953.437 17.0131 952.224 17.0131H926.464V0.913086H959.644C967.11 0.913086 972.384 2.49975 975.464 5.67308C978.637 8.84642 980.224 13.0464 980.224 18.2731V38.4331H955.724ZM955.724 71.6131V36.6131H980.224V73.4331C980.224 78.6598 978.637 82.8598 975.464 86.0331C972.384 89.2064 967.11 90.7931 959.644 90.7931H926.464V74.6931H952.224C953.437 74.6931 954.324 74.4598 954.884 73.9931C955.444 73.4331 955.724 72.6398 955.724 71.6131ZM918.344 0.913086H942.844V90.7931H918.344V0.913086Z" fill="#FF9900"/>
<path d="M881.716 38.4331V21.4931C881.716 20.4664 881.436 19.7197 880.876 19.2531C880.316 18.6931 879.429 18.4131 878.216 18.4131H873.596V0.913086H885.636C893.103 0.913086 898.376 2.49975 901.456 5.67308C904.629 8.84642 906.216 13.0464 906.216 18.2731V38.4331H881.716ZM881.716 70.2131V36.6131H906.216V73.4331C906.216 78.6598 904.629 82.8598 901.456 86.0331C898.376 89.2064 893.103 90.7931 885.636 90.7931H873.596V73.2931H878.216C879.429 73.2931 880.316 73.0598 880.876 72.5931C881.436 72.0331 881.716 71.2398 881.716 70.2131ZM868.836 21.4931V38.4331H844.336V18.2731C844.336 13.0464 845.876 8.84642 848.956 5.67308C852.129 2.49975 857.449 0.913086 864.916 0.913086H876.956V18.4131H872.336C871.123 18.4131 870.236 18.6931 869.676 19.2531C869.116 19.7197 868.836 20.4664 868.836 21.4931ZM868.836 36.6131V70.2131C868.836 71.2398 869.116 72.0331 869.676 72.5931C870.236 73.0598 871.123 73.2931 872.336 73.2931H876.956V90.7931H864.916C857.449 90.7931 852.129 89.2064 848.956 86.0331C845.876 82.8598 844.336 78.6598 844.336 73.4331V36.6131H868.836Z" fill="#FF9900"/>
<path d="M799.238 20.0931V71.6131C799.238 72.6398 799.518 73.4331 800.078 73.9931C800.638 74.4598 801.525 74.6931 802.738 74.6931H806.378V90.7931H795.318C787.852 90.7931 782.532 89.2064 779.358 86.0331C776.278 82.8598 774.738 78.6598 774.738 73.4331V18.2731C774.738 13.0464 776.278 8.84642 779.358 5.67308C782.532 2.49975 787.852 0.913086 795.318 0.913086H806.378V17.0131H802.738C801.525 17.0131 800.638 17.2931 800.078 17.8531C799.518 18.3198 799.238 19.0664 799.238 20.0931ZM811.138 34.5131V20.0931C811.138 19.0664 810.858 18.3198 810.298 17.8531C809.738 17.2931 808.852 17.0131 807.638 17.0131H803.998V0.913086H815.058C822.525 0.913086 827.798 2.49975 830.878 5.67308C834.052 8.84642 835.638 13.0464 835.638 18.2731V34.5131H811.138ZM811.138 71.6131V57.7531H835.638V73.4331C835.638 78.6598 834.052 82.8598 830.878 86.0331C827.798 89.2064 822.525 90.7931 815.058 90.7931H803.998V74.6931H807.638C808.852 74.6931 809.738 74.4598 810.298 73.9931C810.858 73.4331 811.138 72.6398 811.138 71.6131Z" fill="#FF9900"/>
<path d="M689.441 0.913086H713.941V90.7931H689.441V0.913086ZM697.561 90.7931V73.2931H741.801V90.7931H697.561Z" fill="#FF9900"/>
<path d="M668.448 59.9931V77.3531H623.508V59.9931H668.448ZM683.848 90.7931H659.208L645.768 27.6531L631.908 90.7931H607.828L630.928 0.913086H660.748L683.848 90.7931Z" fill="#FF9900"/>
<path d="M567.91 20.0931V71.6131C567.91 72.6398 568.19 73.4331 568.75 73.9931C569.31 74.4598 570.197 74.6931 571.41 74.6931H575.05V90.7931H563.99C556.523 90.7931 551.203 89.2064 548.03 86.0331C544.95 82.8598 543.41 78.6598 543.41 73.4331V18.2731C543.41 13.0464 544.95 8.84642 548.03 5.67308C551.203 2.49975 556.523 0.913086 563.99 0.913086H575.05V17.0131H571.41C570.197 17.0131 569.31 17.2931 568.75 17.8531C568.19 18.3198 567.91 19.0664 567.91 20.0931ZM579.81 34.5131V20.0931C579.81 19.0664 579.53 18.3198 578.97 17.8531C578.41 17.2931 577.523 17.0131 576.31 17.0131H572.67V0.913086H583.73C591.197 0.913086 596.47 2.49975 599.55 5.67308C602.723 8.84642 604.31 13.0464 604.31 18.2731V34.5131H579.81ZM579.81 71.6131V57.7531H604.31V73.4331C604.31 78.6598 602.723 82.8598 599.55 86.0331C596.47 89.2064 591.197 90.7931 583.73 90.7931H572.67V74.6931H576.31C577.523 74.6931 578.41 74.4598 578.97 73.9931C579.53 73.4331 579.81 72.6398 579.81 71.6131Z" fill="#FF9900"/>
<path d="M508.426 0.913086H532.926V90.7931H508.426V0.913086Z" fill="#FF9900"/>
<path d="M475.539 40.8131V21.4931C475.539 20.4664 475.259 19.7197 474.699 19.2531C474.139 18.6931 473.252 18.4131 472.039 18.4131H445.999V0.913086H479.459C486.926 0.913086 492.199 2.49975 495.279 5.67308C498.452 8.84642 500.039 13.0464 500.039 18.2731V44.0331C500.039 49.2598 498.452 53.4598 495.279 56.6331C492.199 59.8064 486.926 61.3931 479.459 61.3931H445.999V43.8931H472.039C473.252 43.8931 474.139 43.6598 474.699 43.1931C475.259 42.6331 475.539 41.8398 475.539 40.8131ZM437.879 0.913086H462.379V90.7931H437.879V0.913086Z" fill="#FF9900"/>
<path d="M402.653 38.4331V21.4931C402.653 20.4664 402.373 19.7197 401.813 19.2531C401.253 18.6931 400.367 18.4131 399.153 18.4131H394.533V0.913086H406.573C414.04 0.913086 419.313 2.49975 422.393 5.67308C425.567 8.84642 427.153 13.0464 427.153 18.2731V38.4331H402.653ZM402.653 70.2131V36.6131H427.153V73.4331C427.153 78.6598 425.567 82.8598 422.393 86.0331C419.313 89.2064 414.04 90.7931 406.573 90.7931H394.533V73.2931H399.153C400.367 73.2931 401.253 73.0598 401.813 72.5931C402.373 72.0331 402.653 71.2398 402.653 70.2131ZM389.773 21.4931V38.4331H365.273V18.2731C365.273 13.0464 366.813 8.84642 369.893 5.67308C373.067 2.49975 378.387 0.913086 385.853 0.913086H397.893V18.4131H393.273C392.06 18.4131 391.173 18.6931 390.613 19.2531C390.053 19.7197 389.773 20.4664 389.773 21.4931ZM389.773 36.6131V70.2131C389.773 71.2398 390.053 72.0331 390.613 72.5931C391.173 73.0598 392.06 73.2931 393.273 73.2931H397.893V90.7931H385.853C378.387 90.7931 373.067 89.2064 369.893 86.0331C366.813 82.8598 365.273 78.6598 365.273 73.4331V36.6131H389.773Z" fill="#FF9900"/>
<path d="M331.437 39.1331V21.4931C331.437 20.4664 331.157 19.7197 330.597 19.2531C330.037 18.6931 329.151 18.4131 327.937 18.4131H301.897V0.913086H335.357C342.824 0.913086 348.097 2.49975 351.177 5.67308C354.351 8.84642 355.937 13.0464 355.937 18.2731V41.5131C355.937 46.7398 354.351 50.9398 351.177 54.1131C348.097 57.2864 342.824 58.8731 335.357 58.8731H301.897V42.2131H327.937C329.151 42.2131 330.037 41.9798 330.597 41.5131C331.157 40.9531 331.437 40.1598 331.437 39.1331ZM293.777 0.913086H318.277V90.7931H293.777V0.913086ZM315.477 49.0731H339.417L360.417 90.7931H334.097L315.477 49.0731Z" fill="#FF9900"/>
<path d="M245.669 9.31309H270.169V90.7931H245.669V9.31309ZM287.529 0.913086V18.4131H228.449V0.913086H287.529Z" fill="#FF9900"/>
<path d="M142.43 0.913086H166.93V90.7931H142.43V0.913086ZM192.27 36.7531V54.2531H152.93V36.7531H192.27ZM196.33 0.913086V18.4131H151.11V0.913086H196.33ZM197.59 73.2931V90.7931H151.11V73.2931H197.59Z" fill="#FF9900"/>
<path d="M110.257 37.7331V55.2331H85.057V37.7331H110.257ZM65.457 0.913086H89.537V90.7931H65.457V0.913086ZM107.177 0.913086H131.257V90.7931H107.177V0.913086Z" fill="#FF9900"/>
<path d="M17.3489 9.31309H41.8489V90.7931H17.3489V9.31309ZM59.2089 0.913086V18.4131H0.128906V0.913086H59.2089Z" fill="#FF9900"/>
</svg>
